<svg xmlns="http://www.w3.org/2000/svg" viewBox="0 0 500 500"><defs><style>.cls-1{fill:#1f2937;}.cls-2{fill:#d7c084;}</style></defs><g id="Layer_3" data-name="Layer 3"><rect class="cls-1" width="500" height="500"/></g><g id="dientes"><path class="cls-2" d="M434.33,228.71l-1.57-1-.78-5.34-.92-5.27-1-5.34-1.18-5.28-1.37-5.2-1.5-5.14L424.34,191l-1.77-5.07-2-5.08-2.09-4.94L416.3,171,414,166.15l-2.48-4.81-2.61-4.68-2.81-4.61-2.87-4.55-3-4.42L397,138.66l-3.27-4.21-3.39-4.22-3.53-4-3.59-4-3.79-3.83-3.78-3.76-4-3.62-4.05-3.56-4.11-3.36-4.25-3.3-4.37-3.16-4.38-3-4.5-2.9L341.4,88.9l-4.64-2.64L332,83.76l-4.77-2.31-4.9-2.24-5-2-5-2-5-1.78-5.1-1.59-5.15-1.51L292,69l-5.23-1.19-5.22-1-5.29-.86-5.29-.72L270,63.52,249.13,27,228.36,63.39,227.45,65l-5.36.66-5.35.86-5.29,1.06-5.29,1.12-5.22,1.38-5.23,1.45-5.16,1.65L185.46,75l-5,1.91-5,2.11-4.9,2.17-4.89,2.38-4.77,2.5-4.77,2.71-4.63,2.76-4.57,2.9-4.45,3.1-4.37,3.17L133.74,104l-4.18,3.43L125.45,111l-4,3.69-3.85,3.82-3.79,3.89-3.66,4-3.52,4.16-3.46,4.22-3.27,4.28-3.2,4.42-3,4.55-2.94,4.61L88,157.32l-2.68,4.75-2.48,4.81-2.35,4.94-2.22,5-2.09,5-1.9,5.14-1.82,5.14-1.64,5.21-1.43,5.2L68,207.81l-1.17,5.34-1,5.34L65,223.83l-.66,5.47h-.06l-1.57.92L29.52,249.54l32.84,19.18,1.57.92.59,5.28.72,5.34.91,5.27,1,5.21,1.17,5.2,1.31,5.21,1.5,5.14,1.63,5.08,1.77,5,1.89,5,2.09,4.94,2.15,4.88L83.06,336l2.49,4.68,2.54,4.68L90.84,350l2.87,4.48,2.94,4.42,3.13,4.35,3.2,4.22,3.33,4.15,3.46,4.09,3.59,4,3.66,3.82,3.79,3.76,3.92,3.63,4,3.49,4.12,3.36L137,401l4.25,3.16,4.37,3,4.44,2.9,4.51,2.77,4.64,2.64,4.7,2.5,4.7,2.38,4.83,2.24,4.84,2.11,5,2,5,1.78,5,1.71,5.09,1.52,5.1,1.38,5.16,1.19,5.22,1.05,5.22,1,5.23.72,5.22.66.92,1.59,18.74,32.82,18.81-33,.91-1.58,5.22-.66,5.16-.79,5.16-.92,5.16-1.12,5.09-1.25,5-1.39,5-1.51,5-1.65,4.9-1.85,4.9-1.91,4.83-2.11,4.7-2.24,4.71-2.37,4.63-2.44,4.57-2.64,4.44-2.77,4.44-2.9,4.31-3,4.18-3.17,4.18-3.23,4.05-3.36,3.92-3.49,3.85-3.56,3.79-3.69,3.66-3.83,3.52-3.89,3.4-4L394,367.8l3.2-4.16,3.07-4.28,3-4.42,2.81-4.42,2.68-4.54,2.61-4.62,2.48-4.68,2.29-4.74,2.22-4.82,2-4.87,1.9-4.88,1.82-5,1.64-5,1.5-5.08,1.3-5.14,1.25-5.14,1-5.14.91-5.21.79-5.27.65-5.21,1.57-.92,35.46-20.7ZM273.27,71.43l5.22.86,5.16,1,5.16,1.12,5.09,1.26L299,77l5,1.58,5,1.72,5,1.91,4.84,2,4.83,2.17,4.76,2.31,4.71,2.44,4.57,2.57,4.57,2.7,4.44,2.84,4.37,3,4.25,3.1,4.18,3.23,4.11,3.36,4,3.5,3.91,3.56,3.79,3.69,3.66,3.82,3.59,4,3.4,4,3.33,4.08,3.26,4.22,3.07,4.35,2.94,4.35,2.81,4.55,2.74,4.55,2.55,4.61,2.41,4.75,2.29,4.81,2.15,4.81,2,4.95,1.89,5,1.7,5,1.57,5.07,1.43,5.14,1.24,5.15,1.18,5.2,1,5.21.78,5.27-1.56-.92-95.87-55.9L274.18,73.08l-.91-1.59ZM249.13,44.8l95.21,166.51h-.07l.66,1.25.45,1.32.4,1.32.19,1.38L346,218l-.07,1.39-.19,1.38-.4,1.32-.45,1.32-.66,1.25-.78,1.19-.85,1.05.07.07-15.09,16.94h-.06l-.79.86-.78.79h-.07l-.19-3.43-.46-3.43-.52-3.36L324,232l-.85-3.36-1-3.23-1.11-3.23-1.3-3.16-1.38-3.1-1.56-3-1.64-3L313.39,207l-1.9-2.83-2.09-2.71-2.15-2.63L305,196.34l-2.41-2.44-2.49-2.3-2.54-2.24-2.68-2.05-2.81-2-2.87-1.84-2.94-1.65-3-1.58-3.07-1.45L277,177.56l-3.13-1.19-3.27-1-3.26-.86L264,173.8l-3.33-.59-3.33-.4h-.07l-1-1.65-1.11-1.65L254,168l-1.24-1.52-1.38-1.38L250,163.71l-16.71-15.22-.07.06L232,147.43l-1.37-1.05-1.5-.86-1.57-.79-1.63-.66-1.63-.53-1.7-.33-1.7-.26-1.7-.13h-1.76l-1.7.2-1.69.26-1.7.46-1.63.53-1.57.72-1.5.79-.07-.06-24.1,14.1Zm55.48,241.09L303,288.21l-1.08-.79-1.42-1-1.63-1.17-1.81-1.3-1.92-1.4-8.39-6-4.06-2.91-1.84-1.33-1.7-1.23-1.5-1.08-1.25-.9-1-.7-.67-.47-1-.6-1-.3-1,0-1,.24-.9.53-.39.34-.13.13v0l-.07.08-.28.32-.17.19-.53.75-.29.83-.12.89.1.86.31.85.23.36.28.47.52.81.71,1.13.88,1.4,1,1.64,1.16,1.85,2.57,4.09,2.79,4.43,2.78,4.41,2.58,4.11,1.16,1.83,1,1.64.9,1.42.67,1.07-.73.54-2.51,1.66,0-.07-.75-1.22-.94-1.49-1-1.72-1.18-1.88-1.27-2.06-5.45-8.8-2.64-4.27-1.21-2-1.1-1.77-1-1.56-.82-1.32-.63-1L266,276l-.66-.92-.78-.66-.93-.42-1-.15-1,.13-.51.17-.17.08v0l-.11,0-.37.19-.23.12-.76.49-.6.66-.43.75-.24.87,0,.9.06.42.09.53.17,1,.22,1.32.28,1.62.34,1.92.37,2.15.82,4.79.9,5.15.9,5.17.84,4.79.37,2.15.34,1.9.28,1.64.22,1.32,0,.16-.53.13-3.11.58-.19,0-.05-.26-.24-1.41-.28-1.74-.34-2-.35-2.2L258.9,305l-1.7-10.26-.82-5-.38-2.26-.35-2.07-.3-1.81-.24-1.55-.21-1.19-.13-.83-.26-1.09L254,278l-.69-.74-.86-.53-1-.26-.52,0-.19,0h-.11l-.43,0-.24,0-.9.17-.8.36-.69.54-.55.7-.37.83-.09.4-.13.54-.21.95-.28,1.3-.35,1.62-.42,1.9-.46,2.11-1.05,4.76-1.12,5.11-1.14,5.11-1.05,4.75-.46,2.13-.41,1.89-.36,1.64-.28,1.3-.07.32-.13,0-3.1-.58-.62-.15.11-.46.32-1.41.39-1.72.45-2,.5-2.19.53-2.36L239.56,294l1.11-4.9.52-2.25.45-2,.41-1.81.35-1.51.26-1.19.19-.81.19-1.11-.1-1-.37-.94-.6-.82-.8-.64-.49-.22-.16-.08-.12,0-.39-.13-.24-.09-.88-.19-.88,0-.84.22-.78.44-.64.62-.26.34-.3.45-.56.79-.75,1.1-.95,1.35-1.1,1.59-1.23,1.79-2.77,4-3,4.3-3,4.28-2.76,4-1.24,1.77-1.1,1.6-.95,1.36-.77,1.09-.28.42-2.32-1.54-.92-.68.35-.48.82-1.19,1-1.43,1.17-1.64,1.27-1.83,1.39-2,6-8.49,2.88-4.09,1.33-1.87,1.19-1.71,1.07-1.51.89-1.26.7-1,.48-.68.6-1,.28-1,0-1-.26-1-.51-.91-.33-.39-.14-.12v0l-.08-.07-.32-.28-.18-.17-.75-.51-.82-.32-.88-.12-.88.12-.82.32-.36.2-.46.31-.81.52-1.12.72-1.38.89-1.62,1-1.82,1.19-4.07,2.6L211,278.21,206.63,281l-4.06,2.62-1.81,1.17-1.62,1-1.39.89-1.12.73-.51.33-1.3-1.91-.85-1.4.59-.37,1.21-.78,1.48-.92,1.68-1.08,1.89-1.18,2-1.29,8.72-5.52,4.22-2.68,1.93-1.21,1.75-1.13,1.55-1,1.31-.83,1-.64.69-.43.91-.66.64-.8.41-.94.15-1-.13-1-.17-.49-.07-.17v0l-.06-.1-.19-.37-.09-.23-.5-.77-.64-.61-.77-.43-.85-.25-.9,0-.39.07-.55.1-.93.17-1.31.22-1.62.28-1.89.34-2.13.38-4.74.85-5.1.92-5.1.91-4.75.85-2.13.37-1.88.34-1.63.31-1.31.22-.64.12-.37-1.68-.36-2.21.72-.11,1.42-.25,1.72-.3,2-.34,2.18-.36,2.36-.41,10.16-1.74,4.89-.83,2.25-.39,2-.34,1.81-.32,1.52-.25,1.19-.21.81-.15,1.08-.24.91-.49.73-.7.51-.89.28-1,0-.53V250l0-.42v-.26l-.17-.89-.37-.83-.54-.7-.7-.54-.8-.36-.41-.12-.52-.11-.94-.21-1.29-.28-1.6-.36-1.89-.41-2.11-.47L207.45,243l-5.06-1.13-5.06-1.13-4.71-1-2.11-.47-1.87-.42-1.63-.35-1.29-.29-.6-.13.19-1.17.6-2.71.69.17,1.4.32,1.7.37,2,.46,2.16.51,2.32.52,10.05,2.32L211,239.9l2.22.5,2,.48,1.79.41,1.5.34,1.17.28.81.19,1.1.17,1-.09.93-.38.8-.6.64-.81.22-.49.06-.17h0l0-.12.13-.39.07-.25.19-.88,0-.89-.24-.87-.43-.77-.62-.66-.34-.25-.43-.3-.78-.56-1.08-.76-1.37-1L218.88,231l-1.77-1.25-3.94-2.79-4.26-3-4.24-3-4-2.79L199,216.91l-1.59-1.11-1.34-1-1.09-.75-.42-.31.31-.52,1.78-2.63.09-.12.5.36,1.18.84,1.42,1,1.63,1.17,1.81,1.3,1.94,1.4,8.41,6,4,2.91,1.85,1.34,1.7,1.2,1.5,1.08,1.25.9,1,.7.65.47,1,.61,1,.3,1,0,1-.25.9-.51.39-.35.11-.14,0,0,.08-.07.28-.32.15-.19.52-.75.32-.83.09-.89-.11-.89-.32-.83-.2-.35-.3-.48-.51-.81-.71-1.13-.89-1.39-1-1.64-1.16-1.83-2.6-4.1-2.8-4.41-2.78-4.41-2.6-4.11-1.17-1.83-1-1.64-.9-1.4-.71-1.13-.2-.32.14-.1,2.6-1.73.54-.32.23.38.76,1.22.94,1.49,1.06,1.7,1.18,1.91,1.27,2,5.49,8.81,2.64,4.24,1.21,2,1.1,1.78,1,1.56.82,1.32.64,1,.43.7.65.92.81.66.91.42,1,.13,1-.12.5-.18.15-.08h0l.1-.06.37-.17.22-.11.77-.51.6-.64.43-.77.24-.87,0-.91-.06-.39-.09-.55-.17-.94-.22-1.32-.3-1.64L241,214l-.37-2.14-.86-4.79-.9-5.16-.91-5.15L237.1,192l-.38-2.13-.33-1.92-.28-1.64-.25-1.32,0-.21,2.84-.53,1-.14,0,.22.25,1.43.29,1.73.34,2,.37,2.19.4,2.38,1.73,10.25.84,5,.4,2.27.33,2.07.32,1.81.26,1.55.21,1.18.13.83.26,1.1.49.9.69.74.86.53,1,.26.52,0h.2l.12,0,.41,0,.24,0,.9-.17.8-.36.69-.54.54-.72.38-.81.09-.42.11-.52.21-1,.28-1.3.35-1.64.41-1.88.47-2.13,1-4.76,1.1-5.11,1.12-5.13,1-4.75.47-2.11.41-1.9.35-1.63.28-1.29,2.49.46,1.7.42,0,.07-.32,1.4-.39,1.72-.47,2-.5,2.16-.53,2.36L261,205.05l-1.12,4.88-.52,2.25-.47,2-.41,1.81-.36,1.51-.26,1.19-.19.81-.18,1.11.09,1,.36.94.59.83.81.62.48.25.17.06.11,0,.4.15.24.08.88.21.87,0,.86-.23.77-.43.65-.62.25-.34.31-.44.55-.79.76-1.09.95-1.36,1.11-1.6,1.23-1.77,2.78-4,3-4.28,3-4.28,2.77-4,1.25-1.78,1.1-1.58.95-1.38.64-.93,1.58,1,1.63,1.21-.75,1.08-1,1.43-1.17,1.64-1.29,1.81-1.38,2-6,8.47-2.9,4.07-1.32,1.87-1.2,1.72-1.08,1.51-.9,1.26-.69,1-.49.68-.59,1-.3,1,0,1,.24,1,.51.9.35.4.13.11v0l.1.08.29.28.19.17.75.51.82.32.88.11.88-.11.84-.32.35-.21.45-.28.8-.53,1.12-.72,1.41-.88,1.62-1,1.81-1.17,4.08-2.6,4.37-2.81,4.39-2.79,4.07-2.6,1.81-1.17,1.63-1,1.38-.89.87-.55,1,1.42,1.16,1.89-1,.64-1.48.92-1.7,1.08L299.7,219l-2,1.27-8.74,5.5-4.23,2.66-1.92,1.21L281,230.71l-1.55,1-1.31.83-1,.64-.69.44-.92.66-.65.79-.41.94-.15,1,.13,1,.17.51.07.17.06.11.19.38.09.23.5.77.64.6.76.45.85.23.89,0,.41-.06.54-.09.94-.17,1.31-.23,1.62-.28,1.89-.34,2.13-.38,4.74-.83,5.1-.9,5.12-.89,4.75-.83,2.11-.38,1.9-.34,1.63-.28.95-.16.33,1.48.38,2.39-1.14.2-1.72.28-2,.34-2.18.36-2.36.39L295,242.5l-4.89.81-2.25.39-2.05.34-1.81.31-1.52.24-1.19.21-.8.13-1.09.26-.91.48-.73.71-.52.87-.27,1,0,.53v.3l0,.41,0,.27.15.9.38.81.54.7.69.55.8.38.41.09.53.13.93.21,1.29.28,1.61.38,1.88.41,2.09.48,4.71,1,5.06,1.15,5.05,1.15,4.71,1.06,2.11.47,1.86.43,1.61.36,1,.22-.22,1.35-.56,2.51-1.19-.27-1.68-.4-2-.45-2.15-.51-2.33-.54-10-2.34-4.84-1.13-2.22-.53-2-.47-1.79-.42-1.49-.36-1.18-.26-.8-.19-1.11-.19-1,.1-1,.37-.8.61-.64.81-.22.47-.07.17v0l0,.11-.13.4-.1.22-.18.91,0,.89.23.84.43.8.61.66.34.24.43.32.79.55,1.08.77,1.34.94,1.59,1.14,1.76,1.24,3.94,2.79,4.24,3,4.24,3,3.94,2.79,1.78,1.24,1.57,1.11,1.34,1,.89.63ZM71.51,220.27l1-5.21,1.17-5.2,1.24-5.15,1.44-5.14,1.57-5.07,1.69-5,1.9-5,2-4.95,2.16-4.81L88,169.91l2.42-4.75,2.55-4.61L95.67,156l2.81-4.55,2.93-4.35,3.07-4.35,3.27-4.22,3.33-4.08,3.4-4,3.59-4,3.65-3.82,3.79-3.69,3.92-3.56,4-3.5,4.12-3.36,4.18-3.23,4.24-3.1,4.38-3,4.44-2.84,4.57-2.7,4.57-2.57,4.7-2.44,4.77-2.31,4.83-2.17,4.83-2,5-1.91,5-1.72L198,77l5.09-1.38,5.09-1.26,5.16-1.12,5.16-1,5.23-.86v.06l-.92,1.59-54.66,95.64-95.86,55.9-1.57.92ZM47.15,249.54,212,153.43v.07l1.24-.66,1.31-.46,1.3-.4,1.38-.2,1.37-.06,1.37.06,1.37.2,1.31.4,1.3.46,1.24.66,1.18.79,1,.85v-.06l16.79,15.23v.06l1,1.06,1,1h.06l-3.39.26-3.4.33-3.33.53-3.33.73-3.27.79-3.26,1-3.2,1.12-3.2,1.32-3.07,1.38-3.07,1.52-2.94,1.71L208,184.94l-2.81,2-2.74,2-2.61,2.18-2.49,2.3-2.41,2.44-2.35,2.51L190.42,201l-2.09,2.77-2,2.76-1.83,2.9-1.69,3-1.57,3-1.44,3.1-1.3,3.17-1.18,3.23-1,3.29-.91,3.3-.72,3.36-.52,3.36-.46,3.43v.06L172,242.75l-1.7,1.12-1.63,1.25-1.57,1.32-1.5,1.38-1.44,1.52-15.08,16.94v.07L148,267.67l-1,1.38-.85,1.52-.78,1.58-.66,1.65-.52,1.64-.32,1.72-.27,1.71-.13,1.72v1.78l.2,1.71.26,1.71.46,1.72.52,1.65.72,1.58.78,1.51,13,22.74ZM220.72,430.61l-5.09-.92-5-1-5.09-1.18-5-1.32-5-1.52-4.9-1.58-4.89-1.78L181,419.47l-4.77-2-4.7-2.17L166.91,413l-4.57-2.44-4.5-2.57-4.38-2.7-4.37-2.84-4.25-3-4.18-3-4.11-3.23-4-3.29-3.85-3.43L124.86,383l-3.66-3.7-3.59-3.75-3.46-3.83-3.4-3.95-3.26-4.09-3.14-4.08-3-4.29L98.41,351l-2.74-4.42L93,342.09l-2.48-4.55-2.42-4.62-2.22-4.68-2.15-4.74-2-4.81-1.9-4.88-1.69-4.95-1.57-4.94-1.44-5.07-1.24-5-1.17-5.08-1-5.14-.85-5.14-.71-5.14h0v0l1.62.92,96.32,56.16,56.75,99.27.92,1.65Zm28.41,23.74L154,287.84l-.65-1.26-.46-1.31-.39-1.32-.19-1.39-.07-1.38.07-1.39.19-1.38.39-1.32.46-1.32.65-1.25.79-1.19.85-1.05v-.07l15.08-16.94h.07l.58-.66L172,254l.71-.65.72-.6v-.06l.2,3.42.39,3.43.52,3.43.66,3.43.85,3.36L177,273l1.11,3.23,1.31,3.23,1.37,3.16,1.56,3.1,1.64,3,1.83,2.9,1.89,2.83,2.09,2.77,2.15,2.71,2.29,2.57,2.42,2.44,2.54,2.37,2.61,2.17,2.68,2.11,2.81,2.05,2.87,1.84,3,1.72,3,1.58,3.14,1.45,3.13,1.32,3.27,1.12,3.26,1.05,3.27.86,3.39.72,3.33.53,3.4.46,1,1.72,1.11,1.58,1.17,1.51,1.24,1.52,1.37,1.39,1.38,1.38,16.78,15.23.06-.07,1.31,1.12,1.37,1.06,1.5.85,1.57.79,1.63.66,1.64.53,1.69.33,1.7.26,1.7.14h1.76l1.7-.2,1.7-.27,1.7-.46,1.63-.52,1.57-.73,1.56-.79-.06.07,22.07-12.92ZM426,279.93l-.85,5.07-1,5.08-1.11,5-1.31,5-1.5,4.94-1.57,4.88L417,314.8l-1.83,4.81-2,4.75L411,329l-2.28,4.61-2.35,4.55-2.55,4.55-2.61,4.41-2.74,4.29-2.94,4.28-2.94,4.15L389.46,364l-3.26,4-3.33,3.89-3.4,3.83-3.59,3.69L372.22,383l-3.72,3.5-3.85,3.36-4,3.29-4.05,3.17-4.12,3-4.18,2.9L344,405.1l-4.37,2.64-4.44,2.57-4.51,2.44L326.12,415l-4.64,2.18-4.7,2-4.7,1.91-4.83,1.72-4.83,1.64-4.9,1.45-5,1.32-5,1.19-5,1.05-5,.93-5.09.72,1-1.58,56-97.95,95.73-55.84,1.64-.92ZM287.72,345.71v-.06l-1.24.66-1.3.46-1.31.39-1.37.2-1.37.07-1.37-.07-1.38-.2-1.3-.39-1.31-.46-1.24-.66-1.17-.79-1.05-.86-.06.06-16.79-15.29-1-1-1-1.12,3.4-.27,3.39-.39,3.34-.53,3.33-.73,3.33-.85,3.26-1,3.2-1.12,3.2-1.32,3.07-1.38,3.07-1.59,2.94-1.71,2.87-1.85,2.81-2,2.74-2,2.61-2.24,2.49-2.3,2.41-2.44,2.35-2.51,2.16-2.64,2.09-2.76,2-2.84,1.76-2.9,1.7-3,1.56-3.09,1.44-3.1,1.24-3.23,1.18-3.23,1-3.3.85-3.36.65-3.36.59-3.43.39-3.36,1.57-1,1.43-1.05,1.44-1.12,1.37-1.26,1.37-1.25,1.24-1.32,15.09-16.94-.07-.06,1.11-1.32,1.05-1.39.85-1.51L353,227l.65-1.64.53-1.65.32-1.72.26-1.71.13-1.71v-1.78l-.19-1.72-.26-1.71-.46-1.71-.52-1.65-.72-1.58-.79-1.59L338.27,183l114.28,66.58Z"/></g></svg>