<?xml version="1.0" encoding="utf-8"?>
<!-- Generator: Adobe Illustrator 25.2.3, SVG Export Plug-In . SVG Version: 6.00 Build 0)  -->
<svg version="1.1" id="Layer_1" xmlns="http://www.w3.org/2000/svg" xmlns:xlink="http://www.w3.org/1999/xlink" x="0px" y="0px"
	 viewBox="0 0 500 500" style="enable-background:new 0 0 500 500;" xml:space="preserve">
<style type="text/css">
	.st0{fill:#111827;}
	.st1{fill:#EAB308;}
</style>
<g id="dientes">
	<path class="st0" d="M459.9,226.6l-1.8-1.1l-0.9-6l-1-6l-1.1-6l-1.4-6l-1.6-5.8l-1.7-5.8l-1.9-5.7l-2-5.7l-2.3-5.7l-2.4-5.5
		l-2.5-5.5l-2.6-5.5l-2.8-5.4l-2.9-5.3l-3.2-5.2l-3.3-5.2l-3.4-4.9l-3.6-5l-3.7-4.7l-3.9-4.7l-4-4.5l-4.1-4.5l-4.3-4.3l-4.3-4.3
		l-4.5-4l-4.5-4l-4.6-3.8l-4.8-3.7l-5-3.6l-5-3.4l-5.1-3.3l-5.2-3.1l-5.2-2.9l-5.5-2.8l-5.5-2.6l-5.6-2.5l-5.7-2.2l-5.7-2.2l-5.7-2
		l-5.8-1.7l-5.8-1.7l-5.6-1.6l-5.9-1.3l-5.9-1.1l-6-1l-6-0.8l-1.1-1.9L249.7,0L226,40.9l-1,1.8l-6.2,0.8l-6.1,1l-6,1.2l-6,1.2
		l-5.9,1.6l-5.9,1.6L183,52l-5.8,2l-5.7,2.1l-5.7,2.4l-5.6,2.5l-5.6,2.7l-5.5,2.8l-5.4,3.1l-5.2,3.1l-5.2,3.3l-5,3.5l-5,3.6l-5,3.7
		l-4.8,3.8l-4.7,4l-4.5,4.2l-4.3,4.3l-4.3,4.4l-4.2,4.5l-4,4.7l-4,4.7l-3.7,4.8l-3.6,4.9l-3.4,5.2l-3.3,5.2l-3.2,5.3l-3.1,5.4
		l-2.8,5.4l-2.6,5.5l-2.5,5.6l-2.4,5.6l-2.1,5.7l-2.1,5.7l-1.8,5.8l-1.6,5.8l-1.6,6l-1.4,5.9l-1.1,6l-0.9,6l-0.8,6.2h-0.1l-1.9,1
		L0,250.1l37.2,21.6l1.8,1l0.7,6l0.8,6l1,6l1.1,5.8l1.4,5.8l1.5,5.8l1.7,5.7l1.8,5.7l2,5.6l2.2,5.6l2.4,5.5l2.5,5.5l2.7,5.4l2.8,5.3
		l2.8,5.2l3.2,5.2l3.3,5.1l3.3,5l3.5,4.9l3.6,4.7l3.7,4.6l4,4.6l4.1,4.5l4.2,4.3l4.3,4.3l4.4,4l4.5,3.9l4.6,3.8l4.8,3.6l4.8,3.6
		l5,3.4l5,3.3l5.1,3.1l5.2,2.9l5.3,2.8l5.3,2.7l5.5,2.5l5.5,2.4l5.7,2.2l5.7,2l5.7,1.9l5.8,1.7l5.8,1.6l5.9,1.3l5.9,1.1l5.9,1.1
		l5.9,0.8l5.9,0.8l1,1.8l21.2,36.8l21.4-37l1-1.8l5.9-0.8l5.9-0.9l5.9-1l5.9-1.2l5.8-1.4l5.7-1.6l5.7-1.7l5.7-1.8l5.6-2.1l5.6-2.1
		l5.4-2.4l5.3-2.5l5.3-2.7l5.2-2.7l5.2-2.9l5-3.2l5-3.3l4.9-3.4l4.8-3.6l4.8-3.6l4.5-3.8l4.4-3.9l4.4-4.1l4.3-4.2l4.2-4.3l4-4.4
		l3.9-4.5l3.7-4.5l3.6-4.7l3.5-4.8l3.4-4.9l3.2-4.9l3.1-5.1l3-5.2l2.8-5.3l2.6-5.3l2.5-5.4l2.3-5.5l2.1-5.5l2-5.6l1.8-5.6l1.7-5.7
		l1.5-5.7l1.4-5.7l1.1-5.7l1-5.8l0.9-6l0.7-5.8l1.8-1l40.3-23.3L459.9,226.6z M277.1,49.9l5.9,1l5.9,1.1l5.9,1.2l5.8,1.5l5.7,1.5
		L312,58l5.7,1.9l5.7,2.1l5.5,2.2l5.5,2.5l5.5,2.6L345,72l5.2,2.9l5.2,3l5,3.2l5,3.4l4.8,3.5l4.8,3.6l4.6,3.8l4.5,3.9l4.4,4.1
		l4.3,4.2l4.2,4.3l4.1,4.5l3.9,4.5l3.7,4.6l3.7,4.7l3.5,4.9l3.3,5l3.2,5.2l3.1,5.2l2.8,5.2l2.7,5.4l2.6,5.4l2.4,5.4l2.3,5.5l2.2,5.6
		l1.9,5.6l1.8,5.7l1.6,5.7l1.4,5.7l1.4,5.8l1.1,5.8l0.9,6l-1.8-1L340,159.4L277.9,51.9L277.1,49.9z M249.7,20L357.8,207h-0.1
		l0.8,1.3l0.6,1.5l0.5,1.5l0.2,1.6v1.6l-0.1,1.6l-0.2,1.6l-0.5,1.5l-0.6,1.5l-0.8,1.4l-0.9,1.3l-1,1.2l0.1,0.1l-17.2,18.9h-0.1
		l-0.9,1l-0.9,0.9h-0.1l-0.2-3.8l-0.6-3.8l-0.6-3.8l-0.5-3.7l-1-3.8l-1.1-3.6l-1.3-3.6l-1.5-3.6l-1.6-3.5l-1.8-3.4l-1.8-3.4l-2-3.3
		l-2.2-3.2l-2.4-3l-2.4-2.9l-2.6-2.8l-2.6-2.7l-2.8-2.6l-2.8-2.5l-3.1-2.4l-3.2-2.2l-3.3-2l-3.3-1.8l-3.4-1.8l-3.5-1.6l-3.7-1.3
		l-3.5-1.3l-3.7-1.1l-3.7-1l-3.7-0.8l-3.7-0.7l-3.7-0.5h-0.1l-1.1-1.7l-1.2-1.8l-1.3-2l-1.4-1.7l-1.6-1.6l-1.6-1.6l-19-17.1
		l-0.1,0.1l-1.4-1.2l-1.6-1.2l-1.7-1l-1.8-0.9l-1.8-0.8l-1.8-0.6l-1.9-0.3l-1.9-0.3l-1.9-0.1h-2l-1.9,0.2l-1.9,0.3l-1.9,0.6
		l-1.8,0.6l-1.8,0.8l-1.7,0.9l-0.1-0.1l-27.4,15.8L249.7,20z M312.7,290.9l-1.8,2.6l-1.3-0.9l-1.6-1.1l-1.8-1.3l-2.1-1.5L302,287
		l-9.5-6.7l-4.6-3.3l-2-1.4l-1.9-1.4l-1.7-1.2l-1.4-1l-1.1-0.8l-0.8-0.6l-1.1-0.7l-1.1-0.3h-1.1l-1.1,0.2l-1,0.5l-0.5,0.3l-0.1,0.1
		l0,0l-0.1,0.1l-0.3,0.3l-0.2,0.2l-0.6,0.9l-0.3,0.9l-0.1,1l0.1,1l0.3,1l0.2,0.4l0.3,0.6l0.6,0.9l0.8,1.2l1,1.6l1.1,1.8l1.4,2.1
		l3,4.7l3.2,4.9l3.2,5l2.9,4.6l1.4,2.1l1.1,1.8l1,1.6l0.8,1.2l-0.8,0.6l-2.8,1.9v-0.1l-0.9-1.4l-1-1.7l-1.1-1.9l-1.4-2.1l-1.5-2.4
		l-6.2-9.9l-2.9-4.8l-1.4-2.2l-1.2-2l-1.1-1.8l-0.9-1.5l-0.7-1.1l-0.6-0.6l-0.8-1l-0.9-0.8l-1-0.5l-1.1-0.1l-1.1,0.1l-0.6,0.2
		l-0.2,0.1H263l-0.5,0.2l-0.2,0.1l-0.9,0.6l-0.7,0.8l-0.4,0.9l-0.2,1v1l0.1,0.4l0.1,0.6l0.2,1.1l0.2,1.5l0.3,1.8l0.3,2.1l0.5,2.4
		l0.9,5.4l1,5.7l1,5.8l0.9,5.4l0.5,2.4l0.3,2.1l0.3,1.8l0.2,1.5v0.2l-0.6,0.1l-3.5,0.7h-0.2v-0.3l-0.2-1.6l-0.3-1.9l-0.3-2.2
		l-0.5-2.5l-0.4-2.6l-1.9-11.6l-0.9-5.6l-0.4-2.6l-0.5-2.4l-0.3-2l-0.2-1.7l-0.2-1.4l-0.1-0.9L256,283l-0.7-1l-0.8-0.8l-1-0.6
		l-1.1-0.3h-1.6l-1,0.2l-0.9,0.4l-0.8,0.6l-0.7,0.8l-0.5,0.9l-0.1,0.4l-0.1,0.6l-0.2,1.1l-0.3,1.5l-0.4,1.8l-0.5,2.1l-0.6,2.4
		l-1.3,5.4l-1.2,5.7l-1.3,5.7l-1.2,5.4l-0.6,2.4l-0.4,2.1l-0.5,1.8l-0.3,1.5l-0.1,0.3h-0.1l-3.5-0.7l-0.7-0.1l0.1-0.6l0.3-1.6
		l0.5-1.9l0.4-2.2l0.6-2.5l0.6-2.7l2.6-11.2l1.3-5.5l0.6-2.5l0.4-2.2l0.5-2l0.4-1.7l0.3-1.3l0.2-0.9l0.2-1.2l-0.1-1.1l-0.4-1
		l-0.7-0.9l-0.9-0.7l-0.6-0.2l-0.2-0.1h-0.1l-0.5-0.1l-0.2-0.1l-1-0.2h-0.7l-0.9,0.2l-0.9,0.5l-0.7,0.7l-0.3,0.3l-0.3,0.6l-0.7,0.9
		l-0.9,1.2l-1,1.6l-1.3,1.8l-1.4,2l-3.2,4.5l-3.4,4.8l-3.4,4.8l-3.2,4.5l-1.4,2l-1.2,1.8l-1,1.6l-0.9,1.2l-0.3,0.4l-2.6-1.7l-1-0.8
		l0.5-0.6l0.9-1.4l1.1-1.6l1.4-1.8l1.5-2l1.6-2.3l6.8-9.6l3.3-4.6l1.5-2.1l1.4-1.9l1.3-1.7l1-1.5l0.8-1.1l0.6-0.8l0.7-1.1l0.3-1.1
		v-1.1l-0.3-1.1l-0.6-1l-0.3-0.5l-0.1-0.1l0,0l-0.1-0.1l-0.3-0.3l-0.2-0.2l-0.9-0.6l-0.9-0.3l-1-0.1l-1,0.1l-0.9,0.3l-0.5,0.2
		l-0.6,0.3l-0.9,0.6l-1.2,0.8l-1.7,1l-1.8,1.1l-2,1.4l-4.7,2.9l-4.9,3.2l-5,3.1l-4.7,2.9l-2,1.4l-1.8,1.1l-1.6,1l-1.2,0.8l-0.6,0.3
		l-1.5-2.1l-1-1.6l0.7-0.4l1.4-0.9l1.7-1l1.9-1.2l2.2-1.4l2.3-1.5l9.9-6.2l4.8-3l2.2-1.4l2-1.2l1.8-1.1l1.5-0.9l1.1-0.7l0.8-0.5
		l1-0.8l0.7-0.9l0.4-1l0.1-1.1l-0.1-1.1l-0.2-0.6l-0.1-0.2l0,0l-0.1-0.1l-0.2-0.4l-0.1-0.2l-0.6-0.9l-0.7-0.7l-0.9-0.5l-1.1-0.3h-1
		l-0.4,0.1l-0.7,0.1l-1,0.2l-1.5,0.2l-1.8,0.3l-2.2,0.3l-2.4,0.5l-5.3,1l-5.7,1l-5.8,1l-5.5,1l-2.4,0.4l-2.2,0.3l-1.8,0.3l-1.5,0.2
		l-0.7,0.1l-0.5-1.9l-0.4-2.5l0.8-0.1l1.6-0.2l1.9-0.3l2.3-0.3l2.5-0.4l2.7-0.4l11.5-1.9l5.6-0.9l2.5-0.5l2.3-0.3l2-0.3l1.7-0.2
		l1.4-0.2l0.9-0.1l1.2-0.2l1-0.6l0.8-0.8l0.6-1l0.3-1.1v-2.4l-0.2-1l-0.4-0.9l-0.6-0.8l-0.8-0.6l-0.9-0.5l-0.4-0.1l-0.6-0.1l-1-0.2
		l-1.5-0.3l-1.8-0.4l-2.2-0.5l-2.4-0.6l-5.2-1.1l-5.8-1.2l-5.8-1.2l-5.3-1.1l-2.4-0.6l-2.2-0.4l-1.8-0.5l-1.5-0.3l-0.7-0.1l0.2-1.4
		l0.7-3l0.8,0.2l1.6,0.3l1.9,0.5l2.3,0.6l2.5,0.6l2.6,0.6l11.5,2.6l5.5,1.1l2.5,0.6l2.3,0.6l2,0.4l1.7,0.3l1.4,0.3l0.9,0.2l1.2,0.2
		l1.1-0.1l1-0.4l0.9-0.7l0.7-0.9l0.2-0.6l0.1-0.2l0,0V239l0.1-0.5l0.1-0.2l0.2-1.1v-1l-0.2-1l-0.4-0.9l-0.7-0.8l-0.3-0.2l-0.5-0.3
		l-0.9-0.7l-1.2-0.9l-1.6-1.1l-1.7-1.1l-2-1.3l-4.4-3.2l-4.9-3.4l-4.8-3.4l-4.5-3.1l-1.9-1.5l-1.8-1.2l-1.5-1.1l-1.3-0.9l-0.4-0.3
		l0.3-0.6l2-2.9l0.1-0.1l0.6,0.5l1.4,0.9l1.6,1.1l1.8,1.4l2,1.5l2.2,1.6l9.5,6.7l4.5,3.3l2.2,1.5l1.9,1.3l1.7,1.2l1.4,1l1.1,0.8
		l0.7,0.6l1.1,0.7l1.1,0.3h1.1l1.1-0.2l1-0.6l0.4-0.5l0.1-0.1l0,0l0.1-0.1l0.3-0.3l0.1-0.2l0.6-0.9l0.3-0.9l0.1-1l-0.1-1l-0.2-0.9
		l-0.2-0.5l-0.3-0.6l-0.6-0.9l-0.8-1.2l-1-1.6l-1.1-1.8l-1.4-2l-3-4.6l-3.2-4.9l-3.2-4.9l-3-4.6l-1.4-2l-1.1-1.8l-1-1.6l-0.8-1.2
		l-0.2-0.3l0.1-0.1l3-1.9l0.6-0.3l0.2,0.4l0.9,1.4l1,1.7l1.2,1.9l1.4,2.1l1.5,2.2l6.2,9.9l2.9,4.7l1.4,2.3l1.2,2l1.1,1.8l0.9,1.5
		l0.7,1.1l0.4,0.8l0.7,1l0.9,0.8l1,0.5l1.1,0.1l1.1-0.1l0.6-0.2l0.1-0.1l0,0l0.1-0.1l0.4-0.2l0.2-0.1l0.9-0.6l0.7-0.7l0.5-0.9l0.2-1
		v-1l-0.1-0.4l-0.1-0.7l-0.2-1l-0.2-1.5l-0.3-1.8v-2.3l-0.5-2.4l-1-5.4l-0.9-6l-1-5.7l-1-5.4l-0.5-2.4l-0.3-2.1l-0.3-1.8l-0.2-1.5
		v-0.2l3.2-0.6l1.1-0.1v0.2l0.2,1.6l0.3,1.9l0.3,2.3l0.5,2.5l0.4,2.7l1.9,11.5l0.9,5.6l0.5,2.6l0.3,2.4l0.3,2l0.3,1.8l0.2,1.4
		l0.1,0.9l0.3,1.2l0.6,1l0.8,0.8l1,0.6l1.1,0.3h1.6l1-0.2l0.9-0.4l0.8-0.6l0.6-0.8l0.4-0.9l0.1-0.4l0.1-0.6l0.2-1.1l0.3-1.5l0.5-1.8
		l0.4-2.1l0.6-2.4l1.1-5.4l1.3-5.7l1.2-5.7l1.1-5.4l0.6-2.4l0.5-2.1l0.4-1.8l0.3-1.5l2.8,0.6l1.9,0.5v0.1l-0.3,1.6l-0.5,1.9
		l-0.5,2.2l-0.6,2.5l-0.6,2.7l-2.6,11.3l-1.2,5.5l-0.5,2.4l-0.6,2.3l-0.4,2l-0.5,1.7l-0.3,1.4l-0.2,0.9l-0.2,1.2l0.1,1.1l0.4,1
		l0.7,0.9l0.9,0.7l0.6,0.2l0.2,0.1h0.1l0.4,0.1l0.2,0.1l1,0.2h1l1-0.2l0.9-0.4l0.7-0.7l0.2-0.3l0.3-0.4l0.6-0.9l0.9-1.2l1.1-1.6
		l1.2-1.8l1.4-2l3.2-4.5l3.4-4.8l3.4-4.8l3.2-4.5l1.4-2l1.2-1.8l1.1-1.6l0.7-1l1.8,1.1l1.9,1.4l-0.9,1.2l-1.1,1.6l-1.4,1.8l-1.5,2
		l-1.6,2.2l-6.8,9.6l-3.3,4.6l-1.5,2.1l-1.4,1.9l-1.3,1.7l-1,1.5l-0.8,1.1l-0.6,0.8l-0.7,1.1l-0.3,1.1v1.1l0.3,1.1l0.6,1l0.5,0.4
		l0.1,0.1l0,0l0.1,0.1l0.3,0.3l0.2,0.2l0.9,0.6l0.9,0.3l1,0.1l1-0.1l0.9-0.3l0.5-0.2l0.6-0.3l0.9-0.6l1.3-0.8l1.6-1l1.8-1.1l2-1.3
		l4.7-2.9l5-3.1l5-3.1l4.7-2.9l2-1.3l1.8-1.1l1.6-1l1-0.7l1.1,1.6l1.4,2.1l-1.1,0.7l-1.7,1l-1.9,1.3l-2.3,1.4l-2.3,1.5l-9.9,6.2
		l-4.8,3l-2.2,1.4l-2,1.2l-1.7,1.1l-1.5,0.9l-1.1,0.7l-0.8,0.4l-1,0.8l-0.7,0.9l-0.5,1l-0.1,1.1l0.1,1.1l0.2,0.6l0.1,0.2l0.1,0.1
		l0.2,0.4l0.1,0.2l0.6,0.9l0.7,0.7l0.9,0.4l1,0.2h1l0.4-0.1l0.6-0.1l1-0.2l1.5-0.2l1.8-0.3l2.2-0.3l2.4-0.5l5.3-0.9l5.8-1l5.8-1
		l5.5-0.9l2.4-0.5l2.2-0.3l1.8-0.3l1.1-0.2l0.3,1.7l0.5,2.7l-1.3,0.2l-1.9,0.3l-2.3,0.3l-2.5,0.5l-2.7,0.4l-11.5,2l-5.6,0.9
		l-2.5,0.4l-2.3,0.3l-2,0.3l-1.7,0.2l-1.4,0.2l-0.9,0.1l-1.2,0.3l-1,0.6l-0.8,0.8l-0.6,1l-0.3,1.1v1.7l0.1,1l0.4,0.9l0.6,0.8
		l0.8,0.7l0.9,0.5l0.4,0.1l0.6,0.1l1,0.2l1.5,0.3l1.8,0.4l2.2,0.5l2.4,0.6l5.3,1.1l5.8,1.2l5.7,1.2l5.3,1.2l2.4,0.6l2.2,0.4l1.8,0.5
		l1.1,0.2l-0.2,1.6l-0.7,2.8l-1.4-0.3l-1.9-0.5l-2.3-0.6l-2.4-0.6l-2.6-0.6l-11.4-2.6l-5.5-1.2l-2.5-0.6l-2.3-0.6l-2-0.4l-1.7-0.5
		l-1.4-0.3l-0.9-0.2l-1.3-0.2l-1.1,0.1l-1.1,0.4l-0.9,0.7l-0.7,0.9l-0.2,0.6l-0.1,0.2l0,0v0.1l0,0.5l-0.1,0.2l-0.2,1v1l0.2,0.9
		l0.4,0.9l0.7,0.8l0.3,0.2l0.4,0.3l0.9,0.6l1.3,0.9l1.5,1l1.8,1.2l2,1.4l4.4,3.1l4.8,3.4l4.8,3.4l4.4,3.1l2,1.4l1.8,1.2l1.5,1.1
		l1,0.7L312.7,290.9z M48,217.1l1.1-5.8l1.4-5.8l1.4-5.7l1.6-5.7l1.8-5.7l1.9-5.6l2.2-5.6l2.3-5.5l2.5-5.4l2.6-5.4l2.7-5.4l3-5.2
		l3.1-5.2l3.2-5.2L82,135l3.5-5l3.7-4.7l3.7-4.6l3.9-4.5l4.1-4.5l4.2-4.3l4.3-4.2l4.4-4.1l4.5-3.9l4.7-3.8l4.8-3.6l4.8-3.5l5-3.4
		l5-3.2l5.2-3l5.2-2.9l5.3-2.7l5.5-2.6l5.4-2.5l5.5-2.2l5.7-2.1l5.7-1.9l5.6-1.7l5.8-1.6l5.8-1.5l5.9-1.2l5.9-1.1l5.9-1v0.1l-1,1.8
		L157.9,159L49,221.8l-1.8,1L48,217.1z M20.4,249.9L207.5,142v0.1l1.4-0.8l1.5-0.6l1.5-0.5l1.6-0.2l1.6-0.1l1.6,0.1l1.6,0.2l1.5,0.5
		l1.5,0.6l1.4,0.8l1.4,0.9l1.1,1v-0.1l19.1,17.1v0.1l1.1,1.2l1.1,1.1h0.1l-3.9,0.3l-3.9,0.3l-3.7,0.6l-3.7,0.8l-3.7,0.9l-3.7,1.1
		l-3.6,1.2l-3.6,1.5l-3.5,1.6l-3.5,1.7l-3.3,1.9l-3.2,2l-3.2,2.2l-3.1,2.2l-2.9,2.5L191,187l-2.7,2.7l-2.7,2.8l-2.5,2.9l-2.4,3.1
		l-2.3,3.1l-2.1,3.2l-1.9,3.4l-1.8,3.4l-1.6,3.5l-1.5,3.6l-1.4,3.6l-1.1,3.7l-1,3.7l-0.8,3.8l-0.6,3.8l-0.6,3.8v0.1l-1.9,1.1
		l-1.9,1.2l-1.8,1.4l-1.8,1.5l-1.7,1.6l-1.6,1.7l-17.1,19v0.1l-1.3,1.5l-1.1,1.6l-1,1.7l-0.9,1.8l-0.8,1.8l-0.6,1.8l-0.3,1.9
		l-0.3,1.9l-0.1,1.9v2l0.2,1.9l0.3,1.9l0.6,1.9l0.6,1.8l0.8,1.8l0.9,1.7l14.8,25.5L20.4,249.9z M217.4,453.3l-5.8-1l-5.7-1.1
		l-5.8-1.4l-5.7-1.4l-5.7-1.7l-5.6-1.8l-5.6-2l-5.4-2l-5.5-2.3l-5.3-2.4l-5.2-2.6l-5.2-2.7l-5.1-2.9l-5-3l-5-3.1l-4.8-3.4l-4.8-3.4
		l-4.7-3.6l-4.5-3.7l-4.4-3.8l-4.3-3.9l-4.2-4.2l-4.1-4.3l-4-4.3l-3.9-4.5l-3.7-4.6l-3.5-4.6l-3.4-4.8l-3.3-4.8l-3.1-4.9l-3.1-5.1
		l-2.9-5l-2.7-5.2l-2.5-5.3l-2.5-5.2l-2.3-5.4l-2.2-5.5l-1.9-5.6l-1.8-5.5l-1.6-5.7l-1.4-5.6l-1.4-5.7l-1.1-5.7l-0.9-5.7l-0.8-5.7
		l0,0l1.8,1l109.3,63.2L222,452.6l1,1.8L217.4,453.3z M249.7,480l-108-187l-0.7-1.5l-0.6-1.5l-0.5-1.5l-0.2-1.6l-0.1-1.6l0.1-1.6
		l0.2-1.6l0.5-1.5l0.6-1.5l0.7-1.3l0.9-1.4l1-1.1v-0.1l17.1-19h0.1l0.7-0.8l0.7-0.7l0.8-0.7l0.8-0.7v-0.1l0.2,3.8l0.5,3.8l0.6,3.8
		l0.8,3.8l1,3.8l1,3.6l1.2,3.6l1.5,3.6l1.6,3.6l1.8,3.5l1.8,3.4l2,3.3l2.2,3.2l2.4,3.1l2.4,3l2.6,2.9l2.7,2.7l2.8,2.7l2.9,2.5
		l3.1,2.4l3.2,2.2l3.3,2l3.4,1.9l3.4,1.8l3.5,1.7l3.5,1.5l3.7,1.2l3.7,1.1l3.7,1l3.9,0.8l3.7,0.6l3.9,0.6l1.1,1.9l1.3,1.8l1.4,1.7
		l1.4,1.7l1.6,1.6l1.6,1.6l19.1,17.1l0.1-0.1l1.5,1.2l1.6,1.2l1.7,1l1.8,0.9l1.8,0.8l1.8,0.6l1.9,0.3l1.9,0.3l1.9,0.1h2l1.9-0.2
		l1.9-0.3l1.9-0.6l1.8-0.6l1.8-0.8l1.8-0.9l-0.1,0.1l25.1-14.5L249.7,480z M450.5,284.1l-1,5.7l-1.1,5.7l-1.2,5.6l-1.5,5.6l-1.7,5.5
		l-1.8,5.5l-1.9,5.5l-2,5.4l-2.3,5.4l-2.4,5.2l-2.6,5.2l-2.7,5.1l-2.8,5.1l-2.9,4.9l-3.1,4.8l-3.3,4.8l-3.3,4.6l-3.5,4.7l-3.7,4.5
		l-3.7,4.4l-3.9,4.3l-4.1,4.2l-4.2,4l-4.2,3.9l-4.4,3.8l-4.5,3.7l-4.5,3.6l-4.6,3.4l-4.8,3.3l-4.9,3.3l-5,2.9l-5,2.9l-5.1,2.7
		l-5.2,2.5l-5.2,2.5l-5.3,2.2l-5.3,2.1l-5.5,1.9l-5.5,1.7l-5.6,1.7l-5.7,1.5l-5.7,1.3l-5.8,1.2l-5.7,1l-5.8,0.8l1.1-1.8l63.6-110.1
		l108.6-62.7l1.8-1L450.5,284.1z M293.5,358L293.5,358l-1.4,0.7l-1.5,0.6l-1.5,0.4l-1.6,0.2l-1.6,0.1l-1.6-0.1l-1.6-0.2l-1.5-0.4
		l-1.5-0.6l-1.4-0.8l-1.4-0.9l-1.1-1l-0.1,0.1L256.8,339l-1.1-1.1l-1.1-1.2l3.9-0.3l3.9-0.5l3.7-0.6l3.7-0.8l3.7-1l3.7-1.1l3.6-1.2
		l3.6-1.5l3.5-1.6l3.5-1.8l3.3-1.9l3.3-2.1l3.2-2.2l3.1-2.3l3-2.5l2.8-2.6l2.7-2.7l2.7-2.8l2.5-2.9l2.4-3.1l2.3-3.2l2-3.3l1.9-3.4
		l1.8-3.5l1.6-3.5l1.4-3.6l1.4-3.6l1.1-3.7l1-3.8l0.7-3.8l0.7-3.8l0.5-3.8l1.8-1.1l1.6-1.2l1.6-1.2l1.6-1.5l1.6-1.3l1.4-1.5l17.1-19
		l-0.1-0.1l1.3-1.5l1.1-1.6l1-1.7l0.8-1.8l0.7-1.8l0.6-1.8l0.3-1.9l0.3-1.9l0.1-1.9v-2l-0.2-1.9l-0.3-1.9l-0.6-1.9l-0.6-1.8
		l-0.8-1.8l-0.9-1.8l-15.4-27L480.7,250L293.5,358z"/>
</g>
<polygon class="st1" points="340.1,159.4 449,222.2 450.8,223.2 449.9,217.2 448.7,211.4 447.4,205.5 446,199.8 444.4,194.1 
	442.6,188.3 440.7,182.7 438.5,177.1 436.2,171.6 433.9,166.2 431.3,160.8 428.5,155.4 425.7,150.3 422.6,145.1 419.4,139.9 
	416.1,135 412.6,130 408.9,125.3 405.1,120.7 401.3,116.2 397.2,111.7 393,107.5 388.7,103.3 384.2,99.3 379.7,95.3 375,91.5 
	370.3,87.9 365.5,84.4 360.5,81.1 355.5,77.9 350.3,74.9 345.1,72 339.7,69.3 334.3,66.7 328.8,64.2 323.4,62 317.7,59.8 312,57.9 
	306.4,56.1 300.7,54.7 294.9,53.2 289,52 283.1,50.8 277.2,49.8 278,51.8 "/>
<polygon class="st1" points="281.7,249.5 281.7,249.1 281.7,248.6 282.1,247.4 282.6,246.4 283.4,245.6 284.4,245.1 285.7,244.7 
	286.6,244.6 288,244.4 289.7,244.2 291.7,243.8 294,243.5 296.5,243.1 302,242.2 313.5,240.1 316.2,239.7 318.7,239.2 321,238.9 
	322.9,238.6 324.2,238.3 323.7,235.6 323.4,234 322.3,234.2 320.4,234.5 318.3,234.9 315.9,235.3 310.4,236.2 304.6,237.2 
	298.9,238.2 293.5,239.1 291.1,239.6 289,239.9 287.2,240.2 285.7,240.5 284.7,240.7 284.1,240.8 283.7,240.9 282.6,240.9 
	281.6,240.7 280.7,240.2 280,239.6 279.5,238.7 279.3,238.4 279.1,238 279,237.9 278.9,237.7 278.7,237.1 278.5,236 278.7,234.9 
	279.1,233.8 279.8,232.9 280.8,232.2 281.6,231.7 282.7,231 284.2,230.1 285.9,229 288,227.8 290.1,226.4 294.9,223.4 304.8,217.2 
	307,215.8 309.3,214.4 311.2,213.2 312.9,212.2 314.1,211.5 312.7,209.4 311.6,207.8 310.6,208.5 309,209.5 307.2,210.6 
	305.1,211.9 300.4,214.9 295.5,218 290.5,221.1 285.8,224.1 283.8,225.4 281.9,226.5 280.4,227.5 279.1,228.3 278.2,228.9 
	277.6,229.2 277.2,229.5 276.3,229.8 275.3,229.9 274.2,229.8 273.3,229.5 272.4,228.9 272.2,228.7 271.8,228.3 271.7,228.2 
	271.6,228.1 271.2,227.7 270.6,226.7 270.4,225.5 270.4,224.4 270.7,223.3 271.4,222.2 272,221.4 272.8,220.2 273.8,218.8 
	275,217.1 276.4,215.2 277.9,213.1 281.2,208.5 288,198.9 289.6,196.7 291,194.6 292.4,192.8 293.5,191.3 294.4,190 292.6,188.7 
	290.8,187.6 290.1,188.6 289,190.1 287.7,191.9 286.4,194 283.2,198.5 279.8,203.3 276.4,208.1 273.2,212.6 271.8,214.6 
	270.6,216.4 269.5,218 268.5,219.2 268,220.1 267.6,220.6 267.4,220.9 266.7,221.6 265.8,222 264.8,222.3 263.8,222.3 262.8,222 
	262.5,221.9 262.1,221.8 262,221.8 261.7,221.7 261.2,221.5 260.3,220.8 259.6,219.9 259.1,218.9 259,217.8 259.2,216.5 
	259.5,215.6 259.8,214.3 260.3,212.6 260.7,210.6 261.3,208.3 261.8,205.9 263.1,200.4 265.7,189 266.3,186.3 266.8,183.9 
	267.4,181.6 267.9,179.7 268.2,178.1 268.2,178 266.3,177.6 263.4,177 263.1,178.5 262.6,180.3 262.2,182.4 261.6,184.7 
	260.5,190.1 259.2,195.9 258,201.6 256.9,207 256.3,209.4 255.8,211.5 255.4,213.3 255,214.7 254.8,215.9 254.7,216.4 254.6,216.9 
	254.1,217.8 253.6,218.6 252.8,219.1 251.9,219.6 250.8,219.8 250.6,219.8 250.2,219.8 250,219.8 249.8,219.8 249.3,219.8 
	248.1,219.5 247.1,218.9 246.3,218.1 245.7,217.1 245.4,215.9 245.3,215 245.1,213.6 244.7,211.8 244.4,209.8 244,207.4 
	243.6,204.9 242.7,199.2 240.7,187.8 240.3,185.1 239.8,182.6 239.5,180.4 239.1,178.5 238.9,176.9 238.9,176.7 237.8,176.8 
	234.6,177.3 234.6,177.6 234.8,179 235.2,180.8 235.5,183 236,185.3 237,190.7 238,196.4 239,202.3 240,207.7 240.5,210 
	240.5,212.3 240.8,214.1 241.1,215.5 241.3,216.5 241.4,217.2 241.5,217.7 241.5,218.7 241.3,219.7 240.8,220.6 240.2,221.3 
	239.3,221.8 239,221.9 238.6,222.2 238.5,222.3 238.3,222.4 237.8,222.6 236.6,222.7 235.5,222.6 234.5,222.2 233.6,221.4 
	232.9,220.4 232.4,219.6 231.8,218.4 230.9,217 229.7,215.2 228.5,213.2 227.1,210.9 224.2,206.2 217.9,196.3 216.4,194.1 
	215.1,191.9 213.8,190 212.8,188.3 211.9,187 211.7,186.5 211.1,186.9 208.1,188.8 208,188.9 208.3,189.2 209.1,190.5 210.1,192 
	211.2,193.8 212.6,195.9 215.5,200.5 218.7,205.4 221.9,210.4 224.8,215 226.2,217 227.3,218.8 228.4,220.4 229.2,221.6 
	229.7,222.5 230.1,223.1 230.3,223.5 230.5,224.4 230.6,225.4 230.5,226.4 230.2,227.3 229.6,228.2 229.5,228.4 229.2,228.8 
	229,228.9 228.9,229 228.5,229.5 227.4,230 226.3,230.2 225.2,230.2 224,229.9 222.9,229.2 222.2,228.7 221.1,227.9 219.7,226.9 
	218,225.6 216.1,224.3 213.9,222.8 209.4,219.6 199.9,212.8 197.7,211.3 195.7,209.8 193.8,208.5 192.3,207.3 190.9,206.4 
	190.3,206 190.2,206.1 188.2,209 187.8,209.6 188.3,209.9 189.5,210.8 191,211.9 192.8,213.2 194.8,214.6 199.3,217.8 204.1,221.1 
	208.9,224.5 213.4,227.7 215.4,229 217.1,230.1 218.7,231.3 220,232.2 220.9,232.8 221.3,233.2 221.7,233.4 222.3,234.2 
	222.8,235.1 223,236.1 223,237.1 222.8,238.1 222.7,238.3 222.6,238.8 222.6,238.9 222.5,239.1 222.2,239.7 221.5,240.6 
	220.6,241.3 219.6,241.7 218.5,241.8 217.2,241.6 216.3,241.4 215,241 213.3,240.7 211.2,240.2 208.9,239.7 206.4,239.1 201,238 
	189.5,235.4 186.9,234.9 184.4,234.3 182.2,233.7 180.2,233.3 178.6,232.9 177.8,232.7 177.1,235.8 176.9,237.1 177.6,237.2 
	179.1,237.6 180.9,238 183.1,238.4 185.4,239 190.8,240.1 196.6,241.4 202.4,242.6 207.6,243.7 210,244.3 212.1,244.7 213.9,245.2 
	215.4,245.5 216.4,245.7 217,245.9 217.5,246 218.4,246.4 219.2,247 219.7,247.8 220.2,248.7 220.4,249.7 220.4,250 220.4,250.5 
	220.4,251.5 220.4,252 220.1,253.2 219.5,254.2 218.7,255 217.7,255.5 216.4,255.7 215.5,255.9 214.2,256.1 212.5,256.3 
	210.4,256.6 208.1,257 205.6,257.4 200.1,258.3 188.5,260.2 185.8,260.7 183.3,261.1 181,261.5 179.1,261.8 177.5,262 176.7,262.2 
	177.1,264.6 177.6,266.5 178.3,266.4 179.8,266.2 181.6,265.9 183.7,265.5 186.1,265.1 191.6,264.1 197.4,263.1 203.1,262 
	208.5,261 210.9,260.6 213,260.2 214.8,259.9 216.3,259.7 217.3,259.5 218,259.3 218.5,259.2 219.5,259.2 220.5,259.5 221.4,259.9 
	222.1,260.6 222.7,261.5 222.8,261.7 223,262.2 223.1,262.3 223.2,262.5 223.5,263.1 223.6,264.2 223.5,265.3 223,266.3 
	222.3,267.2 221.3,268 220.5,268.4 219.4,269.1 217.9,270 216.1,271.1 214,272.4 211.9,273.7 207.1,276.8 197.2,282.9 195,284.4 
	192.8,285.7 190.9,287 189.2,288 187.8,288.9 187.1,289.3 188.2,290.9 189.6,293 190.2,292.7 191.5,291.9 193,290.9 194.9,289.8 
	196.9,288.4 201.6,285.5 206.6,282.4 211.4,279.2 216.1,276.3 218.1,275 220,273.8 221.5,272.8 222.8,272 223.7,271.5 224.3,271.1 
	224.7,270.9 225.6,270.6 226.7,270.5 227.7,270.6 228.6,270.9 229.5,271.5 229.7,271.7 230.1,272 230.2,272.1 230.3,272.3 
	230.6,272.7 231.2,273.7 231.5,274.8 231.5,276 231.2,277.1 230.5,278.2 229.9,279 229.2,280.1 228.1,281.6 226.9,283.3 
	225.5,285.2 224,287.3 220.8,291.9 213.9,301.5 212.4,303.7 210.9,305.7 209.5,307.5 208.4,309.1 207.5,310.5 207,311 208,311.8 
	210.6,313.5 211,313 211.9,311.8 212.9,310.2 214.2,308.4 215.5,306.4 218.7,301.9 222.1,297.1 225.5,292.3 228.7,287.8 
	230.1,285.7 231.3,283.9 232.3,282.4 233.2,281.1 233.9,280.2 234.3,279.7 234.6,279.3 235.3,278.7 236.2,278.2 237.1,278 
	237.7,278 238.7,278.2 238.9,278.3 239.4,278.4 239.5,278.4 239.7,278.6 240.3,278.8 241.2,279.5 241.9,280.4 242.3,281.4 
	242.4,282.5 242.2,283.7 242,284.6 241.6,286 241.2,287.7 240.7,289.7 240.3,291.9 239.7,294.4 238.5,299.9 235.8,311.1 
	235.3,313.8 234.7,316.3 234.3,318.6 233.8,320.5 233.5,322 233.4,322.6 234,322.7 237.6,323.4 237.7,323.4 237.8,323 238.1,321.6 
	238.6,319.8 239,317.7 239.6,315.3 240.8,309.9 242.1,304.2 243.3,298.4 244.6,293 245.2,290.7 245.6,288.6 246.1,286.8 
	246.4,285.3 246.6,284.2 246.8,283.6 246.9,283.2 247.3,282.3 248,281.5 248.8,280.9 249.7,280.5 250.7,280.2 251,280.2 
	251.4,280.2 251.5,280.2 251.7,280.2 252.3,280.2 253.4,280.6 254.5,281.1 255.3,281.9 255.9,282.9 256.3,284.2 256.4,285.1 
	256.6,286.4 256.9,288.1 257.2,290.1 257.6,292.5 258.1,295.1 259,300.7 260.9,312.3 261.4,314.8 261.8,317.3 262.2,319.6 
	262.5,321.5 262.8,323 262.8,323.4 263,323.4 266.5,322.7 267.1,322.6 267.1,322.4 266.8,320.9 266.5,319.1 266.2,317 265.7,314.6 
	264.8,309.2 263.8,303.4 262.8,297.6 261.8,292.3 261.4,289.9 261.1,287.8 260.7,286 260.5,284.5 260.3,283.4 260.1,282.8 
	260,282.4 260,281.4 260.3,280.4 260.7,279.5 261.4,278.7 262.3,278.1 262.5,278 263,277.8 263.1,277.8 263.3,277.7 263.9,277.4 
	265,277.3 266.2,277.4 267.2,277.9 268.1,278.7 268.9,279.7 269.5,280.2 270.1,281.4 271,282.8 272.2,284.6 273.4,286.6 
	274.8,288.9 277.7,293.7 284,303.6 285.5,306 286.8,308.1 288,310 289,311.7 289.9,313 289.9,313.2 292.7,311.2 293.5,310.7 
	292.7,309.4 291.7,307.9 290.6,306.1 289.2,304.1 286.3,299.4 283.1,294.5 279.9,289.6 277,285 275.6,282.8 274.5,281 273.4,279.5 
	272.6,278.2 272.1,277.3 271.7,276.8 271.5,276.3 271.2,275.3 271,274.3 271.2,273.3 271.5,272.4 272.1,271.5 272.3,271.2 
	272.6,270.9 272.8,270.8 272.9,270.7 273.3,270.4 274.3,269.8 275.5,269.6 276.6,269.6 277.7,269.9 278.9,270.6 279.7,271.1 
	280.8,271.9 282.2,272.9 283.9,274.2 285.8,275.5 287.9,277 292.5,280.2 302,287 304.2,288.6 306.2,290 308.1,291.4 309.7,292.5 
	310.9,293.4 312.7,290.8 313.5,289.5 312.5,288.8 311,287.7 309.2,286.4 307.2,285.1 302.7,281.9 298,278.6 293.2,275.2 288.8,272 
	286.7,270.7 284.9,269.5 283.4,268.4 282.2,267.5 281.3,267 280.8,266.6 280.5,266.4 279.8,265.6 279.3,264.7 279.1,263.8 
	279.1,262.8 279.3,261.8 279.5,261.6 279.6,261.1 279.6,261 279.7,260.8 279.9,260.2 280.6,259.3 281.5,258.7 282.6,258.2 
	283.8,258.1 285,258.3 285.9,258.6 287.3,258.9 289,259.3 291,259.8 293.3,260.4 295.8,260.9 301.2,262.2 312.6,264.7 315.2,265.3 
	317.6,265.9 319.9,266.4 321.8,266.9 323.2,267.2 323.8,264.4 324.1,262.8 322.9,262.6 321.1,262.2 319,261.7 316.6,261.1 
	311.2,259.9 305.6,258.7 299.8,257.4 294.4,256.3 292.1,255.7 289.9,255.3 288.1,254.8 286.6,254.5 285.6,254.3 285,254.2 
	284.6,254.1 283.7,253.6 282.9,252.9 282.3,252.2 281.8,251.3 281.7,250.2 281.7,249.9 "/>
<polygon class="st1" points="133.1,297.6 132.2,296 131.4,294.2 130.8,292.4 130.3,290.5 129.9,288.6 129.7,286.6 129.7,284.6 
	129.8,282.7 130.1,280.8 130.5,278.9 131.1,277.1 131.9,275.3 132.8,273.5 133.8,271.8 134.9,270.2 136.2,268.8 136.2,268.7 
	153.3,249.7 154.9,248 156.6,246.4 158.4,245 160.2,243.6 162.2,242.4 164.1,241.3 164.1,241.1 164.7,237.3 165.2,233.5 166,229.7 
	167,226 168.2,222.3 169.5,218.7 171,215.1 172.6,211.6 174.4,208.2 176.4,204.9 178.4,201.6 180.7,198.5 183.1,195.3 185.6,192.4 
	188.3,189.6 191,186.9 193.8,184.3 196.8,181.8 199.9,179.6 203,177.3 206.2,175.3 209.5,173.4 213,171.7 216.6,170.1 220.2,168.7 
	223.8,167.4 227.6,166.3 231.3,165.4 235.1,164.6 238.8,164.1 242.7,163.7 246.5,163.4 246.4,163.4 245.3,162.3 244.1,161 
	244.1,160.9 225.1,143.8 225.1,144 223.9,143 222.6,142.1 221.2,141.3 219.7,140.7 218.3,140.3 216.7,140 215.1,139.9 213.5,140 
	211.9,140.3 210.4,140.7 208.9,141.3 207.6,142.1 207.6,141.9 20.5,249.9 147.9,323.2 "/>
<polygon class="st1" points="157.5,341 48.2,277.9 46.4,276.9 47.2,282.6 48.1,288.3 49.2,294.1 50.6,299.8 51.9,305.4 53.5,311.1 
	55.3,316.6 57.3,322.3 59.4,327.8 61.7,333.2 64.2,338.4 66.7,343.7 69.4,348.9 72.2,353.9 75.3,359 78.4,363.9 81.7,368.8 
	85.1,373.6 88.6,378.2 92.3,382.8 96.2,387.3 100.2,391.6 104.3,395.8 108.5,400 112.8,403.9 117.2,407.7 121.7,411.5 126.4,415.1 
	131.2,418.4 135.9,421.8 140.9,424.9 145.9,428 151,430.9 156.3,433.6 161.5,436.2 166.8,438.6 172.3,440.9 177.7,442.9 
	183.3,444.9 188.8,446.7 194.5,448.4 200.2,449.9 206,451.2 211.7,452.4 217.5,453.4 223,454.4 222,452.6 "/>
<polygon class="st1" points="202.5,133.3 202.6,133.4 204.3,132.5 206.1,131.7 207.9,131.2 209.8,130.6 211.8,130.3 213.7,130 
	215.8,130 217.7,130.2 219.6,130.5 221.5,130.8 223.4,131.4 225.2,132.2 227,133.1 228.7,134.1 230.3,135.3 231.6,136.6 
	231.8,136.4 250.7,153.5 252.3,155.1 253.9,156.7 255.3,158.3 256.5,160.4 257.8,162.2 258.9,164 259,164 262.8,164.4 266.5,165.1 
	270.2,165.9 274,166.9 277.7,168 281.3,169.4 284.9,170.7 288.4,172.3 291.8,174.1 295.1,175.9 298.4,177.9 301.6,180.1 
	304.7,182.5 307.5,185 310.3,187.6 313.1,190.3 315.7,193.1 318.1,196 320.4,199 322.6,202.2 324.6,205.4 326.5,208.8 328.3,212.2 
	329.9,215.6 331.3,219.2 332.6,222.8 333.7,226.4 334.7,230.2 335.2,234 335.8,237.8 336.3,241.6 336.6,245.4 336.7,245.4 
	337.6,244.5 338.5,243.5 338.6,243.5 355.7,224.5 355.6,224.4 356.7,223.2 357.6,221.8 358.4,220.5 358.9,219 359.4,217.5 
	359.6,216 359.7,214.4 359.7,212.8 359.5,211.3 359,209.8 358.5,208.3 357.7,207 357.8,207 249.7,19.9 175.1,149.1 "/>
<polygon class="st1" points="157.9,159 220,51.6 221,49.8 221,49.7 215.1,50.7 209.2,51.8 203.3,53.1 197.5,54.5 191.7,56.1 
	186.1,57.8 180.4,59.7 174.8,61.8 169.3,64.1 163.9,66.6 158.4,69.1 153.1,71.8 147.9,74.8 142.6,77.8 137.6,80.9 132.6,84.3 
	127.9,87.8 123.1,91.4 118.4,95.2 113.9,99.1 109.5,103.2 105.2,107.3 101,111.6 96.9,116.1 93,120.6 89.3,125.2 85.5,129.9 
	82,134.9 78.7,139.8 75.5,145 72.5,150.1 69.5,155.3 66.8,160.7 64.2,166.1 61.7,171.5 59.4,177 57.3,182.6 55.3,188.2 53.5,194 
	51.9,199.7 50.6,205.4 49.2,211.3 48.1,217.1 47.2,222.8 49,221.8 "/>
<polygon class="st1" points="351,175.2 366.3,202.2 367.2,204 368,205.8 368.6,207.6 369.1,209.5 369.5,211.4 369.7,213.3 
	369.7,215.3 369.6,217.2 369.3,219.1 368.9,221 368.4,222.8 367.7,224.6 366.9,226.4 365.9,228.1 364.7,229.7 363.5,231.1 
	363.6,231.3 346.4,250.2 345.1,251.7 343.5,253 341.9,254.5 340.3,255.7 338.7,257 336.9,258.1 336.4,261.9 335.8,265.7 
	335.1,269.6 334.1,273.4 332.9,277.1 331.6,280.7 330.2,284.3 328.6,287.8 326.8,291.3 324.9,294.6 322.8,297.9 320.5,301 
	318.2,304.2 315.7,307.1 312.9,309.9 310.2,312.6 307.4,315.2 304.4,317.7 301.4,319.9 298.2,322.1 294.9,324.3 291.6,326.2 
	288.1,328 284.6,329.6 280.9,331 277.3,332.3 273.5,333.4 269.8,334.4 266,335.2 262.3,335.7 258.4,336.2 254.6,336.5 255.7,337.8 
	256.9,338.9 275.9,356.1 276,356 277.2,357 278.5,357.9 279.9,358.7 281.4,359.2 282.9,359.7 284.4,359.9 286,360 287.6,359.9 
	289.2,359.7 290.7,359.2 292.2,358.7 293.5,358 480.7,250 "/>
<polygon class="st1" points="341.1,341.8 277.5,451.9 276.4,453.7 282.2,452.9 287.9,451.9 293.5,450.8 299.2,449.4 304.9,448 
	310.4,446.3 315.9,444.5 321.3,442.6 326.7,440.4 332,438.2 337.2,435.7 342.5,433.2 347.6,430.6 352.6,427.6 357.6,424.7 
	362.4,421.5 367.2,418.2 371.9,414.8 376.4,411.2 381,407.5 385.4,403.7 389.6,399.8 393.8,395.7 397.9,391.6 401.7,387.3 
	405.5,382.9 409.2,378.4 412.7,373.7 416,369.1 419.3,364.3 422.4,359.4 425.3,354.5 428.2,349.4 430.9,344.4 433.5,339.2 
	435.9,334.1 438.2,328.7 440.2,323.3 442.1,317.8 444,312.3 445.7,306.8 447.1,301.1 448.4,295.5 449.5,289.8 450.5,284.1 
	451.6,278.1 449.8,279.1 "/>
<polygon class="st1" points="298.7,366.4 298.9,366.3 297,367.2 295.2,368 293.4,368.5 291.5,369.1 289.6,369.4 287.6,369.7 
	285.6,369.7 283.7,369.6 281.7,369.2 279.8,368.9 278,368.3 276.2,367.5 274.3,366.6 272.6,365.6 271,364.4 269.6,363.1 
	269.5,363.3 250.4,346.2 248.8,344.6 247.2,343 245.8,341.4 244.5,339.7 243.2,337.9 242.1,336 238.2,335.4 234.5,334.8 
	230.6,334.1 226.9,333 223.1,331.9 219.4,330.7 215.9,329.2 212.4,327.5 208.9,325.7 205.5,323.8 202.2,321.8 199.1,319.6 
	196,317.2 193,314.7 190.2,312 187.5,309.3 184.9,306.4 182.5,303.4 180.1,300.2 177.9,297.1 175.9,293.8 174.1,290.5 172.3,287 
	170.7,283.4 169.2,279.8 168,276.2 166.9,272.6 165.9,268.8 165.1,265 164.5,261.1 164.1,257.3 163.9,253.5 163.9,253.6 
	163.1,254.3 162.3,255 161.6,255.6 160.9,256.4 160.8,256.4 143.7,275.4 143.7,275.5 142.6,276.6 141.7,278 141,279.3 140.5,280.8 
	140,282.3 139.8,283.8 139.7,285.4 139.8,287 140,288.6 140.5,290 141,291.5 141.7,292.9 249.7,480 323.8,351.9 "/>
</svg>