<?xml version="1.0" encoding="utf-8"?>
<!-- Generator: Adobe Illustrator 25.2.3, SVG Export Plug-In . SVG Version: 6.00 Build 0)  -->
<svg version="1.1" id="Layer_1" xmlns="http://www.w3.org/2000/svg" xmlns:xlink="http://www.w3.org/1999/xlink" x="0px" y="0px"
	 viewBox="0 0 500 500" style="enable-background:new 0 0 500 500;" xml:space="preserve">
<style type="text/css">
	.st0{fill:#EAB308;}
	.st1{fill:#111827;}
</style>
<g id="dientes">
	<path class="st0" d="M459.9,226.6l-1.8-1.1l-0.9-6l-1-6l-1.1-6l-1.4-6l-1.6-5.8l-1.7-5.8l-1.9-5.7l-2-5.7l-2.3-5.7l-2.4-5.5
		l-2.5-5.5l-2.7-5.5l-2.8-5.4l-3-5.3l-3.2-5.2l-3.3-5.2l-3.4-4.9l-3.6-5l-3.7-4.7l-3.9-4.7l-4-4.5l-4.1-4.5l-4.3-4.3l-4.3-4.3
		l-4.6-4l-4.6-4l-4.7-3.8l-4.8-3.7l-5-3.6l-5-3.4l-5.1-3.3l-5.2-3.1l-5.2-2.9l-5.5-2.8l-5.5-2.6l-5.6-2.5l-5.7-2.2l-5.7-2.2l-5.7-2
		l-5.8-1.7l-5.8-1.7l-5.6-1.6l-5.9-1.3l-5.9-1.1l-6-1l-6-0.8L273,41L249.3,0l-23.7,40.9l-1,1.8l-6.2,0.8l-6.1,1l-6,1.2l-6,1.2
		l-5.9,1.6l-5.9,1.6l-5.9,1.9l-5.8,2l-5.7,2.1l-5.7,2.4l-5.6,2.5l-5.6,2.7l-5.5,2.8l-5.4,3.1l-5.2,3.1l-5.2,3.3l-5,3.5l-5,3.6
		l-5,3.7l-4.8,3.8l-4.7,4l-4.6,4.2l-4.3,4.3l-4.3,4.4l-4.2,4.5l-4,4.7l-4,4.7l-3.7,4.8l-3.6,4.9l-3.4,5.2l-3.3,5.2l-3.2,5.3
		l-3.1,5.4l-2.8,5.4l-2.7,5.5l-2.5,5.6l-2.4,5.6l-2.1,5.7l-2.1,5.7l-1.8,5.8l-1.6,5.8l-1.6,6l-1.4,5.9l-1.1,6l-0.9,6l-0.8,6.2h-0.1
		l-1.9,1l-37.7,21.7l37.3,21.6l1.8,1l0.7,6l0.8,6l1,6l1.1,5.8l1.4,5.8l1.5,5.8l1.7,5.7l1.8,5.7l2,5.6l2.2,5.6l2.4,5.5l2.5,5.5
		l2.7,5.4l2.8,5.3l2.8,5.2l3.2,5.2l3.3,5.1l3.3,5l3.5,4.9l3.6,4.7l3.7,4.6l4,4.6l4.1,4.5l4.2,4.3l4.3,4.3l4.4,4l4.6,3.9l4.7,3.8
		l4.8,3.6l4.8,3.6l5,3.4l5,3.3l5.1,3.1l5.2,2.9l5.3,2.8l5.3,2.7l5.5,2.5l5.5,2.4l5.7,2.2l5.7,2l5.7,1.9l5.8,1.7l5.8,1.6l5.9,1.3
		l5.9,1.1l5.9,1.1l5.9,0.8l5.9,0.8l1,1.8l21.3,36.8l21.5-37l1-1.8l5.9-0.8l5.9-0.9l5.9-1l5.9-1.2l5.8-1.4l5.7-1.6l5.7-1.7l5.7-1.8
		l5.6-2.1l5.6-2.1l5.5-2.4l5.3-2.5l5.3-2.7l5.2-2.7l5.2-2.9l5-3.2l5-3.3l4.9-3.4l4.8-3.6l4.8-3.6l4.5-3.8l4.4-3.9l4.4-4.1l4.3-4.2
		l4.2-4.3l4-4.4l3.9-4.5l3.8-4.5l3.6-4.7l3.5-4.8l3.4-4.9l3.2-4.9l3.1-5.1l3-5.2l2.8-5.3l2.7-5.3l2.5-5.4l2.3-5.5l2.1-5.5l2.1-5.6
		l1.8-5.6l1.7-5.7l1.5-5.7l1.4-5.7l1.1-5.7l1-5.8l0.9-6l0.7-5.8l1.8-1l40.4-23.3L459.9,226.6z M276.8,49.9l5.9,1l5.9,1.1l5.9,1.2
		l5.8,1.5l5.7,1.5l5.7,1.8l5.7,1.9l5.7,2.1l5.5,2.2l5.5,2.5l5.5,2.6l5.3,2.7L350,75l5.2,3l5,3.2l5,3.4L370,88l4.8,3.6l4.7,3.8
		l4.6,3.9l4.4,4.1l4.3,4.2l4.2,4.3l4.1,4.5l3.9,4.5l3.7,4.6l3.8,4.7l3.5,4.9l3.3,5l3.2,5.2l3.1,5.2l2.8,5.2l2.7,5.4l2.7,5.4l2.4,5.4
		l2.3,5.5l2.2,5.6l1.9,5.6l1.8,5.7l1.6,5.7l1.4,5.7l1.4,5.8l1.1,5.8l0.9,6l-1.8-1l-109.1-62.8L277.6,51.9L276.8,49.9z M249.3,20
		L357.5,207h-0.1l0.8,1.3l0.6,1.5l0.5,1.5l0.2,1.6v1.6l-0.1,1.6l-0.2,1.6l-0.5,1.5l-0.6,1.5l-0.8,1.4l-0.9,1.3l-1,1.2l0.1,0.1
		l-17.2,18.9h-0.1l-0.9,1l-0.9,0.9h-0.1l-0.2-3.8l-0.6-3.8l-0.6-3.8l-0.5-3.7l-1-3.8l-1.1-3.6l-1.3-3.6l-1.5-3.6l-1.6-3.5l-1.8-3.4
		l-1.8-3.4l-2.1-3.3l-2.2-3.2l-2.4-3l-2.4-2.9l-2.7-2.8l-2.7-2.7l-2.8-2.6l-2.8-2.5l-3.1-2.4l-3.2-2.2l-3.3-2l-3.3-1.8l-3.4-1.8
		l-3.5-1.6l-3.7-1.3l-3.5-1.3l-3.7-1.1l-3.8-1l-3.8-0.8l-3.7-0.7l-3.8-0.5h-0.1l-1.1-1.7l-1.2-1.8l-1.3-2l-1.4-1.7l-1.6-1.6
		l-1.6-1.6l-19-17.1l-0.1,0.1l-1.4-1.2l-1.6-1.2l-1.7-1l-1.8-0.9l-1.8-0.8l-1.8-0.6l-1.9-0.3l-1.9-0.3l-1.9-0.1h-2l-1.9,0.2
		l-1.9,0.3l-1.9,0.6l-1.8,0.6l-1.8,0.8l-1.7,0.9l-0.1-0.1l-27.4,15.8L249.3,20z M312.4,290.9l-1.8,2.6l-1.3-0.9l-1.6-1.1l-1.8-1.3
		l-2.1-1.5l-2.2-1.6l-9.6-6.7l-4.7-3.3l-2-1.4l-1.9-1.4l-1.7-1.2l-1.4-1l-1.1-0.8l-0.8-0.6l-1.1-0.7l-1.1-0.3h-1.1l-1.1,0.2
		l-1.1,0.5l-0.5,0.3l-0.1,0.1l0,0l-0.1,0.1l-0.3,0.3l-0.2,0.2l-0.6,0.9l-0.3,0.9l-0.1,1l0.1,1l0.3,1l0.2,0.4l0.3,0.6l0.6,0.9
		l0.8,1.2l1,1.6l1.1,1.8l1.4,2.1l3,4.7l3.2,4.9l3.2,5l3,4.6l1.4,2.1l1.1,1.8l1,1.6l0.8,1.2l-0.8,0.6l-2.8,1.9v-0.1l-0.9-1.4l-1-1.7
		l-1.1-1.9l-1.4-2.1l-1.5-2.4l-6.3-9.9l-3-4.8l-1.4-2.2l-1.2-2l-1.1-1.8l-0.9-1.5l-0.7-1.1l-0.6-0.6l-0.8-1l-0.9-0.8l-1-0.5
		l-1.1-0.1l-1.1,0.1l-0.6,0.2l-0.2,0.1h-0.1l-0.5,0.2l-0.2,0.1l-0.9,0.6l-0.7,0.8l-0.5,0.9l-0.2,1v1l0.1,0.4l0.1,0.6l0.2,1.1
		l0.2,1.5l0.3,1.8l0.3,2.1l0.5,2.4l0.9,5.4l1,5.7l1,5.8l0.9,5.4l0.5,2.4l0.3,2.1l0.3,1.8l0.2,1.5v0.2l-0.6,0.1l-3.5,0.7h-0.2v-0.3
		l-0.2-1.6l-0.3-1.9l-0.3-2.2l-0.5-2.5l-0.5-2.6l-1.9-11.6l-0.9-5.6l-0.5-2.6l-0.5-2.4l-0.3-2l-0.2-1.7l-0.2-1.4l-0.1-0.9l-0.3-1.2
		l-0.7-1l-0.8-0.8l-1-0.6l-1.1-0.3h-1.6l-1,0.2l-0.9,0.4l-0.8,0.6l-0.7,0.8l-0.5,0.9l-0.1,0.4l-0.1,0.6l-0.2,1.1l-0.3,1.5l-0.5,1.8
		l-0.5,2.1l-0.6,2.4l-1.3,5.4l-1.2,5.7l-1.3,5.7l-1.2,5.4l-0.6,2.4l-0.5,2.1l-0.5,1.8l-0.3,1.5l-0.1,0.3h-0.1l-3.5-0.7l-0.7-0.1
		l0.1-0.6l0.3-1.6l0.5-1.9l0.5-2.2l0.6-2.5l0.6-2.7l2.7-11.2l1.3-5.5l0.6-2.5l0.5-2.2l0.5-2l0.5-1.7l0.3-1.3l0.2-0.9l0.2-1.2
		l-0.1-1.1l-0.5-1l-0.7-0.9l-0.9-0.7l-0.6-0.2l-0.2-0.1h-0.1l-0.5-0.1l-0.2-0.1l-1-0.2h-0.7l-0.9,0.2l-0.9,0.5l-0.7,0.7l-0.3,0.3
		l-0.3,0.6l-0.7,0.9l-0.9,1.2l-1,1.6l-1.3,1.8l-1.4,2l-3.2,4.5l-3.4,4.8l-3.4,4.8l-3.2,4.5l-1.4,2l-1.2,1.8l-1,1.6l-0.9,1.2
		l-0.3,0.4l-2.7-1.7l-1-0.8l0.5-0.6l0.9-1.4l1.1-1.6l1.4-1.8l1.5-2l1.6-2.3l6.8-9.6l3.3-4.6l1.5-2.1l1.4-1.9l1.3-1.7l1-1.5l0.8-1.1
		l0.6-0.8l0.7-1.1l0.3-1.1v-1.1l-0.3-1.1l-0.6-1l-0.3-0.5l-0.1-0.1l0,0l-0.1-0.1l-0.3-0.3l-0.2-0.2l-0.9-0.6l-0.9-0.3l-1-0.1l-1,0.1
		l-0.9,0.3l-0.5,0.2l-0.6,0.3l-0.9,0.6l-1.2,0.8l-1.7,1l-1.8,1.1l-2.1,1.4l-4.7,2.9l-4.9,3.2l-5,3.1l-4.7,2.9l-2,1.4l-1.8,1.1
		l-1.6,1l-1.2,0.8l-0.6,0.3l-1.5-2.1l-1-1.6l0.7-0.4l1.4-0.9l1.7-1l1.9-1.2l2.2-1.4l2.3-1.5l9.9-6.2l4.8-3l2.2-1.4l2.1-1.2l1.8-1.1
		l1.5-0.9l1.1-0.7l0.8-0.5l1-0.8l0.7-0.9l0.5-1l0.1-1.1l-0.1-1.1l-0.2-0.6l-0.1-0.2l0,0l-0.1-0.1l-0.2-0.4l-0.1-0.2l-0.6-0.9
		l-0.7-0.7l-0.9-0.5l-1.1-0.3h-1l-0.5,0.1l-0.7,0.1l-1,0.2l-1.5,0.2l-1.8,0.3l-2.2,0.3l-2.4,0.5l-5.3,1l-5.7,1l-5.8,1l-5.5,1
		l-2.4,0.4l-2.2,0.3l-1.8,0.3l-1.5,0.2l-0.7,0.1l-0.5-1.9l-0.5-2.5l0.8-0.1l1.6-0.2l1.9-0.3l2.3-0.3l2.5-0.4l2.7-0.4l11.6-1.9
		l5.6-0.9l2.5-0.5l2.3-0.3l2.1-0.3l1.7-0.2l1.4-0.2l0.9-0.1l1.2-0.2l1-0.6l0.8-0.8l0.6-1l0.3-1.1v-2.4l-0.2-1l-0.5-0.9l-0.6-0.8
		l-0.8-0.6l-0.9-0.5l-0.5-0.1l-0.6-0.1l-1-0.2l-1.5-0.3l-1.8-0.4l-2.2-0.5l-2.4-0.6l-5.2-1.1l-5.8-1.2l-5.8-1.2l-5.3-1.1l-2.4-0.6
		l-2.2-0.4l-1.8-0.5l-1.5-0.3l-0.7-0.1l0.2-1.4l0.7-3l0.8,0.2l1.6,0.3l1.9,0.5l2.3,0.6l2.5,0.6l2.7,0.6l11.5,2.6l5.5,1.1l2.5,0.6
		l2.3,0.6l2,0.4l1.7,0.3l1.4,0.3l0.9,0.2l1.2,0.2l1.1-0.1l1-0.4l0.9-0.7l0.7-0.9l0.2-0.6l0.1-0.2l0,0V239l0.1-0.5l0.1-0.2l0.2-1.1
		v-1l-0.2-1l-0.5-0.9l-0.7-0.8l-0.3-0.2l-0.5-0.3l-0.9-0.7l-1.2-0.9l-1.6-1.1l-1.7-1.1l-2.1-1.3l-4.4-3.2l-4.9-3.4l-4.8-3.4
		l-4.5-3.1l-1.9-1.5l-1.8-1.2l-1.5-1.1l-1.3-0.9l-0.5-0.3l0.3-0.6l2.1-2.9l0.1-0.1l0.6,0.5l1.4,0.9l1.6,1.1l1.8,1.4l2,1.5l2.2,1.6
		l9.6,6.7l4.5,3.3l2.2,1.5l1.9,1.3l1.7,1.2l1.4,1l1.1,0.8l0.7,0.6l1.1,0.7l1.1,0.3h1.1l1.1-0.2l1-0.6l0.5-0.5l0.1-0.1l0,0l0.1-0.1
		l0.3-0.3l0.1-0.2l0.6-0.9l0.3-0.9l0.1-1l-0.1-1l-0.2-0.9l-0.2-0.5l-0.3-0.6l-0.6-0.9l-0.8-1.2l-1-1.6l-1.1-1.8l-1.4-2l-3-4.6
		l-3.2-4.9l-3.2-4.9l-3-4.6l-1.4-2l-1.1-1.8l-1-1.6l-0.8-1.2l-0.2-0.3l0.1-0.1l3-1.9l0.6-0.3l0.2,0.4l0.9,1.4l1,1.7l1.2,1.9l1.4,2.1
		l1.5,2.2l6.3,9.9l3,4.7l1.4,2.3l1.2,2l1.1,1.8l0.9,1.5l0.7,1.1l0.5,0.8l0.7,1l0.9,0.8l1,0.5l1.1,0.1l1.1-0.1l0.6-0.2l0.1-0.1l0,0
		l0.1-0.1l0.5-0.2l0.2-0.1l0.9-0.6l0.7-0.7l0.5-0.9l0.2-1v-1l-0.1-0.4l-0.1-0.7l-0.2-1l-0.2-1.5l-0.3-1.8v-2.3l-0.5-2.4l-1-5.4
		l-0.9-6l-1-5.7l-1-5.4L235,183l-0.3-2.1l-0.3-1.8l-0.2-1.5v-0.2l3.2-0.6l1.1-0.1v0.2l0.2,1.6l0.3,1.9l0.3,2.3l0.5,2.5l0.5,2.7
		l1.9,11.5l0.9,5.6l0.5,2.6l0.3,2.4l0.3,2l0.3,1.8l0.2,1.4l0.1,0.9l0.3,1.2l0.6,1l0.8,0.8l1,0.6l1.1,0.3h1.6l1-0.2l0.9-0.4l0.8-0.6
		l0.6-0.8l0.5-0.9l0.1-0.4l0.1-0.6l0.2-1.1l0.3-1.5l0.5-1.8l0.5-2.1l0.6-2.4l1.1-5.4l1.3-5.7l1.2-5.7l1.1-5.4l0.6-2.4l0.5-2.1
		l0.5-1.8l0.3-1.5l2.8,0.6l1.9,0.5v0.1l-0.3,1.6l-0.5,1.9l-0.5,2.2l-0.6,2.5l-0.6,2.7l-2.7,11.3l-1.2,5.5l-0.5,2.4l-0.6,2.3l-0.5,2
		l-0.5,1.7l-0.3,1.4l-0.2,0.9l-0.2,1.2l0.1,1.1l0.5,1l0.7,0.9l0.9,0.7l0.6,0.2l0.2,0.1h0.1l0.5,0.1l0.2,0.1l1,0.2h1l1-0.2l0.9-0.4
		l0.7-0.7l0.2-0.3l0.3-0.4l0.6-0.9l0.9-1.2l1.1-1.6l1.2-1.8l1.4-2l3.2-4.5l3.4-4.8l3.4-4.8l3.2-4.5l1.4-2l1.2-1.8l1.1-1.6l0.7-1
		l1.8,1.1l1.9,1.4l-0.9,1.2l-1.1,1.6l-1.4,1.8l-1.5,2l-1.6,2.2l-6.8,9.6l-3.3,4.6l-1.5,2.1l-1.4,1.9l-1.3,1.7l-1,1.5l-0.8,1.1
		l-0.6,0.8l-0.7,1.1l-0.3,1.1v1.1l0.3,1.1l0.6,1l0.5,0.4l0.1,0.1l0,0l0.1,0.1l0.3,0.3l0.2,0.2l0.9,0.6l0.9,0.3l1,0.1l1-0.1l0.9-0.3
		l0.5-0.2l0.6-0.3l0.9-0.6l1.3-0.8l1.6-1l1.8-1.1l2.1-1.3l4.7-2.9l5-3.1l5-3.1l4.7-2.9l2-1.3l1.8-1.1l1.6-1l1-0.7l1.1,1.6l1.4,2.1
		l-1.1,0.7l-1.7,1l-1.9,1.3l-2.3,1.4l-2.3,1.5l-9.9,6.2l-4.8,3l-2.2,1.4l-2.1,1.2l-1.7,1.1l-1.5,0.9l-1.1,0.7l-0.8,0.4l-1,0.8
		l-0.7,0.9l-0.5,1l-0.1,1.1l0.1,1.1l0.2,0.6l0.1,0.2l0.1,0.1l0.2,0.4l0.1,0.2l0.6,0.9l0.7,0.7l0.9,0.4l1,0.2h1l0.5-0.1l0.6-0.1
		l1-0.2l1.5-0.2l1.8-0.3l2.2-0.3l2.4-0.5l5.3-0.9l5.8-1l5.8-1l5.5-0.9l2.4-0.5l2.2-0.3l1.8-0.3l1.1-0.2l0.3,1.7l0.5,2.7l-1.3,0.2
		l-1.9,0.3l-2.3,0.3l-2.5,0.5l-2.7,0.4l-11.5,2l-5.6,0.9l-2.5,0.4l-2.3,0.3l-2,0.3l-1.7,0.2l-1.4,0.2l-0.9,0.1l-1.2,0.3l-1,0.6
		l-0.8,0.8l-0.6,1l-0.3,1.1v1.7l0.1,1l0.5,0.9l0.6,0.8l0.8,0.7l0.9,0.5l0.5,0.1l0.6,0.1l1,0.2l1.5,0.3l1.8,0.4l2.2,0.5l2.4,0.6
		l5.3,1.1l5.8,1.2l5.7,1.2l5.3,1.2l2.4,0.6l2.2,0.4l1.8,0.5l1.1,0.2l-0.2,1.6l-0.7,2.8l-1.4-0.3l-1.9-0.5l-2.3-0.6l-2.4-0.6
		l-2.7-0.6l-11.4-2.6l-5.5-1.2l-2.5-0.6l-2.3-0.6l-2.1-0.4l-1.7-0.5l-1.4-0.3l-0.9-0.2l-1.3-0.2l-1.1,0.1l-1.1,0.4l-0.9,0.7
		l-0.7,0.9l-0.2,0.6l-0.1,0.2l0,0v0.1l0,0.5l-0.1,0.2l-0.2,1v1l0.2,0.9l0.5,0.9l0.7,0.8l0.3,0.2l0.5,0.3l0.9,0.6l1.3,0.9l1.5,1
		l1.8,1.2l2.1,1.4l4.4,3.1l4.8,3.4l4.8,3.4l4.4,3.1l2.1,1.4l1.8,1.2l1.5,1.1l1,0.7L312.4,290.9z M47.3,217.1l1.1-5.8l1.4-5.8
		l1.4-5.7l1.6-5.7l1.8-5.7l1.9-5.6l2.2-5.6l2.3-5.5l2.5-5.4l2.7-5.4l2.7-5.4l3-5.2l3.1-5.2l3.2-5.2l3.3-4.9l3.5-5l3.8-4.7l3.8-4.6
		l3.9-4.5l4.1-4.5l4.2-4.3l4.3-4.2l4.4-4.1l4.6-3.9l4.7-3.8l4.8-3.6l4.8-3.5l5-3.4l5-3.2l5.2-3l5.2-2.9l5.3-2.7l5.5-2.6l5.5-2.5
		l5.5-2.2l5.7-2.1l5.7-1.9l5.6-1.7l5.8-1.6l5.8-1.5l5.9-1.2l5.9-1.1l5.9-1v0.1l-1,1.8L157.3,159L48.3,221.8l-1.8,1L47.3,217.1z
		 M19.7,249.9L207.1,142v0.1l1.4-0.8l1.5-0.6l1.5-0.5l1.6-0.2l1.6-0.1l1.6,0.1l1.6,0.2l1.5,0.5l1.5,0.6l1.4,0.8l1.4,0.9l1.1,1v-0.1
		l19.1,17.1v0.1l1.1,1.2l1.1,1.1h0.1l-3.9,0.3l-3.9,0.3l-3.8,0.6l-3.8,0.8l-3.7,0.9l-3.8,1.1l-3.6,1.2l-3.6,1.5l-3.5,1.6l-3.5,1.7
		l-3.3,1.9l-3.2,2l-3.2,2.2l-3.1,2.2l-2.9,2.5l-2.8,2.6l-2.7,2.7l-2.7,2.8l-2.5,2.9l-2.4,3.1l-2.3,3.1l-2.1,3.2l-1.9,3.4l-1.8,3.4
		l-1.6,3.5l-1.5,3.6l-1.4,3.6l-1.1,3.7l-1,3.7l-0.8,3.8l-0.6,3.8l-0.6,3.8v0.1l-1.9,1.1l-1.9,1.2l-1.8,1.4l-1.8,1.5l-1.7,1.6
		l-1.6,1.7l-17.2,19v0.1l-1.3,1.5l-1.1,1.6l-1,1.7l-0.9,1.8l-0.8,1.8l-0.6,1.8l-0.3,1.9l-0.3,1.9l-0.1,1.9v2l0.2,1.9l0.3,1.9
		l0.6,1.9l0.6,1.8l0.8,1.8l0.9,1.7l14.8,25.5L19.7,249.9z M217,453.3l-5.8-1l-5.7-1.1l-5.8-1.4l-5.7-1.4l-5.7-1.7l-5.6-1.8l-5.6-2
		l-5.5-2l-5.5-2.3l-5.4-2.4l-5.2-2.6l-5.2-2.7l-5.1-2.9l-5-3l-5-3.1l-4.8-3.4l-4.8-3.4l-4.7-3.6l-4.5-3.7l-4.4-3.8l-4.3-3.9
		l-4.2-4.2l-4.1-4.3l-4-4.3l-3.9-4.5l-3.7-4.6l-3.5-4.6l-3.4-4.8l-3.3-4.8l-3.1-4.9l-3.1-5.1l-2.9-5l-2.7-5.2l-2.5-5.3l-2.5-5.2
		l-2.3-5.4l-2.2-5.5l-1.9-5.6l-1.8-5.5l-1.6-5.7l-1.4-5.6l-1.4-5.7l-1.1-5.7l-0.9-5.7l-0.8-5.7l0,0l1.8,1l109.5,63.2l64.6,111.6
		l1,1.8L217,453.3z M249.3,480L141.1,293l-0.7-1.5l-0.6-1.5l-0.5-1.5l-0.2-1.6l-0.1-1.6l0.1-1.6l0.2-1.6l0.5-1.5l0.6-1.5l0.7-1.3
		l0.9-1.4l1-1.1v-0.1l17.2-19h0.1l0.7-0.8l0.7-0.7l0.8-0.7l0.8-0.7v-0.1l0.2,3.8l0.5,3.8l0.6,3.8l0.8,3.8l1,3.8l1,3.6l1.2,3.6
		l1.5,3.6l1.6,3.6l1.8,3.5l1.8,3.4l2,3.3l2.2,3.2l2.4,3.1l2.4,3l2.7,2.9l2.7,2.7l2.8,2.7l3,2.5l3.1,2.4l3.2,2.2l3.3,2l3.4,1.9
		l3.4,1.8l3.5,1.7l3.5,1.5l3.8,1.2l3.7,1.1l3.8,1l3.9,0.8l3.7,0.6l3.9,0.6l1.1,1.9l1.3,1.8l1.4,1.7l1.4,1.7l1.6,1.6l1.6,1.6
		l19.1,17.1l0.1-0.1l1.5,1.2l1.6,1.2l1.7,1l1.8,0.9l1.8,0.8l1.8,0.6l1.9,0.3l1.9,0.3l1.9,0.1h2.1l1.9-0.2l1.9-0.3l1.9-0.6l1.8-0.6
		l1.8-0.8l1.8-0.9l-0.1,0.1l25.1-14.5L249.3,480z M450.4,284.1l-1,5.7l-1.1,5.7l-1.2,5.6l-1.5,5.6l-1.7,5.5l-1.8,5.5l-1.9,5.5
		l-2.1,5.4l-2.3,5.4l-2.4,5.2l-2.7,5.2l-2.7,5.1l-2.8,5.1l-2.9,4.9l-3.1,4.8l-3.3,4.8l-3.3,4.6l-3.5,4.7l-3.7,4.5l-3.7,4.4l-3.9,4.3
		l-4.1,4.2l-4.2,4l-4.2,3.9l-4.4,3.8l-4.6,3.7l-4.6,3.6l-4.7,3.4l-4.8,3.3l-4.9,3.3l-5,2.9l-5,2.9l-5.1,2.7l-5.2,2.5l-5.2,2.5
		l-5.3,2.2l-5.3,2.1l-5.5,1.9l-5.5,1.7l-5.6,1.7l-5.7,1.5l-5.7,1.3l-5.8,1.2l-5.7,1l-5.8,0.8l1.1-1.8l63.7-110.1l108.8-62.7l1.8-1
		L450.4,284.1z M293.1,358L293.1,358l-1.4,0.7l-1.5,0.6l-1.5,0.4l-1.6,0.2l-1.6,0.1l-1.6-0.1l-1.6-0.2l-1.5-0.4l-1.5-0.6l-1.4-0.8
		l-1.4-0.9l-1.1-1l-0.1,0.1L256.4,339l-1.1-1.1l-1.1-1.2l3.9-0.3l3.9-0.5l3.8-0.6l3.8-0.8l3.7-1l3.8-1.1l3.6-1.2l3.6-1.5l3.5-1.6
		l3.5-1.8l3.3-1.9l3.3-2.1l3.2-2.2l3.1-2.3l3-2.5l2.8-2.6l2.7-2.7l2.7-2.8l2.5-2.9l2.4-3.1l2.3-3.2l2.1-3.3l1.9-3.4l1.8-3.5l1.6-3.5
		l1.4-3.6l1.4-3.6l1.1-3.7l1-3.8l0.7-3.8l0.7-3.8l0.5-3.8l1.8-1.1l1.6-1.2l1.6-1.2l1.6-1.5l1.6-1.3l1.4-1.5l17.2-19l-0.1-0.1
		l1.3-1.5l1.1-1.6l1-1.7l0.8-1.8l0.7-1.8l0.6-1.8l0.3-1.9l0.3-1.9l0.1-1.9v-2l-0.2-1.9l-0.3-1.9l-0.6-1.9l-0.6-1.8L367,204l-0.9-1.8
		l-15.4-27l130,74.8L293.1,358z"/>
</g>
<polygon class="st1" points="339.8,159.4 448.9,222.2 450.7,223.2 449.8,217.2 448.6,211.4 447.3,205.5 445.9,199.8 444.3,194.1 
	442.5,188.3 440.6,182.7 438.4,177.1 436.1,171.6 433.8,166.2 431.1,160.8 428.4,155.4 425.6,150.3 422.5,145.1 419.3,139.9 
	416,135 412.5,130 408.7,125.3 405,120.7 401.1,116.2 397,111.7 392.8,107.5 388.5,103.3 384.1,99.3 379.5,95.3 374.8,91.5 
	370.1,87.9 365.3,84.4 360.3,81.1 355.3,77.9 350.1,74.9 344.8,72 339.5,69.3 334,66.7 328.6,64.2 323.1,62 317.4,59.8 311.7,57.9 
	306,56.1 300.4,54.7 294.6,53.2 288.6,52 282.7,50.8 276.8,49.8 277.6,51.8 "/>
<polygon class="st1" points="281.4,249.5 281.4,249.1 281.4,248.6 281.7,247.4 282.3,246.4 283.1,245.6 284.1,245.1 285.3,244.7 
	286.3,244.6 287.6,244.4 289.3,244.2 291.4,243.8 293.6,243.5 296.1,243.1 301.7,242.2 313.2,240.1 315.9,239.7 318.4,239.2 
	320.7,238.9 322.6,238.6 323.9,238.3 323.4,235.6 323.1,234 322,234.2 320.1,234.5 318,234.9 315.6,235.3 310.1,236.2 304.3,237.2 
	298.5,238.2 293.2,239.1 290.8,239.6 288.6,239.9 286.8,240.2 285.3,240.5 284.3,240.7 283.8,240.8 283.3,240.9 282.3,240.9 
	281.2,240.7 280.3,240.2 279.7,239.6 279.1,238.7 279,238.4 278.7,238 278.6,237.9 278.5,237.7 278.3,237.1 278.2,236 278.3,234.9 
	278.7,233.8 279.4,232.9 280.5,232.2 281.2,231.7 282.4,231 283.9,230.1 285.6,229 287.6,227.8 289.8,226.4 294.6,223.4 
	304.4,217.2 306.7,215.8 309,214.4 310.9,213.2 312.6,212.2 313.8,211.5 312.4,209.4 311.3,207.8 310.3,208.5 308.7,209.5 
	306.8,210.6 304.8,211.9 300.1,214.9 295.1,218 290.1,221.1 285.5,224.1 283.4,225.4 281.6,226.5 280,227.5 278.7,228.3 
	277.8,228.9 277.3,229.2 276.8,229.5 275.9,229.8 274.9,229.9 273.9,229.8 273,229.5 272,228.9 271.8,228.7 271.5,228.3 
	271.4,228.2 271.2,228.1 270.8,227.7 270.2,226.7 270,225.5 270,224.4 270.3,223.3 271,222.2 271.6,221.4 272.4,220.2 273.4,218.8 
	274.7,217.1 276,215.2 277.5,213.1 280.8,208.5 287.6,198.9 289.2,196.7 290.7,194.6 292.1,192.8 293.2,191.3 294.1,190 
	292.3,188.7 290.5,187.6 289.8,188.6 288.6,190.1 287.4,191.9 286,194 282.8,198.5 279.4,203.3 276,208.1 272.8,212.6 271.5,214.6 
	270.2,216.4 269.1,218 268.2,219.2 267.6,220.1 267.3,220.6 267,220.9 266.3,221.6 265.4,222 264.4,222.3 263.4,222.3 262.4,222 
	262.1,221.9 261.7,221.8 261.6,221.8 261.3,221.7 260.8,221.5 259.9,220.8 259.2,219.9 258.7,218.9 258.6,217.8 258.8,216.5 
	259.1,215.6 259.4,214.3 259.9,212.6 260.3,210.6 260.9,208.3 261.5,205.9 262.7,200.4 265.3,189 265.9,186.3 266.5,183.9 
	267,181.6 267.5,179.7 267.8,178.1 267.8,178 265.9,177.6 263.1,177 262.7,178.5 262.3,180.3 261.8,182.4 261.2,184.7 260.1,190.1 
	258.8,195.9 257.6,201.6 256.5,207 255.9,209.4 255.4,211.5 255,213.3 254.6,214.7 254.4,215.9 254.3,216.4 254.2,216.9 
	253.7,217.8 253.2,218.6 252.4,219.1 251.5,219.6 250.4,219.8 250.2,219.8 249.8,219.8 249.6,219.8 249.4,219.8 248.8,219.8 
	247.7,219.5 246.7,218.9 245.9,218.1 245.3,217.1 245,215.9 244.9,215 244.6,213.6 244.3,211.8 243.9,209.8 243.6,207.4 
	243.2,204.9 242.2,199.2 240.3,187.8 239.9,185.1 239.4,182.6 239.1,180.4 238.7,178.5 238.5,176.9 238.5,176.7 237.4,176.8 
	234.2,177.3 234.2,177.6 234.4,179 234.7,180.8 235.1,183 235.5,185.3 236.6,190.7 237.6,196.4 238.6,202.3 239.6,207.7 240.1,210 
	240.1,212.3 240.4,214.1 240.7,215.5 240.9,216.5 241,217.2 241.1,217.7 241.1,218.7 240.9,219.7 240.4,220.6 239.7,221.3 
	238.8,221.8 238.6,221.9 238.1,222.2 238,222.3 237.9,222.4 237.4,222.6 236.2,222.7 235.1,222.6 234.1,222.2 233.1,221.4 
	232.5,220.4 232,219.6 231.3,218.4 230.4,217 229.3,215.2 228,213.2 226.7,210.9 223.7,206.2 217.5,196.3 216,194.1 214.6,191.9 
	213.4,190 212.3,188.3 211.4,187 211.2,186.5 210.6,186.9 207.7,188.8 207.6,188.9 207.8,189.2 208.6,190.5 209.6,192 210.7,193.8 
	212.1,195.9 215.1,200.5 218.2,205.4 221.4,210.4 224.4,215 225.8,217 226.9,218.8 227.9,220.4 228.7,221.6 229.3,222.5 
	229.6,223.1 229.9,223.5 230.1,224.4 230.2,225.4 230.1,226.4 229.7,227.3 229.2,228.2 229.1,228.4 228.7,228.8 228.6,228.9 
	228.5,229 228,229.5 227,230 225.9,230.2 224.7,230.2 223.6,229.9 222.5,229.2 221.8,228.7 220.6,227.9 219.3,226.9 217.6,225.6 
	215.6,224.3 213.5,222.8 208.9,219.6 199.4,212.8 197.2,211.3 195.2,209.8 193.3,208.5 191.8,207.3 190.4,206.4 189.8,206 
	189.7,206.1 187.7,209 187.3,209.6 187.8,209.9 189,210.8 190.5,211.9 192.3,213.2 194.3,214.6 198.8,217.8 203.6,221.1 
	208.5,224.5 212.9,227.7 215,229 216.7,230.1 218.2,231.3 219.5,232.2 220.4,232.8 220.9,233.2 221.2,233.4 221.9,234.2 
	222.3,235.1 222.6,236.1 222.6,237.1 222.3,238.1 222.2,238.3 222.1,238.8 222.1,238.9 222,239.1 221.8,239.7 221.1,240.6 
	220.2,241.3 219.2,241.7 218,241.8 216.8,241.6 215.9,241.4 214.5,241 212.8,240.7 210.7,240.2 208.5,239.7 206,239.1 200.5,238 
	189,235.4 186.4,234.9 183.9,234.3 181.6,233.7 179.7,233.3 178.1,232.9 177.3,232.7 176.6,235.8 176.4,237.1 177.1,237.2 
	178.6,237.6 180.4,238 182.5,238.4 184.9,239 190.3,240.1 196.1,241.4 201.9,242.6 207.1,243.7 209.5,244.3 211.7,244.7 
	213.5,245.2 215,245.5 216,245.7 216.5,245.9 217,246 217.9,246.4 218.7,247 219.3,247.8 219.7,248.7 220,249.7 220,250 220,250.5 
	220,251.5 220,252 219.6,253.2 219,254.2 218.2,255 217.2,255.5 216,255.7 215.1,255.9 213.7,256.1 212,256.3 209.9,256.6 
	207.7,257 205.2,257.4 199.6,258.3 188,260.2 185.3,260.7 182.8,261.1 180.5,261.5 178.6,261.8 177,262 176.2,262.2 176.6,264.6 
	177.1,266.5 177.8,266.4 179.2,266.2 181.1,265.9 183.2,265.5 185.6,265.1 191.1,264.1 196.9,263.1 202.7,262 208,261 210.4,260.6 
	212.6,260.2 214.4,259.9 215.9,259.7 216.9,259.5 217.6,259.3 218,259.2 219,259.2 220.1,259.5 221,259.9 221.7,260.6 222.2,261.5 
	222.3,261.7 222.6,262.2 222.7,262.3 222.8,262.5 223,263.1 223.1,264.2 223,265.3 222.6,266.3 221.9,267.2 220.9,268 220.1,268.4 
	218.9,269.1 217.5,270 215.6,271.1 213.6,272.4 211.4,273.7 206.7,276.8 196.8,282.9 194.5,284.4 192.3,285.7 190.4,287 188.7,288 
	187.3,288.9 186.6,289.3 187.7,290.9 189.1,293 189.7,292.7 191,291.9 192.5,290.9 194.4,289.8 196.4,288.4 201.1,285.5 
	206.1,282.4 211,279.2 215.6,276.3 217.7,275 219.5,273.8 221.1,272.8 222.3,272 223.2,271.5 223.8,271.1 224.3,270.9 225.2,270.6 
	226.2,270.5 227.2,270.6 228.1,270.9 229.1,271.5 229.3,271.7 229.6,272 229.7,272.1 229.9,272.3 230.2,272.7 230.8,273.7 
	231.1,274.8 231.1,276 230.8,277.1 230.1,278.2 229.5,279 228.7,280.1 227.7,281.6 226.4,283.3 225.1,285.2 223.6,287.3 
	220.3,291.9 213.5,301.5 211.9,303.7 210.4,305.7 209,307.5 207.9,309.1 207,310.5 206.5,311 207.6,311.8 210.2,313.5 210.5,313 
	211.4,311.8 212.5,310.2 213.7,308.4 215.1,306.4 218.2,301.9 221.7,297.1 225.1,292.3 228.3,287.8 229.6,285.7 230.9,283.9 
	231.9,282.4 232.8,281.1 233.5,280.2 233.8,279.7 234.2,279.3 234.9,278.7 235.8,278.2 236.7,278 237.2,278 238.3,278.2 
	238.5,278.3 238.9,278.4 239.1,278.4 239.3,278.6 239.9,278.8 240.8,279.5 241.4,280.4 241.9,281.4 242,282.5 241.8,283.7 
	241.6,284.6 241.2,286 240.8,287.7 240.3,289.7 239.9,291.9 239.3,294.4 238,299.9 235.4,311.1 234.9,313.8 234.3,316.3 
	233.8,318.6 233.4,320.5 233,322 232.9,322.6 233.6,322.7 237.1,323.4 237.2,323.4 237.4,323 237.7,321.6 238.1,319.8 238.6,317.7 
	239.2,315.3 240.4,309.9 241.7,304.2 242.9,298.4 244.2,293 244.8,290.7 245.2,288.6 245.7,286.8 246,285.3 246.2,284.2 
	246.3,283.6 246.5,283.2 246.9,282.3 247.6,281.5 248.4,280.9 249.3,280.5 250.3,280.2 250.5,280.2 251,280.2 251.1,280.2 
	251.3,280.2 251.9,280.2 253,280.6 254.1,281.1 254.9,281.9 255.6,282.9 255.9,284.2 256,285.1 256.2,286.4 256.5,288.1 
	256.8,290.1 257.3,292.5 257.7,295.1 258.6,300.7 260.6,312.3 261,314.8 261.5,317.3 261.8,319.6 262.1,321.5 262.4,323 
	262.4,323.4 262.6,323.4 266.1,322.7 266.7,322.6 266.7,322.4 266.5,320.9 266.1,319.1 265.8,317 265.3,314.6 264.4,309.2 
	263.4,303.4 262.4,297.6 261.5,292.3 261,289.9 260.7,287.8 260.3,286 260.1,284.5 259.9,283.4 259.8,282.8 259.6,282.4 
	259.6,281.4 259.9,280.4 260.3,279.5 261,278.7 261.9,278.1 262.1,278 262.6,277.8 262.7,277.8 262.9,277.7 263.5,277.4 
	264.6,277.3 265.8,277.4 266.8,277.9 267.7,278.7 268.5,279.7 269.1,280.2 269.8,281.4 270.7,282.8 271.8,284.6 273.1,286.6 
	274.4,288.9 277.4,293.7 283.6,303.6 285.1,306 286.5,308.1 287.6,310 288.6,311.7 289.6,313 289.6,313.2 292.4,311.2 293.2,310.7 
	292.4,309.4 291.4,307.9 290.2,306.1 288.9,304.1 285.9,299.4 282.7,294.5 279.5,289.6 276.6,285 275.2,282.8 274.1,281 
	273.1,279.5 272.3,278.2 271.7,277.3 271.4,276.8 271.1,276.3 270.8,275.3 270.7,274.3 270.8,273.3 271.1,272.4 271.7,271.5 
	271.9,271.2 272.3,270.9 272.4,270.8 272.5,270.7 273,270.4 274,269.8 275.1,269.6 276.2,269.6 277.4,269.9 278.5,270.6 
	279.3,271.1 280.5,271.9 281.8,272.9 283.5,274.2 285.5,275.5 287.5,277 292.2,280.2 301.7,287 303.9,288.6 305.9,290 307.7,291.4 
	309.3,292.5 310.6,293.4 312.4,290.8 313.2,289.5 312.2,288.8 310.7,287.7 308.9,286.4 306.8,285.1 302.4,281.9 297.6,278.6 
	292.9,275.2 288.4,272 286.4,270.7 284.5,269.5 283.1,268.4 281.8,267.5 280.9,267 280.5,266.6 280.1,266.4 279.4,265.6 279,264.7 
	278.7,263.8 278.7,262.8 279,261.8 279.1,261.6 279.2,261.1 279.2,261 279.3,260.8 279.5,260.2 280.2,259.3 281.1,258.7 
	282.3,258.2 283.4,258.1 284.7,258.3 285.6,258.6 286.9,258.9 288.6,259.3 290.7,259.8 293,260.4 295.5,260.9 300.9,262.2 
	312.3,264.7 314.9,265.3 317.3,265.9 319.6,266.4 321.5,266.9 322.9,267.2 323.6,264.4 323.8,262.8 322.6,262.6 320.8,262.2 
	318.7,261.7 316.3,261.1 310.9,259.9 305.2,258.7 299.4,257.4 294.1,256.3 291.7,255.7 289.6,255.3 287.7,254.8 286.3,254.5 
	285.2,254.3 284.7,254.2 284.2,254.1 283.3,253.6 282.5,252.9 281.9,252.2 281.5,251.3 281.4,250.2 281.4,249.9 "/>
<polygon class="st1" points="132.5,297.6 131.6,296 130.8,294.2 130.2,292.4 129.7,290.5 129.3,288.6 129.1,286.6 129.1,284.6 
	129.2,282.7 129.5,280.8 129.9,278.9 130.5,277.1 131.3,275.3 132.2,273.5 133.2,271.8 134.3,270.2 135.6,268.8 135.6,268.7 
	152.7,249.7 154.3,248 156,246.4 157.9,245 159.7,243.6 161.6,242.4 163.6,241.3 163.6,241.1 164.1,237.3 164.7,233.5 165.5,229.7 
	166.5,226 167.6,222.3 169,218.7 170.5,215.1 172.1,211.6 173.9,208.2 175.8,204.9 177.9,201.6 180.2,198.5 182.5,195.3 185,192.4 
	187.8,189.6 190.5,186.9 193.3,184.3 196.3,181.8 199.4,179.6 202.6,177.3 205.7,175.3 209,173.4 212.6,171.7 216.1,170.1 
	219.7,168.7 223.4,167.4 227.1,166.3 230.9,165.4 234.6,164.6 238.4,164.1 242.2,163.7 246.1,163.4 246,163.4 244.9,162.3 
	243.7,161 243.7,160.9 224.6,143.8 224.6,144 223.5,143 222.1,142.1 220.7,141.3 219.3,140.7 217.8,140.3 216.2,140 214.6,139.9 
	213,140 211.4,140.3 209.9,140.7 208.5,141.3 207.1,142.1 207.1,141.9 19.7,249.9 147.3,323.2 "/>
<polygon class="st1" points="157,341 47.4,277.9 45.6,276.9 46.4,282.6 47.3,288.3 48.5,294.1 49.8,299.8 51.2,305.4 52.8,311.1 
	54.6,316.6 56.5,322.3 58.7,327.8 61,333.2 63.5,338.4 66,343.7 68.7,348.9 71.5,353.9 74.6,359 77.7,363.9 81,368.8 84.4,373.6 
	87.9,378.2 91.7,382.8 95.5,387.3 99.5,391.6 103.6,395.8 107.8,400 112.1,403.9 116.6,407.7 121.1,411.5 125.8,415.1 130.6,418.4 
	135.3,421.8 140.3,424.9 145.4,428 150.5,430.9 155.7,433.6 160.9,436.2 166.3,438.6 171.7,440.9 177.2,442.9 182.8,444.9 
	188.3,446.7 194,448.4 199.7,449.9 205.5,451.2 211.2,452.4 217,453.4 222.6,454.4 221.5,452.6 "/>
<polygon class="st1" points="202,133.3 202.1,133.4 203.8,132.5 205.6,131.7 207.4,131.2 209.4,130.6 211.3,130.3 213.2,130 
	215.3,130 217.2,130.2 219.2,130.5 221.1,130.8 222.9,131.4 224.7,132.2 226.5,133.1 228.3,134.1 229.9,135.3 231.2,136.6 
	231.3,136.4 250.3,153.5 251.9,155.1 253.5,156.7 254.9,158.3 256.1,160.4 257.4,162.2 258.5,164 258.6,164 262.4,164.4 
	266.1,165.1 269.9,165.9 273.6,166.9 277.4,168 280.9,169.4 284.5,170.7 288.1,172.3 291.5,174.1 294.8,175.9 298.1,177.9 
	301.3,180.1 304.3,182.5 307.2,185 310,187.6 312.8,190.3 315.4,193.1 317.8,196 320.1,199 322.3,202.2 324.3,205.4 326.2,208.8 
	328,212.2 329.6,215.6 331.1,219.2 332.3,222.8 333.5,226.4 334.5,230.2 334.9,234 335.5,237.8 336.1,241.6 336.3,245.4 
	336.4,245.4 337.3,244.5 338.2,243.5 338.3,243.5 355.5,224.5 355.4,224.4 356.4,223.2 357.3,221.8 358.1,220.5 358.7,219 
	359.2,217.5 359.4,216 359.5,214.4 359.5,212.8 359.3,211.3 358.8,209.8 358.2,208.3 357.4,207 357.6,207 249.3,19.9 174.6,149.1 
	"/>
<polygon class="st1" points="157.3,159 219.5,51.6 220.5,49.8 220.5,49.7 214.6,50.7 208.7,51.8 202.8,53.1 197,54.5 191.2,56.1 
	185.6,57.8 179.9,59.7 174.2,61.8 168.8,64.1 163.3,66.6 157.9,69.1 152.5,71.8 147.3,74.8 142.1,77.8 137.1,80.9 132,84.3 
	127.3,87.8 122.5,91.4 117.8,95.2 113.3,99.1 108.9,103.2 104.5,107.3 100.3,111.6 96.2,116.1 92.4,120.6 88.6,125.2 84.9,129.9 
	81.3,134.9 78,139.8 74.8,145 71.8,150.1 68.8,155.3 66.1,160.7 63.5,166.1 61,171.5 58.7,177 56.5,182.6 54.6,188.2 52.8,194 
	51.2,199.7 49.8,205.4 48.5,211.3 47.3,217.1 46.4,222.8 48.2,221.8 "/>
<polygon class="st1" points="350.7,175.2 366.1,202.2 367,204 367.8,205.8 368.4,207.6 368.9,209.5 369.3,211.4 369.5,213.3 
	369.5,215.3 369.4,217.2 369,219.1 368.7,221 368.1,222.8 367.4,224.6 366.7,226.4 365.6,228.1 364.5,229.7 363.2,231.1 
	363.4,231.3 346.2,250.2 344.8,251.7 343.2,253 341.6,254.5 340,255.7 338.5,257 336.6,258.1 336.2,261.9 335.5,265.7 334.8,269.6 
	333.8,273.4 332.7,277.1 331.3,280.7 329.9,284.3 328.3,287.8 326.5,291.3 324.6,294.6 322.5,297.9 320.3,301 317.9,304.2 
	315.4,307.1 312.6,309.9 309.9,312.6 307.1,315.2 304.1,317.7 301,319.9 297.9,322.1 294.6,324.3 291.3,326.2 287.7,328 
	284.2,329.6 280.6,331 276.9,332.3 273.2,333.4 269.4,334.4 265.7,335.2 261.9,335.7 258.1,336.2 254.2,336.5 255.3,337.8 
	256.5,338.9 275.6,356.1 275.7,356 276.8,357 278.2,357.9 279.5,358.7 281,359.2 282.5,359.7 284.1,359.9 285.7,360 287.3,359.9 
	288.9,359.7 290.4,359.2 291.8,358.7 293.2,358 480.7,250 "/>
<polygon class="st1" points="340.8,341.8 277.2,451.9 276,453.7 281.8,452.9 287.5,451.9 293.2,450.8 298.9,449.4 304.6,448 
	310.1,446.3 315.6,444.5 321.1,442.6 326.4,440.4 331.7,438.2 337,435.7 342.2,433.2 347.3,430.6 352.3,427.6 357.3,424.7 
	362.2,421.5 367,418.2 371.7,414.8 376.2,411.2 380.8,407.5 385.2,403.7 389.4,399.8 393.6,395.7 397.7,391.6 401.6,387.3 
	405.3,382.9 409.1,378.4 412.6,373.7 415.9,369.1 419.2,364.3 422.3,359.4 425.2,354.5 428.1,349.4 430.8,344.4 433.4,339.2 
	435.8,334.1 438.1,328.7 440.1,323.3 442.1,317.8 443.9,312.3 445.6,306.8 447.1,301.1 448.3,295.5 449.4,289.8 450.5,284.1 
	451.5,278.1 449.7,279.1 "/>
<polygon class="st1" points="298.4,366.4 298.5,366.3 296.7,367.2 294.9,368 293.1,368.5 291.1,369.1 289.2,369.4 287.3,369.7 
	285.2,369.7 283.3,369.6 281.4,369.2 279.4,368.9 277.6,368.3 275.8,367.5 274,366.6 272.3,365.6 270.7,364.4 269.2,363.1 
	269.1,363.3 250,346.2 248.4,344.6 246.8,343 245.4,341.4 244.1,339.7 242.8,337.9 241.7,336 237.8,335.4 234.1,334.8 230.2,334.1 
	226.4,333 222.7,331.9 218.9,330.7 215.4,329.2 211.9,327.5 208.5,325.7 205.1,323.8 201.8,321.8 198.6,319.6 195.5,317.2 
	192.5,314.7 189.7,312 187,309.3 184.4,306.4 182,303.4 179.6,300.2 177.4,297.1 175.4,293.8 173.6,290.5 171.7,287 170.1,283.4 
	168.7,279.8 167.4,276.2 166.4,272.6 165.4,268.8 164.6,265 164,261.1 163.6,257.3 163.3,253.5 163.3,253.6 162.5,254.3 161.7,255 
	161,255.6 160.4,256.4 160.2,256.4 143.1,275.4 143.1,275.5 142.1,276.6 141.1,278 140.5,279.3 139.9,280.8 139.4,282.3 
	139.2,283.8 139.1,285.4 139.2,287 139.4,288.6 139.9,290 140.5,291.5 141.1,292.9 249.3,480 323.6,351.9 "/>
</svg>
