<svg xmlns="http://www.w3.org/2000/svg" viewBox="0 0 500 500"><defs><style>.cls-1{fill:#1f2937;}</style></defs><g id="dientes"><path class="cls-1" d="M452.13,228,450.47,227l-.82-5.64-1-5.57-1.1-5.64-1.24-5.57-1.45-5.5-1.59-5.43-1.72-5.43-1.87-5.36-2.07-5.37-2.2-5.22L433.09,167l-2.48-5.08L428,156.83l-2.76-4.94-3-4.87-3-4.81-3.18-4.66-3.31-4.67-3.45-4.46L405.71,124,402,119.72l-3.79-4.25-4-4-4-4-4.2-3.82-4.28-3.76-4.35-3.56-4.48-3.48-4.62-3.34-4.62-3.2-4.76-3.07L354,80.31l-4.9-2.79-5-2.64-5-2.44-5.17-2.37-5.25-2.16-5.24-2.08L318,64l-5.38-1.68-5.45-1.6-5.45-1.39L296.23,58l-5.52-1.12-5.58-.9-5.59-.77-1-1.74L256.5,14.93,234.56,53.36l-1,1.74-5.66.7-5.66.9-5.58,1.12L211.11,59l-5.52,1.46L200.07,62l-5.45,1.74-5.38,1.88-5.31,2-5.31,2.22-5.17,2.3-5.18,2.51-5,2.64-5,2.86-4.9,2.92-4.82,3.07-4.7,3.27-4.62,3.34-4.55,3.48-4.41,3.63-4.35,3.76-4.21,3.89-4.07,4-4,4.11-3.86,4.25L106,124.32l-3.65,4.45-3.45,4.53L95.5,138l-3.18,4.81-3.1,4.87-2.9,5-2.82,5-2.63,5.08-2.48,5.22-2.34,5.23-2.21,5.29-2,5.43-1.93,5.43-1.73,5.5-1.52,5.5-1.44,5.64L64,211.56l-1,5.64-1,5.64-.69,5.78h-.07l-1.65,1-35,20.4,34.69,20.26,1.66,1,.62,5.57.76,5.64,1,5.57,1.11,5.5,1.24,5.5,1.38,5.5L68.53,310l1.72,5.36,1.86,5.3,2,5.29,2.21,5.22,2.28,5.15,2.48,5.09,2.62,4.94,2.69,4.94,2.9,4.88,3,4.73,3.11,4.67,3.31,4.59,3.38,4.46,3.52,4.39,3.65,4.31,3.8,4.18,3.86,4,4,4,4.14,3.83L129.3,403l4.34,3.55,4.42,3.48,4.48,3.34,4.62,3.21,4.7,3.06,4.75,2.92,4.9,2.79,5,2.65,5,2.5,5.1,2.37,5.11,2.23,5.24,2.09,5.24,1.88,5.31,1.81,5.38,1.6,5.38,1.46,5.45,1.25,5.52,1.12,5.52,1,5.52.77,5.52.7,1,1.67,19.8,34.67,19.87-34.81,1-1.67,5.52-.7,5.45-.84,5.45-1L299.2,445l5.38-1.33,5.31-1.46,5.31-1.6,5.24-1.74,5.18-1.95,5.17-2,5.11-2.23,5-2.37,5-2.5,4.9-2.58,4.83-2.78,4.69-2.93,4.69-3.06,4.55-3.14,4.42-3.34,4.41-3.41L382.6,403l4.14-3.69,4.07-3.76,4-3.9,3.86-4,3.72-4.11,3.59-4.25,3.52-4.31,3.38-4.39,3.24-4.53,3.17-4.66,3-4.67,2.83-4.8,2.76-4.87,2.62-4.95,2.41-5,2.35-5.08,2.14-5.16,2-5.15,1.93-5.29,1.72-5.29,1.59-5.37,1.38-5.43,1.31-5.43,1.1-5.43,1-5.5.83-5.57.69-5.5,1.65-1L490,250ZM282,61.86l5.52.9L293,63.81,298.42,65l5.38,1.32,5.38,1.47,5.31,1.67,5.24,1.81,5.25,2,5.1,2.08,5.1,2.3,5,2.44,5,2.58L350,85.39l4.82,2.86,4.69,3,4.63,3.13,4.48,3.28,4.41,3.41,4.35,3.55,4.21,3.69,4.14,3.76,4,3.9,3.86,4,3.8,4.18,3.58,4.24,3.52,4.32L408,137.2l3.24,4.59,3.11,4.6,3,4.8,2.9,4.81,2.69,4.87,2.55,5,2.42,5.08,2.27,5.08,2.14,5.22,2,5.3,1.79,5.29,1.66,5.36,1.52,5.43,1.31,5.43,1.24,5.5,1,5.5.83,5.57-1.65-1L340.7,164.63,283,63.6l-1-1.67ZM256.5,33.73,357.07,209.61H357l.69,1.33.49,1.39.41,1.39.21,1.46.07,1.47-.07,1.46-.21,1.46-.41,1.39-.49,1.4-.69,1.32-.82,1.25-.9,1.12.07.07L339.41,244h-.06l-.83.91-.83.83h-.07l-.21-3.62-.48-3.62-.55-3.55-.76-3.48-.9-3.55-1-3.42-1.17-3.41-1.38-3.34-1.45-3.27L328,211.28l-1.72-3.2-1.93-3-2-3-2.21-2.85-2.28-2.79-2.41-2.64-2.55-2.58-2.63-2.44-2.69-2.36-2.82-2.16-3-2.09-3-2-3.1-1.74-3.17-1.67-3.24-1.53L286,174l-3.31-1.25-3.45-1.05-3.44-.9-3.52-.77-3.52-.62-3.52-.42h-.07l-1-1.74-1.18-1.74-1.24-1.6-1.31-1.61-1.45-1.46-1.44-1.46-17.66-16.08-.07.06-1.38-1.18L236.91,141l-1.59-.91-1.65-.83-1.73-.7-1.72-.56-1.8-.35-1.79-.27-1.79-.14H223l-1.79.21-1.79.27-1.8.49-1.72.56-1.66.76-1.58.84-.07-.07-25.46,14.9ZM315.1,288.4l-1.65,2.45L312.3,290l-1.5-1.08-1.71-1.23-1.92-1.38-2-1.47-8.86-6.39L292,275.39,290,274l-1.79-1.29-1.58-1.14-1.32-1-1-.74-.71-.5-1-.63-1-.32-1.07,0-1,.26-.95.55-.41.36-.14.14v0l-.08.08-.3.34-.17.2-.56.8-.31.87-.12.94.1.92.33.89.24.38.3.5.55.85.75,1.2.93,1.47,1.08,1.74,1.22,1.95,2.73,4.32,2.94,4.68,2.94,4.66,2.72,4.35,1.22,1.93,1.09,1.73,1,1.49.7,1.13-.77.57-2.65,1.77-.05-.08-.79-1.29-1-1.58-1.11-1.81-1.24-2-1.34-2.17-5.76-9.31-2.79-4.5-1.28-2.07-1.16-1.87-1-1.65-.87-1.4-.67-1.09-.45-.74-.69-1-.83-.69-1-.44-1-.16-1.07.14-.53.18L269,276v0l-.12,0-.39.2-.24.11-.81.52-.63.7-.45.8-.26.91,0,1,.06.44.1.56.17,1,.24,1.4.3,1.71.35,2,.4,2.27.87,5.06.94,5.44.95,5.46.89,5.06.39,2.27.36,2,.29,1.73.24,1.4,0,.16-.56.14-3.29.61-.2,0,0-.27-.26-1.49-.3-1.83-.35-2.12-.38-2.33-.43-2.51L265,297.7l-.87-5.24-.39-2.39-.37-2.19-.32-1.91-.26-1.64-.21-1.25-.14-.88-.28-1.15-.51-1-.73-.78-.91-.55-1-.28-.55,0-.2,0h-.11l-.46,0-.25,0-1,.18-.85.37-.73.58-.57.74-.4.88-.1.41-.13.58-.22,1-.3,1.37-.37,1.71-.44,2-.49,2.23-1.1,5-1.19,5.4-1.2,5.39-1.11,5-.49,2.25-.43,2-.38,1.73-.3,1.37-.07.34-.13,0-3.29-.61-.64-.16.11-.48.33-1.5.42-1.81.47-2.07.54-2.31.55-2.49,2.44-10.7,1.17-5.18.55-2.37.48-2.15.43-1.91.37-1.59.28-1.26.2-.86.2-1.17-.1-1.1-.4-1-.63-.86-.85-.68-.51-.24-.18-.08-.12,0-.41-.13-.26-.1-.93-.2-.92,0-.89.24-.83.45-.67.66-.28.36-.31.48-.59.83-.79,1.16-1,1.43-1.16,1.68-1.31,1.89-2.92,4.2L230.86,294l-3.13,4.53-2.92,4.22-1.31,1.87-1.16,1.69-1,1.44-.81,1.15-.3.44-2.45-1.63-1-.71.36-.51.87-1.25,1.06-1.52,1.25-1.73,1.34-1.93,1.46-2.07,6.31-9,3-4.32,1.4-2,1.27-1.81,1.12-1.6,1-1.33.73-1,.51-.71.63-1,.3-1.06,0-1.07-.28-1-.53-.95-.36-.42-.13-.12,0,0-.08-.08-.34-.3-.2-.18-.78-.54-.87-.34-.93-.11-.93.11-.87.34-.37.22-.49.32-.85.56-1.19.76-1.46.93-1.71,1.1-1.92,1.25-4.3,2.75-4.62,3-4.62,3L207.32,286l-1.91,1.23-1.72,1.1-1.46.93-1.18.78-.55.35-1.36-2-.91-1.48.63-.4,1.28-.81,1.56-1,1.77-1.13,2-1.26L207.6,281l9.21-5.84,4.46-2.83,2-1.27,1.85-1.2,1.64-1,1.38-.88,1.09-.68.73-.46,1-.69.67-.84.44-1,.16-1-.14-1.1-.18-.52-.08-.17v0l-.06-.1-.19-.4-.1-.24-.54-.82-.67-.64-.81-.45-.9-.26-.95,0-.42.08-.57.1-1,.18-1.39.24-1.71.29-2,.36-2.25.4-5,.9-5.38,1-5.39,1-5,.9-2.25.39-2,.36-1.71.32-1.38.24-.68.12-.4-1.77-.38-2.33.76-.12,1.5-.26,1.82-.32,2.07-.36,2.31-.38,2.49-.44,10.73-1.83,5.17-.87,2.37-.42,2.17-.36,1.91-.34,1.6-.26,1.27-.22.84-.16,1.15-.26,1-.51.77-.74.53-.94.29-1,0-.56v-.32l0-.44v-.28l-.17-.93-.4-.88-.57-.74-.73-.57-.85-.38-.43-.12-.56-.12-1-.22-1.36-.3-1.7-.38-2-.44-2.23-.49-5-1.12-5.34-1.19-5.35-1.2-5-1.1-2.23-.49-2-.44-1.71-.38-1.37-.3-.64-.14.2-1.23.64-2.86.73.17,1.48.34,1.8.39,2.05.48,2.29.54,2.44.56,10.62,2.45,5.11,1.17,2.35.54,2.13.5,1.9.44,1.57.36,1.25.29.85.2,1.16.18,1.09-.1,1-.39.85-.64.67-.86.24-.52.06-.18h0l0-.12.14-.41.07-.26.2-.94,0-.94-.25-.91-.46-.82-.65-.7-.35-.25-.46-.32-.83-.6-1.14-.8-1.44-1-1.66-1.18-1.87-1.31-4.17-2.95-4.5-3.17-4.48-3.15-4.18-2.94-1.86-1.32-1.67-1.17-1.42-1-1.15-.8-.45-.32.34-.55,1.87-2.78.1-.13.53.38,1.24.89,1.5,1.06,1.72,1.23L208,213.7l2.06,1.47,8.88,6.36,4.28,3.07,2,1.41,1.8,1.27,1.58,1.14,1.32,1,1,.73.69.5,1,.64,1,.32,1.06,0,1-.26,1-.54.41-.38.12-.14,0,0,.08-.08.29-.34.16-.2.55-.79.34-.88.1-.93-.12-.94-.34-.88-.21-.38-.32-.49-.53-.86-.75-1.2-.95-1.47-1.08-1.73-1.23-1.93-2.74-4.33-3-4.66-2.94-4.66-2.74-4.34-1.25-1.93-1.08-1.74-.95-1.47-.75-1.2-.21-.33.14-.11,2.75-1.82.57-.35.24.4.81,1.3,1,1.57,1.12,1.79,1.25,2,1.34,2.15,5.8,9.3,2.78,4.48,1.29,2.07,1.16,1.88,1,1.65.86,1.39.68,1.08.45.74.69,1,.85.7,1,.44,1.06.14,1.07-.12.53-.2.16-.08h0l.1-.06.39-.18.24-.12.81-.54.63-.68.45-.81.26-.92,0-.95-.06-.42-.1-.58-.18-1-.23-1.39-.32-1.73-.36-2-.39-2.25-.91-5.06-1-5.45-1-5.44-.91-5.06L243.4,187l-.36-2-.3-1.74-.25-1.39,0-.22,3-.56,1.06-.15,0,.23.26,1.52.31,1.83.36,2.11.39,2.31.42,2.51,1.83,10.84.89,5.23.42,2.39.35,2.2.34,1.91.27,1.63.22,1.26.14.87.28,1.16.51.95.73.78.91.56,1,.28.55,0H257l.12,0,.43,0,.26,0,.95-.18.85-.38.73-.58.57-.75.39-.86.1-.44.12-.56.22-1,.29-1.38.38-1.73.43-2,.5-2.25,1.08-5,1.17-5.4,1.18-5.42,1.08-5,.5-2.23.43-2,.38-1.71.29-1.37,2.63.48,1.79.45,0,.08-.33,1.47-.42,1.81-.49,2.1-.53,2.29-.55,2.49L269,203l-1.19,5.16-.55,2.37-.49,2.15-.44,1.92-.37,1.59-.28,1.25-.19.86-.2,1.18.1,1.09.37,1,.63.87.85.66.52.26.17.06.12,0,.42.16.25.08.93.22.93,0,.91-.24.8-.46.69-.66.26-.36.34-.45.57-.84.81-1.16,1-1.43,1.17-1.69,1.3-1.87,2.94-4.21,3.16-4.52,3.16-4.52,2.92-4.2,1.32-1.88,1.16-1.67,1-1.45.68-1,1.66,1.1,1.72,1.28-.78,1.14-1.07,1.51L295.1,198,293.73,200,292.27,202,285.94,211l-3.06,4.3-1.4,2-1.26,1.82-1.15,1.59-.94,1.34-.73,1-.52.72-.63,1-.31,1,0,1.08.25,1,.54,1,.37.42.14.12v0l.1.08.31.29.2.18.79.54.87.34.92.12.93-.12.89-.34.38-.22.47-.3.85-.55,1.18-.76,1.48-.94,1.72-1.09,1.91-1.24,4.3-2.75,4.62-3,4.64-2.94,4.3-2.75,1.91-1.24,1.72-1.09,1.46-.94.92-.58,1,1.5,1.23,2-1.07.68-1.56,1-1.79,1.14-2,1.25L307.78,219l-9.23,5.81-4.46,2.81-2,1.28-1.88,1.17-1.64,1-1.38.87-1.08.68-.73.46-1,.7-.69.83-.43,1-.16,1.06.14,1.07.17.54.08.18.06.12.2.4.1.24.53.81.67.64.81.48.89.24.95,0,.43-.06.57-.1,1-.18,1.38-.24,1.72-.3,2-.36,2.25-.4,5-.87,5.39-1,5.41-.94,5-.87,2.23-.4,2-.36,1.72-.3,1-.17.35,1.57.41,2.52-1.21.21-1.81.29-2.1.36-2.31.38-2.48.42-10.74,1.81-5.17.86-2.36.42-2.18.36-1.91.31-1.6.26-1.26.22-.85.14-1.14.28-1,.5-.77.76-.55.91-.28,1.06,0,.56v.19l0,.12,0,.44,0,.28.16,1,.39.85.58.74.73.58.84.4.44.1.55.14,1,.21,1.36.3,1.7.4,2,.44,2.21.5,5,1.11,5.35,1.22,5.33,1.21,5,1.12,2.23.5,2,.46,1.7.37,1,.23-.23,1.43-.59,2.65-1.26-.28-1.77-.42-2.07-.48-2.27-.54-2.47-.57-10.6-2.47-5.11-1.2-2.34-.56-2.14-.5-1.89-.43-1.58-.38-1.24-.28-.85-.2-1.17-.2-1.06.1-1,.4-.85.64-.67.85-.23.5-.08.18v0l0,.12-.14.42-.1.24-.2.95,0,.94.24.9.45.83.66.7.35.26.45.34.83.57,1.15.82,1.42,1,1.68,1.19,1.85,1.32,4.16,2.95,4.48,3.18,4.48,3.19,4.17,2.95,1.87,1.31,1.66,1.18,1.42,1,.94.68ZM68.87,219.08l1-5.5,1.24-5.5,1.31-5.43L74,197.22l1.65-5.36,1.79-5.29,2-5.3,2.13-5.22L83.84,171l2.41-5.08,2.56-5L91.5,156l2.89-4.81,3-4.8,3.1-4.6,3.25-4.59,3.45-4.46,3.51-4.32,3.59-4.24,3.79-4.18,3.87-4,4-3.9,4.14-3.76,4.21-3.69,4.34-3.55L143,97.65l4.48-3.28,4.62-3.13,4.69-3,4.83-2.86,4.83-2.71,5-2.58,5-2.44,5.11-2.3,5.1-2.08,5.24-2,5.25-1.81,5.31-1.67,5.38-1.47L213.25,65l5.45-1.18,5.45-1.05,5.52-.9v.07l-1,1.67L171,164.63,69.7,223.68l-1.66,1ZM43.14,250,217.25,148.48v.07l1.31-.7,1.38-.49,1.38-.41,1.45-.21,1.45-.07,1.44.07,1.45.21,1.38.41,1.38.49,1.31.7,1.25.83,1.1.91v-.07l17.73,16.08v.07l1.1,1.12,1.1,1.11h.07l-3.58.28-3.59.35-3.52.55-3.52.77-3.45.84-3.44,1-3.38,1.18-3.39,1.4-3.24,1.46-3.24,1.6-3.1,1.81-3,1.88-3,2.09-2.9,2.16-2.76,2.3-2.62,2.43-2.55,2.58L196.76,196l-2.27,2.71-2.21,2.93-2.07,2.92-1.93,3.06-1.8,3.14-1.65,3.2-1.52,3.27-1.38,3.35L180.69,224l-1,3.48-1,3.48-.76,3.55-.55,3.55-.48,3.62v.07L175,242.83,173.24,244l-1.73,1.32-1.65,1.4-1.59,1.46-1.51,1.6-15.94,17.9v.07l-1.17,1.39-1.11,1.46-.89,1.6-.83,1.67-.69,1.74-.55,1.74-.35,1.81L145,281l-.14,1.81v1.88l.21,1.81.27,1.81.48,1.81.56,1.74.76,1.67.82,1.6,13.73,24ZM226.49,441.28l-5.38-1-5.31-1L210.42,438l-5.24-1.39-5.24-1.6-5.18-1.67-5.17-1.88-5-1.95-5-2.16-5-2.3-4.9-2.44L164.82,420l-4.76-2.72-4.62-2.85-4.62-3-4.48-3.13-4.42-3.2-4.34-3.41-4.21-3.49-4.07-3.62-4.07-3.69-3.86-3.9-3.8-4-3.65-4-3.59-4.18-3.45-4.32-3.31-4.32-3.17-4.52-3.11-4.53-2.9-4.66-2.82-4.74L88.94,343l-2.55-4.88-2.34-4.94-2.28-5L79.7,323l-2-5.15-1.79-5.22-1.66-5.23-1.52-5.36-1.31-5.29-1.24-5.36-1-5.43-.9-5.43-.75-5.43h0v0l1.72,1L171,335.44,230.91,440.3l1,1.74Zm30,25.06L156,290.46l-.69-1.33-.48-1.39-.41-1.39-.21-1.47-.07-1.46.07-1.46.21-1.46.41-1.39.48-1.4.69-1.32.83-1.25.9-1.12V274l15.93-17.89h.07l.62-.7.69-.7.76-.69.76-.63v-.07l.21,3.62.41,3.62.55,3.62.69,3.63.9,3.55,1,3.48,1.17,3.41,1.38,3.41,1.45,3.34,1.65,3.28,1.73,3.2,1.93,3.06,2,3,2.21,2.92,2.27,2.86,2.42,2.71,2.55,2.58,2.69,2.51,2.76,2.29,2.83,2.23,3,2.16,3,1.95,3.17,1.81,3.17,1.67,3.32,1.53,3.31,1.4,3.45,1.18,3.44,1.11,3.45.91,3.59.76,3.52.56,3.59.49,1,1.81,1.17,1.67,1.24,1.6,1.32,1.6,1.44,1.47,1.45,1.46,17.73,16.08.07-.07,1.38,1.19,1.45,1.11,1.58.91,1.66.83,1.72.7,1.73.56,1.79.34,1.8.28,1.79.14h1.86l1.8-.21,1.79-.28,1.79-.48,1.73-.56,1.65-.77,1.66-.83-.07.07,23.31-13.65ZM443.37,282.1l-.9,5.36-1.1,5.36-1.17,5.29-1.38,5.3-1.59,5.22-1.66,5.15-1.79,5.15L431.85,324l-2.14,5L427.5,334l-2.41,4.88-2.48,4.8-2.69,4.81-2.76,4.66-2.9,4.53-3.11,4.52-3.1,4.39-3.31,4.32-3.45,4.25-3.52,4.1-3.58,4-3.8,3.9L386.53,391l-3.93,3.69-4.07,3.55-4.21,3.49L370,405.07l-4.34,3.2-4.42,3.06-4.55,3-4.62,2.78-4.69,2.72-4.76,2.58-4.83,2.36-4.9,2.3-5,2.16-5,2-5.11,1.81-5.1,1.74-5.18,1.53-5.24,1.39L297.13,439l-5.24,1.11-5.31,1-5.39.76,1-1.67,59.12-103.47,101.12-59,1.73-1Zm-146.1,69.49v-.07l-1.31.7-1.38.48-1.38.42-1.45.21-1.45.07-1.45-.07-1.45-.21L286,352.7l-1.38-.48-1.31-.7-1.24-.83-1.1-.91-.07.07L263.19,333.7l-1.1-1.12L261,331.4l3.59-.28,3.59-.42,3.52-.56,3.51-.76,3.52-.91,3.45-1,3.38-1.18,3.38-1.4,3.24-1.46,3.24-1.67,3.11-1.81,3-2,3-2.09,2.9-2.16,2.76-2.37,2.62-2.43,2.55-2.58,2.48-2.65,2.28-2.78,2.21-2.93,2.07-3,1.86-3.06,1.79-3.14,1.66-3.27,1.52-3.27,1.31-3.41,1.24-3.42,1-3.48.9-3.55.69-3.55.62-3.62.41-3.55,1.66-1.05,1.52-1.11,1.51-1.18,1.45-1.33,1.45-1.32,1.31-1.39,15.94-17.9-.07-.07,1.17-1.39,1.1-1.46.9-1.6.83-1.67.69-1.75.55-1.74.35-1.81.27-1.81.14-1.81v-1.88l-.21-1.81-.27-1.81-.49-1.81-.55-1.74-.76-1.67-.82-1.67-14.42-25.21L471.38,250Z"/></g></svg>