<svg id="Layer_1" data-name="Layer 1" xmlns="http://www.w3.org/2000/svg" viewBox="0 0 775.15 689.36"><defs><style>.cls-1{fill:#111827;}.cls-2{fill:#eab308;}</style></defs><g id="dientes"><path class="cls-1" d="M638.59,317.85l-2.06-1.29-1-6.82-1.16-6.82-1.28-6.82-1.55-6.82-1.8-6.69L627.78,276l-2.19-6.56-2.31-6.57-2.58-6.56L618,250l-2.83-6.3-3-6.31L609,231.25l-3.34-6.05L602,219.28l-3.73-5.92-3.86-5.66L590.33,202l-4.24-5.41-4.38-5.4-4.5-5.15-4.63-5.15L567.69,176l-4.89-4.89-5.15-4.63-5.15-4.63-5.27-4.38-5.41-4.25-5.66-4.11-5.66-3.86-5.79-3.74-5.92-3.6-5.92-3.34-6.18-3.22-6.18-3-6.3-2.83L487.77,123l-6.43-2.57-6.43-2.32-6.57-2-6.56-1.93-6.31-1.81-6.69-1.54-6.69-1.29-6.82-1.16-6.82-.9-1.29-2.18-26.89-47L373.5,105.14l-1.15,2.06-7,.9-6.95,1.16-6.82,1.41-6.82,1.42-6.69,1.8-6.7,1.8-6.69,2.19-6.56,2.31-6.43,2.45-6.44,2.7-6.3,2.83-6.31,3.09-6.18,3.22L280.34,138l-5.92,3.6-5.92,3.74-5.66,4-5.67,4.11-5.66,4.25-5.4,4.38-5.28,4.63-5.15,4.76-4.89,4.89-4.89,5-4.76,5.15-4.5,5.4-4.51,5.4-4.24,5.54-4.12,5.66-3.86,5.92-3.73,5.92-3.6,6.05-3.48,6.17-3.22,6.18-3,6.31-2.83,6.43-2.7,6.43L175,264.45,172.63,271l-2.06,6.69-1.8,6.69-1.8,6.82L165.42,298l-1.28,6.82-1,6.82-.9,7.08h-.13L160,319.91,117.3,344.75l42.2,24.7,2.06,1.16.77,6.82.91,6.82,1.15,6.82,1.29,6.69,1.54,6.69,1.68,6.7,1.93,6.56,2.06,6.56,2.31,6.44,2.45,6.43,2.7,6.31,2.83,6.3,3.09,6.18,3.22,6.05,3.21,6,3.61,5.92,3.73,5.79,3.73,5.67,4,5.66,4.12,5.4,4.24,5.28,4.51,5.27,4.63,5.15,4.76,4.89,4.89,4.89,5,4.63,5.15,4.51,5.27,4.37,5.41,4.12,5.4,4.12,5.67,3.86,5.66,3.73,5.79,3.6,5.92,3.35,6.05,3.22,6,3.09,6.18,2.83,6.18,2.7,6.43,2.57,6.44,2.32,6.43,2.19,6.56,1.93,6.57,1.8,6.69,1.54,6.69,1.29,6.69,1.29,6.69.9,6.69.9,1.16,2.06,24.06,42.2L424,588.6l1.16-2.06,6.69-.9,6.69-1,6.69-1.16,6.69-1.41,6.56-1.55,6.44-1.8,6.43-1.93,6.44-2.06,6.3-2.44,6.31-2.45,6.17-2.7,6.05-2.83,6.05-3.09,5.92-3.09,5.92-3.34,5.66-3.61,5.66-3.73,5.54-3.86,5.4-4.12,5.41-4.12,5.14-4.37,5-4.5,5-4.64,4.89-4.76,4.76-4.89,4.51-5,4.37-5.14,4.25-5.15,4.12-5.41,4-5.53,3.87-5.66,3.6-5.66,3.47-5.79,3.35-5.92,3.22-6.05,3-6.05,2.83-6.18,2.57-6.3L622.5,432l2.32-6.43,2.06-6.44,1.93-6.56,1.67-6.56,1.55-6.56,1.28-6.57,1.16-6.69,1-6.82.77-6.69,2.06-1.16L684,344.87ZM431.41,115.43l6.69,1.16,6.69,1.29,6.7,1.41,6.56,1.68,6.43,1.67,6.44,2.06,6.43,2.18,6.43,2.45L490,131.9l6.18,2.83,6.18,3,6,3.09,5.92,3.35,5.92,3.47,5.66,3.61,5.67,3.86,5.4,4,5.41,4.11,5.27,4.38,5.15,4.5,5,4.64,4.89,4.76,4.76,4.89,4.63,5.14,4.38,5.15,4.24,5.28,4.25,5.4,4,5.66,3.73,5.67,3.6,5.92,3.48,5.91,3.22,5.92,3.08,6.18,3,6.18,2.71,6.17,2.57,6.31,2.44,6.43,2.19,6.44,2.06,6.56,1.8,6.56,1.55,6.57,1.54,6.69,1.29,6.69,1,6.82-2.06-1.16L502.7,240.9,432.31,117.75l-.9-2.32ZM400.27,81.2,522.78,295.46h-.13l.9,1.54.64,1.68.52,1.67.25,1.8V304l-.13,1.8-.25,1.81-.52,1.67-.64,1.67-.9,1.55-1,1.54-1.16,1.42.13.12L501,337.28h-.13l-1,1.16-1,1h-.13l-.26-4.38-.64-4.37-.64-4.38-.52-4.24-1.16-4.38-1.28-4.12-1.42-4.11-1.67-4.12-1.8-4-2.06-3.86-2.06-3.86-2.32-3.73-2.44-3.61-2.7-3.47L475,279.5l-3-3.21L469,273.2l-3.22-3-3.22-2.83-3.47-2.71-3.61-2.57-3.73-2.32L448,257.76l-3.86-2.06-4-1.81L436,252.35l-4-1.54-4.24-1.29-4.25-1.16-4.25-.9-4.24-.77-4.25-.52h-.13l-1.28-2L408,242.06l-1.42-2.32L405,237.81l-1.8-1.8-1.8-1.8-21.49-19.56-.13.13-1.55-1.42-1.8-1.42-1.93-1.15-2.06-1-2.06-.9-2.05-.65-2.19-.38-2.19-.39-2.19-.13h-2.31l-2.19.26-2.19.39-2.19.64-2.05.64-2.06.9-1.93,1-.13-.13-31,18.15Zm71.42,310.26-2.06,3-1.42-1-1.8-1.29-2.06-1.54L462,388.88l-2.45-1.8-10.81-7.72-5.27-3.73L441.19,374,439,372.41,437.07,371l-1.54-1.16-1.29-.9-.9-.65-1.29-.77-1.28-.38h-1.29l-1.29.25L427,368l-.52.38-.13.13h0l-.13.13-.38.39-.26.25-.64,1-.39,1-.13,1.16.13,1.16.39,1.16.25.51.39.65.64,1,.9,1.42,1.16,1.8,1.29,2.06,1.54,2.45L434.5,390l3.6,5.66,3.61,5.67,3.34,5.27L446.6,409l1.28,2.06,1.16,1.8.9,1.41-.9.65-3.22,2.18v-.12l-1-1.55-1.15-1.93-1.29-2.19-1.55-2.44-1.67-2.7-7.08-11.33-3.34-5.53-1.55-2.57-1.41-2.32-1.29-2.06-1-1.67-.77-1.29-.64-.64-.9-1.16-1-.9-1.16-.52-1.29-.12-1.29.12-.64.26-.26.13h-.12l-.52.26-.26.13-1,.64-.77.9-.51,1-.26,1.16v1.16l.13.51.13.64.25,1.29.26,1.67.39,2.06.38,2.45.52,2.7,1,6.18,1.16,6.56,1.15,6.69,1,6.18.52,2.7.38,2.45.39,2.05.26,1.68v.25l-.65.13-4,.78h-.26v-.39l-.26-1.8-.39-2.19-.38-2.57-.52-2.83-.51-3-2.19-13.26-1-6.43-.51-3-.52-2.71-.38-2.31-.26-1.93-.26-1.55-.13-1-.38-1.41-.78-1.16-.9-.9-1.15-.64-1.29-.39h-1.8l-1.16.26-1,.51-.9.65-.77.9-.52,1-.13.51-.13.64-.25,1.29-.39,1.67-.51,2.06-.52,2.45-.64,2.7-1.42,6.18-1.41,6.56-1.42,6.56-1.41,6.18-.65,2.7-.51,2.45-.52,2.06-.38,1.67-.13.39h-.13l-4-.78-.77-.13.13-.64.38-1.8.52-2.19.51-2.57.65-2.83.64-3.09,3-12.87,1.42-6.31.64-2.83.51-2.57.52-2.32.51-1.93.39-1.54.26-1,.25-1.42-.13-1.28-.51-1.16-.77-1-1-.77-.64-.26-.26-.13h-.13l-.52-.13-.25-.13-1.16-.25H386l-1,.25-1,.52-.78.77-.38.39-.39.64-.77,1-1,1.42-1.16,1.8L378,385.67,376.46,388l-3.6,5.15L369,398.66l-3.86,5.54-3.6,5.14L360,411.66l-1.41,2.06-1.16,1.8-1,1.42-.39.51-3-1.93-1.16-.9.52-.64,1-1.55,1.29-1.8,1.54-2.06,1.67-2.31,1.8-2.58,7.73-10.94,3.73-5.27,1.67-2.45,1.54-2.18,1.42-1.94,1.16-1.67.9-1.28.64-.91.77-1.28.39-1.29v-1.29l-.39-1.28-.64-1.16-.39-.52-.12-.12h0L378,370l-.39-.39-.26-.26-1-.64-1-.39-1.15-.12-1.16.12-1,.39-.52.26-.64.38-1,.65-1.41.9L366.55,372l-2.05,1.28-2.32,1.55-5.28,3.34-5.53,3.61-5.66,3.6-5.28,3.34-2.31,1.55-2.06,1.29-1.81,1.15-1.41.9-.64.39-1.68-2.44-1.15-1.81.77-.51,1.54-1,1.93-1.16,2.19-1.41,2.44-1.55,2.58-1.67L352,375.37l5.41-3.47,2.44-1.55,2.32-1.41,2.06-1.29,1.67-1,1.29-.77.9-.52,1.16-.9.77-1,.51-1.15.13-1.29-.13-1.29-.25-.64-.13-.26h0l-.13-.13-.26-.51-.13-.26-.64-1-.77-.77-1-.52L366,355.3h-1.16l-.51.13-.78.12-1.15.26-1.68.26-2.06.39-2.44.38-2.7.52-6.05,1.15L341,359.67l-6.57,1.16L328.21,362l-2.71.51-2.44.39-2.06.39-1.67.25-.77.13-.52-2.19-.51-2.83.9-.13,1.8-.25,2.19-.39,2.57-.39,2.83-.51,3.09-.51L344,354.27l6.31-1,2.83-.52,2.57-.38,2.32-.39,1.93-.26,1.55-.25,1-.13,1.41-.26,1.16-.64.9-.9.64-1.16.39-1.29v-2.7l-.26-1.16-.51-1-.65-.9-.9-.64-1-.52-.51-.13-.64-.12-1.16-.26-1.68-.39-2.05-.51-2.45-.52-2.7-.64-5.92-1.29-6.56-1.41-6.57-1.42-6.05-1.29-2.7-.64-2.44-.51-2.06-.52-1.67-.38-.78-.13.26-1.55.77-3.47.9.26,1.81.38,2.18.52,2.58.64,2.83.64,3,.65,13,3,6.18,1.28,2.83.65,2.58.64,2.31.51,1.93.39,1.55.39,1,.25,1.41.26,1.29-.13,1.16-.51,1-.77.77-1,.26-.65.12-.25h0v-.13l.13-.52.13-.26L370,330v-1.16l-.26-1.16-.51-1-.78-.9-.38-.26-.52-.38-1-.78-1.41-1-1.8-1.29-1.93-1.29-2.32-1.54-5-3.61-5.53-3.86-5.41-3.86-5.14-3.6-2.19-1.67-2.06-1.42-1.67-1.29-1.42-1-.51-.39.38-.64,2.32-3.35.13-.13.64.52,1.55,1,1.8,1.28,2.06,1.55,2.31,1.67,2.45,1.8,10.81,7.72,5.14,3.73,2.45,1.68,2.19,1.54,1.93,1.42,1.54,1.15,1.29.91.77.64,1.29.77,1.28.39h1.29l1.29-.26,1.16-.64.51-.52.13-.13h0l.13-.13.38-.38.13-.26.65-1,.38-1,.13-1.16-.13-1.15-.26-1-.25-.52-.39-.64-.64-1-.9-1.42-1.16-1.8-1.29-2.06-1.54-2.31-3.35-5.28-3.6-5.66-3.6-5.66-3.35-5.28-1.54-2.32-1.29-2.06-1.16-1.8-.9-1.41-.26-.39.13-.13,3.35-2.18.64-.39.26.51,1,1.55,1.16,1.93,1.41,2.19,1.55,2.44,1.67,2.57,7.08,11.33,3.34,5.4,1.55,2.58,1.41,2.31,1.29,2.06,1,1.68.77,1.28.51.9.78,1.16,1,.9,1.15.52,1.29.13,1.29-.13.64-.26.13-.13h0l.13-.13.51-.26.26-.12,1-.65.77-.77.52-1,.25-1.16v-1.16l-.12-.51-.13-.77-.26-1.16-.26-1.67-.38-2.06v-2.58l-.52-2.7-1.16-6.18L387,283.36l-1.16-6.56-1.16-6.18-.52-2.7-.38-2.44-.39-2.06-.26-1.68v-.25l3.61-.65,1.28-.12V261l.26,1.8.39,2.19.38,2.58.52,2.83.51,3.08,2.19,13.13,1,6.43.52,3,.38,2.71.39,2.31.38,2.06.26,1.55.13,1,.39,1.41.64,1.16.9.9,1.16.64,1.28.39h1.81l1.15-.26,1-.51.9-.65.65-.9.51-1,.13-.51.13-.64.26-1.29.38-1.67.52-2.06.51-2.45.65-2.7,1.28-6.18,1.42-6.56,1.41-6.56,1.29-6.18.64-2.7.52-2.45.51-2.06.39-1.67,3.22.64,2.18.52v.13l-.38,1.8-.52,2.19L419.7,269l-.64,2.83-.65,3.09-3,13-1.41,6.3L413.4,297l-.65,2.58-.51,2.31-.52,1.93-.38,1.55-.26,1-.26,1.41.13,1.29.51,1.16.78,1,1,.77.64.26.26.13h.13l.51.12.26.13,1.16.26h1.15l1.16-.26,1-.51.77-.77.26-.39.39-.51.64-1,1-1.42,1.29-1.8,1.41-2.06,1.55-2.32,3.6-5.14,3.86-5.54,3.86-5.53,3.6-5.15,1.55-2.31,1.41-2.06,1.29-1.8.77-1.16,2.06,1.28L451,276l-1,1.41-1.29,1.81-1.54,2.05-1.67,2.32-1.8,2.57-7.73,10.94-3.73,5.28-1.67,2.44L429,307,427.55,309l-1.16,1.67-.9,1.29-.64.9-.77,1.29-.39,1.29v1.28L424,318l.64,1.16.52.51.12.13h0l.13.13.39.39.26.25,1,.65,1,.38,1.16.13,1.16-.13,1-.38.52-.26.64-.39,1-.64L435,319l1.81-1.16,2.05-1.29,2.32-1.54,5.28-3.35,5.66-3.6,5.66-3.6,5.28-3.35,2.31-1.54,2.06-1.29,1.8-1.16,1.16-.77,1.29,1.8,1.54,2.45-1.28.77L470,302.54,467.83,304l-2.58,1.55-2.57,1.67-11.19,7.08-5.41,3.47-2.44,1.55-2.32,1.41L439.39,322l-1.67,1-1.29.77-.9.51-1.16.91-.77,1-.52,1.16-.13,1.29.13,1.29.26.64.13.26.13.13.26.51.12.26.65,1,.77.77,1,.51,1.16.26h1.16l.51-.13.64-.13,1.16-.25,1.67-.26,2.06-.39,2.45-.38,2.7-.52,6.05-1,6.56-1.15,6.56-1.16,6.18-1,2.7-.52,2.45-.38,2.06-.39,1.28-.26.39,1.93.52,3.09-1.42.26-2.19.39-2.57.38-2.83.52-3.09.51-13,2.32-6.3,1-2.83.51-2.58.39-2.31.38-1.93.26-1.55.26-1,.13-1.41.38-1.16.65-.9.9-.65,1.16-.38,1.28V345l.13,1.16.51,1,.64.9.91.77,1,.52.51.13.64.13,1.16.25,1.67.39,2.06.51,2.45.52,2.7.64,6,1.29,6.56,1.41,6.44,1.42,6,1.41,2.71.65,2.44.51,2.06.52,1.29.25-.26,1.81-.77,3.21-1.55-.38-2.18-.52-2.58-.64-2.7-.64-3-.65-12.87-3-6.18-1.41-2.83-.65-2.57-.64-2.32-.51-1.93-.52-1.54-.38-1-.26-1.42-.26-1.28.13-1.29.51-1,.78-.77,1-.26.64-.13.26h0v.12L434,358l-.12.26-.26,1.16v1.15l.26,1,.51,1,.77.9.39.26.51.39,1,.64,1.42,1,1.67,1.16,2.06,1.41,2.32,1.55,5,3.6,5.41,3.86,5.4,3.86,5,3.6,2.32,1.55,2.06,1.41,1.67,1.29,1.16.77ZM171.73,307l1.29-6.69,1.54-6.69,1.54-6.56,1.81-6.57L180,274l2.19-6.43,2.45-6.44,2.57-6.3,2.83-6.18,3-6.18,3.09-6.17,3.35-5.92,3.47-5.92,3.6-5.92,3.73-5.66,4-5.67,4.25-5.4,4.25-5.28,4.37-5.14,4.63-5.15,4.77-4.89,4.89-4.76,5-4.64,5.15-4.5,5.28-4.38,5.4-4.11,5.41-4,5.66-3.86,5.66-3.61,5.92-3.47,5.92-3.35,6.05-3.08,6.18-3,6.17-2.84,6.18-2.57,6.43-2.44,6.44-2.19,6.3-1.93,6.57-1.8,6.56-1.68,6.69-1.41,6.69-1.29,6.69-1.16v.13l-1.16,2.06-70.39,123-123.4,71.94-2.06,1.15Zm-31.27,37.58L352.53,221v.13l1.54-.9,1.68-.64,1.67-.52,1.8-.26,1.8-.12,1.8.12,1.8.26,1.68.52,1.67.64,1.54.9,1.55,1,1.29,1.16v-.13L394,242.7v.13l1.29,1.41,1.29,1.29h.13l-4.38.39-4.37.38-4.25.65-4.25.9-4.24,1-4.25,1.28-4.12,1.42-4.12,1.67-4,1.8-4,1.93L351,259.17l-3.6,2.32-3.6,2.57-3.48,2.57L337,269.47l-3.22,3-3.09,3.08-3.09,3.22-2.83,3.35-2.7,3.6-2.57,3.6L317.14,293,315,296.88l-2.06,3.86-1.8,4-1.67,4.12L307.88,313l-1.29,4.25-1.16,4.24-.9,4.38-.64,4.37-.65,4.38v.13L301.05,336l-2.18,1.42L296.81,339l-2.06,1.68-1.93,1.8-1.8,1.93-19.43,21.75v.13l-1.42,1.67-1.29,1.8-1.15,1.93-1,2.06-.9,2.06-.65,2.06-.38,2.18-.39,2.19-.13,2.19v2.32l.26,2.18.38,2.19.65,2.19.64,2.06.9,2.06,1,1.93,16.73,29.21Zm223.26,233-6.56-1.16-6.43-1.28-6.57-1.55L337.73,572l-6.43-1.93L325,568l-6.31-2.32-6.17-2.31-6.18-2.58L300.28,558l-5.92-3-5.92-3.09-5.79-3.34L277,545.1l-5.66-3.6-5.41-3.86-5.4-3.86-5.28-4.12-5.14-4.24-5-4.38-4.89-4.5-4.76-4.76-4.64-4.89-4.5-4.89-4.38-5.15-4.24-5.28-4-5.27-3.86-5.54-3.73-5.53-3.48-5.66-3.47-5.79L195.92,458l-3.09-5.92L190,446l-2.83-6-2.57-6.18-2.45-6.3L180,421.05l-2.05-6.3-1.81-6.56-1.54-6.44L173,395.19l-1.29-6.56-1-6.57-.9-6.56h0l2.06,1.16L295.78,449l73.09,127.78,1.16,2.06Zm36.55,30.5L277.89,393.9l-.77-1.67-.64-1.67-.52-1.68-.26-1.8-.12-1.8.12-1.8.26-1.8.52-1.68.64-1.67.77-1.54,1-1.55,1.16-1.28v-.13l19.43-21.75h.13l.77-.9.77-.77.9-.77.91-.78v-.13l.25,4.38.52,4.37.64,4.38.9,4.38,1.16,4.37,1.16,4.12,1.41,4.12,1.68,4.11,1.8,4.12,2.06,4,2.06,3.86,2.31,3.73,2.45,3.61,2.7,3.6,2.7,3.47,3,3.35,3.09,3.09,3.22,3.09,3.34,2.83,3.48,2.7,3.6,2.57,3.73,2.32,3.86,2.19,3.86,2.06,4,1.93,4,1.67,4.25,1.42,4.24,1.28,4.25,1.16,4.38.9,4.24.64,4.38.65,1.28,2.19,1.42,2.05,1.54,1.93,1.55,1.93,1.8,1.81,1.8,1.8,21.62,19.56.13-.13,1.67,1.41,1.8,1.42,1.93,1.16,2.06,1,2.06.9,2.06.64,2.19.39,2.19.38,2.18.13h2.32l2.19-.25,2.18-.39,2.19-.64,2.06-.65,2.06-.9,2.06-1-.13.13,28.44-16.6ZM627.91,383.74l-1.16,6.56-1.29,6.56-1.41,6.44-1.67,6.43L620.45,416l-2.06,6.3-2.19,6.31-2.32,6.17L611.31,441l-2.7,5.92-3,5.92-3.09,5.79-3.22,5.79L596,470.08l-3.48,5.54-3.73,5.53-3.73,5.28-4,5.4L576.82,497l-4.24,5-4.38,4.89-4.63,4.76-4.76,4.63-4.76,4.5-5,4.38-5.15,4.25-5.15,4.11-5.27,3.86-5.41,3.74-5.53,3.73-5.66,3.34-5.67,3.35-5.79,3.09-5.92,2.83-5.92,2.83-6,2.57-6,2.45-6.18,2.19-6.18,2-6.3,1.93-6.43,1.68-6.44,1.54L443.51,576l-6.44,1.16-6.56.9L431.8,576l72.06-126.11L627,378.07l2.06-1.15Zm-178,84.67h0l-1.54.77-1.68.65-1.67.51-1.8.26-1.8.13-1.8-.13-1.81-.26-1.67-.51-1.67-.65-1.55-.9-1.54-1-1.29-1.16-.12.13-21.62-19.69-1.29-1.28-1.29-1.42,4.38-.38,4.37-.52,4.25-.64,4.25-.9,4.24-1.16,4.25-1.29,4.12-1.41,4.12-1.68,4-1.8,4-2.06,3.74-2.19,3.73-2.44,3.6-2.57,3.47-2.58,3.35-2.83,3.22-3,3.09-3.09,3.08-3.21,2.84-3.35,2.7-3.6,2.57-3.61,2.32-3.73,2.19-3.86,2.05-4,1.81-4,1.54-4.11,1.54-4.12,1.29-4.25,1.16-4.37.77-4.38.77-4.37.52-4.38,2.06-1.29,1.8-1.41,1.8-1.42,1.8-1.67,1.8-1.54,1.55-1.68,19.43-21.74-.13-.13,1.42-1.68,1.28-1.8,1.16-1.93.9-2.06.77-2.06.65-2.05.38-2.19.39-2.19.13-2.19v-2.31l-.26-2.19-.39-2.19L535,296.1l-.64-2.06-.9-2.05-1-2.06L515.05,259l147.09,85.71Z"/></g><polygon class="cls-2" points="502.74 240.83 626.15 312.77 628.21 313.93 627.18 307.11 625.89 300.41 624.35 293.72 622.8 287.16 621 280.6 618.94 274.03 616.76 267.6 614.31 261.17 611.74 254.86 609.04 248.68 606.08 242.51 602.99 236.33 599.77 230.41 596.3 224.49 592.69 218.57 588.96 212.91 584.97 207.25 580.73 201.84 576.48 196.57 572.1 191.42 567.47 186.27 562.71 181.38 557.82 176.62 552.8 171.99 547.65 167.48 542.38 163.11 536.97 158.99 531.57 155 525.91 151.14 520.24 147.54 514.33 144.06 508.41 140.72 502.36 137.63 496.18 134.67 490 131.84 483.83 129.27 477.39 126.82 470.96 124.63 464.52 122.57 458.09 120.9 451.53 119.23 444.84 117.81 438.14 116.53 431.45 115.37 432.35 117.68 502.74 240.83"/><polygon class="cls-2" points="436.6 344.04 436.6 343.65 436.6 343.01 436.99 341.72 437.63 340.56 438.53 339.66 439.69 339.02 441.1 338.63 442.13 338.5 443.68 338.25 445.61 337.99 447.93 337.6 450.5 337.22 453.33 336.7 459.63 335.67 472.63 333.36 475.72 332.84 478.55 332.33 481.13 331.94 483.31 331.56 484.73 331.3 484.21 328.21 483.83 326.28 482.54 326.54 480.48 326.92 478.04 327.31 475.33 327.82 469.16 328.85 462.59 330.01 456.03 331.17 449.98 332.2 447.28 332.71 444.84 333.1 442.78 333.49 441.1 333.74 439.95 334 439.3 334.13 438.79 334.26 437.63 334.26 436.47 334 435.44 333.49 434.67 332.71 434.03 331.68 433.9 331.43 433.64 330.91 433.51 330.78 433.38 330.53 433.13 329.88 433 328.6 433.13 327.31 433.64 326.15 434.41 325.12 435.57 324.22 436.47 323.7 437.76 322.93 439.43 321.9 441.36 320.62 443.68 319.2 446.12 317.66 451.53 314.18 462.72 307.11 465.3 305.43 467.87 303.89 470.06 302.47 471.99 301.31 473.27 300.54 471.73 298.1 470.44 296.3 469.29 297.07 467.48 298.23 465.43 299.51 463.11 301.06 457.83 304.4 452.17 308.01 446.51 311.61 441.23 314.95 438.92 316.5 436.86 317.79 435.06 318.94 433.64 319.85 432.61 320.49 431.97 320.87 431.45 321.13 430.42 321.52 429.27 321.65 428.11 321.52 427.08 321.13 426.05 320.49 425.79 320.23 425.4 319.85 425.28 319.72 425.15 319.59 424.63 319.07 423.99 317.92 423.73 316.63 423.73 315.34 424.12 314.05 424.89 312.77 425.53 311.87 426.44 310.58 427.59 308.91 429.01 306.98 430.55 304.79 432.23 302.34 435.96 297.07 443.68 286.13 445.48 283.56 447.15 281.24 448.7 279.18 449.98 277.38 451.01 275.96 448.95 274.42 446.89 273.13 446.12 274.29 444.84 276.09 443.42 278.15 441.88 280.47 438.27 285.62 434.41 291.15 430.55 296.68 426.95 301.83 425.4 304.15 423.99 306.2 422.7 308.01 421.67 309.42 421.03 310.45 420.64 310.97 420.39 311.35 419.61 312.12 418.58 312.64 417.43 312.9 416.27 312.9 415.11 312.64 414.85 312.51 414.34 312.38 414.21 312.38 413.95 312.25 413.31 312 412.28 311.22 411.51 310.19 410.99 309.04 410.86 307.75 411.12 306.33 411.38 305.3 411.76 303.76 412.28 301.83 412.79 299.51 413.44 296.94 414.08 294.11 415.5 287.8 418.46 274.81 419.1 271.72 419.74 268.89 420.39 266.31 420.9 264.13 421.29 262.32 421.29 262.19 419.1 261.68 415.88 261.04 415.5 262.71 414.98 264.77 414.47 267.21 413.82 269.92 412.54 276.09 411.12 282.66 409.71 289.22 408.42 295.39 407.78 298.1 407.26 300.54 406.75 302.6 406.36 304.27 406.1 305.56 405.97 306.2 405.85 306.72 405.33 307.75 404.69 308.65 403.79 309.29 402.76 309.81 401.6 310.06 401.34 310.06 400.83 310.06 400.7 310.06 400.44 310.06 399.8 310.06 398.51 309.68 397.35 309.04 396.45 308.13 395.81 306.98 395.42 305.56 395.29 304.53 395.04 302.99 394.65 300.93 394.26 298.61 393.88 295.91 393.36 292.95 392.33 286.52 390.15 273.39 389.63 270.3 389.12 267.47 388.73 264.9 388.34 262.71 388.09 260.91 388.09 260.65 386.8 260.78 383.2 261.42 383.2 261.68 383.45 263.35 383.84 265.41 384.23 267.86 384.74 270.56 385.9 276.74 387.06 283.3 388.22 289.99 389.37 296.17 389.89 298.87 389.89 301.44 390.27 303.5 390.53 305.18 390.79 306.33 390.92 307.11 391.05 307.62 391.05 308.78 390.79 309.94 390.27 310.97 389.5 311.74 388.47 312.38 388.22 312.51 387.7 312.77 387.57 312.9 387.44 313.02 386.8 313.28 385.51 313.41 384.23 313.28 383.07 312.77 382.04 311.87 381.27 310.71 380.75 309.81 379.98 308.52 378.95 306.85 377.66 304.79 376.25 302.47 374.7 299.9 371.36 294.49 364.28 283.17 362.61 280.6 361.06 278.15 359.65 275.96 358.49 274.03 357.46 272.49 357.2 271.98 356.56 272.36 353.21 274.55 353.08 274.68 353.34 275.06 354.24 276.48 355.4 278.28 356.69 280.34 358.23 282.66 361.58 287.93 365.18 293.59 368.79 299.26 372.13 304.53 373.68 306.85 374.96 308.91 376.12 310.71 377.02 312.12 377.66 313.15 378.05 313.8 378.31 314.31 378.56 315.34 378.69 316.5 378.56 317.66 378.18 318.69 377.54 319.72 377.41 319.97 377.02 320.36 376.89 320.49 376.76 320.62 376.25 321.13 375.09 321.77 373.8 322.03 372.52 322.03 371.23 321.65 369.94 320.87 369.17 320.23 367.88 319.33 366.34 318.17 364.41 316.76 362.22 315.21 359.78 313.54 354.63 309.81 343.82 302.09 341.38 300.29 339.06 298.61 337 297.07 335.2 295.78 333.65 294.75 333.01 294.24 332.88 294.37 330.57 297.71 330.18 298.36 330.69 298.74 332.11 299.77 333.78 301.06 335.84 302.47 338.03 304.15 343.18 307.75 348.58 311.61 354.12 315.47 359.13 319.07 361.45 320.62 363.38 321.9 365.18 323.19 366.6 324.22 367.63 324.99 368.14 325.38 368.53 325.64 369.3 326.54 369.81 327.57 370.07 328.72 370.07 329.88 369.81 331.04 369.69 331.3 369.56 331.81 369.56 331.94 369.43 332.2 369.17 332.84 368.4 333.87 367.37 334.64 366.21 335.16 364.92 335.29 363.51 335.03 362.48 334.77 360.94 334.39 359 334 356.69 333.49 354.12 332.84 351.28 332.2 345.11 330.91 332.11 327.95 329.15 327.31 326.32 326.67 323.75 326.02 321.56 325.51 319.76 325.12 318.86 324.86 318.08 328.34 317.83 329.88 318.6 330.01 320.27 330.4 322.33 330.91 324.77 331.43 327.48 332.07 333.52 333.36 340.09 334.77 346.65 336.19 352.57 337.48 355.27 338.12 357.72 338.63 359.78 339.15 361.45 339.53 362.61 339.79 363.25 339.92 363.77 340.05 364.8 340.56 365.7 341.21 366.34 342.11 366.85 343.14 367.11 344.3 367.11 344.68 367.11 345.2 367.11 346.35 367.11 347 366.73 348.28 366.08 349.44 365.18 350.34 364.02 350.99 362.61 351.24 361.58 351.37 360.03 351.63 358.1 351.89 355.79 352.27 353.21 352.66 350.38 353.17 344.08 354.2 330.95 356.39 327.86 356.9 325.03 357.42 322.46 357.81 320.27 358.19 318.47 358.45 317.57 358.58 318.08 361.41 318.6 363.6 319.37 363.47 321.04 363.21 323.1 362.82 325.55 362.44 328.25 361.92 334.43 360.77 340.99 359.61 347.55 358.45 353.6 357.29 356.3 356.78 358.75 356.39 360.81 356 362.48 355.75 363.64 355.49 364.41 355.36 364.92 355.23 366.08 355.23 367.24 355.49 368.27 356 369.04 356.78 369.69 357.81 369.81 358.06 370.07 358.58 370.2 358.71 370.33 358.96 370.59 359.61 370.71 360.89 370.59 362.18 370.07 363.34 369.3 364.37 368.14 365.27 367.24 365.79 365.95 366.56 364.28 367.59 362.22 368.87 359.9 370.29 357.46 371.83 352.06 375.31 340.86 382.38 338.29 384.06 335.84 385.6 333.65 387.02 331.72 388.18 330.18 389.2 329.41 389.72 330.57 391.52 332.24 393.97 332.88 393.58 334.3 392.68 336.1 391.52 338.16 390.23 340.47 388.69 345.75 385.34 351.41 381.74 356.95 378.14 362.22 374.79 364.54 373.25 366.6 371.96 368.4 370.8 369.81 369.9 370.84 369.26 371.49 368.87 372 368.62 373.03 368.23 374.19 368.1 375.35 368.23 376.38 368.62 377.41 369.26 377.66 369.52 378.05 369.9 378.18 370.03 378.31 370.16 378.69 370.68 379.34 371.83 379.72 373.12 379.72 374.41 379.34 375.69 378.56 376.98 377.92 377.88 377.02 379.17 375.86 380.84 374.45 382.77 372.9 384.96 371.23 387.4 367.5 392.68 359.78 403.62 357.98 406.19 356.3 408.51 354.76 410.57 353.47 412.37 352.44 413.91 351.93 414.56 353.08 415.46 356.05 417.39 356.43 416.87 357.46 415.46 358.62 413.65 360.03 411.6 361.58 409.28 365.18 404.13 369.04 398.6 372.9 393.07 376.51 387.92 378.05 385.6 379.46 383.54 380.62 381.74 381.65 380.33 382.43 379.3 382.81 378.65 383.2 378.27 383.97 377.5 385 376.98 386.03 376.72 386.67 376.72 387.83 376.98 388.09 377.11 388.6 377.24 388.73 377.24 388.99 377.37 389.63 377.62 390.66 378.4 391.43 379.43 391.95 380.58 392.08 381.87 391.82 383.29 391.56 384.31 391.18 385.86 390.66 387.79 390.15 390.11 389.63 392.68 388.99 395.51 387.57 401.82 384.61 414.68 383.97 417.77 383.33 420.6 382.81 423.18 382.3 425.37 381.91 427.17 381.78 427.81 382.55 427.94 386.54 428.71 386.67 428.71 386.8 428.32 387.19 426.65 387.7 424.59 388.22 422.15 388.86 419.45 390.27 413.27 391.69 406.71 393.11 400.14 394.52 393.97 395.17 391.26 395.68 388.82 396.19 386.76 396.58 385.09 396.84 383.8 396.97 383.16 397.1 382.64 397.61 381.61 398.38 380.71 399.28 380.07 400.31 379.55 401.47 379.3 401.73 379.3 402.24 379.3 402.37 379.3 402.63 379.3 403.27 379.3 404.56 379.68 405.72 380.33 406.62 381.23 407.39 382.38 407.78 383.8 407.9 384.83 408.16 386.37 408.42 388.3 408.81 390.62 409.32 393.32 409.83 396.28 410.86 402.72 413.05 415.97 413.57 418.93 414.08 421.76 414.47 424.34 414.85 426.52 415.11 428.32 415.11 428.71 415.37 428.71 419.36 427.94 420 427.81 420 427.55 419.74 425.88 419.36 423.82 418.97 421.38 418.46 418.67 417.43 412.5 416.27 405.81 415.11 399.24 414.08 393.07 413.57 390.36 413.18 387.92 412.79 385.86 412.54 384.19 412.28 382.9 412.15 382.26 412.02 381.74 412.02 380.58 412.28 379.43 412.79 378.4 413.57 377.5 414.6 376.85 414.85 376.72 415.37 376.47 415.5 376.47 415.75 376.34 416.4 376.08 417.68 375.95 418.97 376.08 420.13 376.59 421.16 377.5 422.06 378.65 422.7 379.3 423.48 380.58 424.5 382.26 425.79 384.31 427.21 386.63 428.75 389.2 432.1 394.74 439.17 406.06 440.85 408.76 442.39 411.21 443.68 413.4 444.84 415.33 445.87 416.87 445.87 417 449.08 414.81 449.98 414.17 449.08 412.75 447.93 410.95 446.64 408.89 445.09 406.58 441.75 401.3 438.14 395.64 434.54 389.98 431.2 384.7 429.65 382.26 428.37 380.2 427.21 378.4 426.31 376.98 425.66 375.95 425.28 375.31 425.02 374.79 424.63 373.63 424.5 372.48 424.63 371.32 425.02 370.29 425.66 369.26 425.92 369 426.31 368.62 426.44 368.49 426.56 368.36 427.08 367.97 428.24 367.33 429.52 367.07 430.81 367.07 432.1 367.46 433.38 368.23 434.28 368.87 435.57 369.77 437.12 370.93 439.05 372.35 441.23 373.89 443.55 375.56 448.82 379.3 459.63 387.02 462.08 388.82 464.4 390.49 466.45 392.04 468.26 393.32 469.67 394.35 471.73 391.39 472.63 389.85 471.47 389.08 469.8 387.79 467.74 386.37 465.43 384.83 460.41 381.23 455 377.37 449.6 373.51 444.58 369.9 442.26 368.36 440.2 366.94 438.53 365.79 437.12 364.75 436.09 364.11 435.57 363.73 435.19 363.47 434.41 362.57 433.9 361.54 433.64 360.51 433.64 359.35 433.9 358.19 434.03 357.94 434.15 357.42 434.15 357.29 434.28 357.03 434.54 356.39 435.31 355.36 436.34 354.59 437.63 354.07 438.92 353.95 440.33 354.2 441.36 354.46 442.91 354.85 444.84 355.36 447.15 355.88 449.73 356.52 452.56 357.16 458.73 358.58 471.6 361.54 474.56 362.18 477.26 362.82 479.84 363.47 482.03 363.98 483.57 364.37 484.34 361.15 484.6 359.35 483.31 359.09 481.25 358.58 478.81 358.06 476.11 357.42 470.06 356 463.62 354.59 457.06 353.17 451.01 351.89 448.31 351.24 445.87 350.73 443.81 350.21 442.13 349.83 440.98 349.57 440.33 349.44 439.82 349.31 438.79 348.8 437.89 348.03 437.24 347.13 436.73 346.1 436.6 344.94 436.6 344.55 436.6 344.04"/><polygon class="cls-2" points="268.15 399.24 267.13 397.31 266.22 395.25 265.58 393.19 264.94 391.01 264.55 388.82 264.29 386.63 264.29 384.31 264.42 382.13 264.81 379.94 265.19 377.75 265.84 375.69 266.74 373.63 267.77 371.58 268.93 369.64 270.21 367.84 271.63 366.17 271.63 366.04 291.06 344.3 292.86 342.37 294.79 340.56 296.85 338.89 298.91 337.35 301.1 335.93 303.29 334.64 303.29 334.51 303.93 330.14 304.57 325.76 305.47 321.39 306.63 317.14 307.92 312.9 309.46 308.78 311.13 304.66 312.94 300.67 315 296.81 317.18 292.95 319.5 289.22 322.07 285.62 324.77 282.01 327.61 278.67 330.69 275.45 333.78 272.36 337 269.4 340.35 266.57 343.82 264 347.42 261.42 351.03 259.11 354.76 256.92 358.75 254.99 362.74 253.19 366.85 251.51 370.97 250.1 375.22 248.81 379.46 247.78 383.71 246.88 387.96 246.24 392.33 245.85 396.71 245.47 396.58 245.47 395.29 244.18 394.01 242.76 394.01 242.63 372.39 223.07 372.39 223.2 371.1 222.05 369.56 221.02 368.01 220.12 366.34 219.47 364.67 218.96 362.87 218.7 361.06 218.57 359.26 218.7 357.46 218.96 355.79 219.47 354.12 220.12 352.57 221.02 352.57 220.89 140.5 344.55 284.88 428.45 268.15 399.24"/><polygon class="cls-2" points="295.82 448.91 171.9 376.59 169.84 375.44 170.74 382 171.77 388.56 173.06 395.13 174.6 401.69 176.15 408.12 177.95 414.68 180.01 420.99 182.19 427.42 184.64 433.73 187.21 439.91 190.04 445.95 192.88 452 195.96 457.92 199.18 463.71 202.66 469.5 206.13 475.17 209.86 480.7 213.72 486.23 217.71 491.51 221.96 496.78 226.33 501.93 230.84 506.82 235.47 511.71 240.23 516.47 245.12 520.98 250.14 525.35 255.29 529.6 260.56 533.72 265.97 537.58 271.37 541.44 277.03 545.04 282.7 548.51 288.49 551.86 294.41 554.95 300.32 557.91 306.37 560.74 312.55 563.31 318.73 565.63 325.03 567.95 331.34 570 337.77 571.93 344.21 573.61 350.77 575.15 357.2 576.44 363.77 577.6 370.07 578.75 368.91 576.7 295.82 448.91"/><polygon class="cls-2" points="346.78 210.98 346.91 211.11 348.84 210.08 350.9 209.18 352.96 208.53 355.14 207.89 357.33 207.5 359.52 207.25 361.84 207.25 364.02 207.38 366.21 207.76 368.4 208.15 370.46 208.79 372.52 209.69 374.57 210.72 376.51 211.88 378.31 213.3 379.85 214.71 379.98 214.58 401.47 234.14 403.27 235.94 405.07 237.75 406.62 239.68 408.03 241.99 409.45 244.05 410.74 246.11 410.86 246.11 415.11 246.62 419.36 247.4 423.6 248.3 427.85 249.46 432.1 250.74 436.09 252.29 440.2 253.83 444.19 255.63 448.05 257.69 451.79 259.75 455.52 262.07 459.12 264.64 462.6 267.34 465.81 270.17 469.03 273.13 472.12 276.22 475.08 279.44 477.78 282.78 480.48 286.26 482.93 289.86 485.24 293.59 487.3 297.45 489.36 301.31 491.16 305.3 492.83 309.42 494.25 313.54 495.54 317.66 496.7 322.03 497.21 326.28 497.85 330.65 498.5 335.03 498.75 339.4 498.88 339.4 499.91 338.38 500.94 337.22 501.07 337.22 520.5 315.47 520.37 315.34 521.53 313.93 522.56 312.38 523.46 310.84 524.11 309.16 524.62 307.49 524.88 305.69 525.01 303.89 525.01 302.09 524.75 300.29 524.23 298.61 523.59 296.94 522.69 295.39 522.82 295.39 400.31 81.14 315.77 229.12 346.78 210.98"/><polygon class="cls-2" points="296.21 240.45 366.6 117.43 367.75 115.37 367.75 115.24 361.06 116.4 354.37 117.68 347.68 119.1 341.12 120.77 334.56 122.57 328.25 124.5 321.81 126.69 315.38 129.14 309.2 131.71 303.03 134.54 296.85 137.5 290.8 140.59 284.88 143.94 278.96 147.41 273.3 151.01 267.64 154.87 262.24 158.86 256.83 162.98 251.55 167.36 246.41 171.86 241.39 176.49 236.5 181.25 231.74 186.14 227.1 191.29 222.73 196.44 218.48 201.71 214.24 207.12 210.25 212.78 206.51 218.44 202.91 224.36 199.44 230.28 196.09 236.2 193 242.38 190.04 248.56 187.21 254.73 184.64 261.04 182.19 267.47 180.01 273.9 177.95 280.47 176.15 287.03 174.6 293.59 173.06 300.29 171.77 306.98 170.74 313.54 172.8 312.38 296.21 240.45"/><polygon class="cls-2" points="515.1 258.98 532.47 289.86 533.5 291.92 534.4 293.98 535.04 296.04 535.69 298.23 536.07 300.41 536.33 302.6 536.33 304.92 536.2 307.11 535.82 309.29 535.43 311.48 534.79 313.54 534.01 315.6 533.11 317.66 531.96 319.59 530.67 321.39 529.25 323.06 529.38 323.19 509.95 344.94 508.41 346.61 506.6 348.15 504.8 349.83 503 351.24 501.2 352.66 499.14 353.95 498.63 358.32 497.85 362.7 497.08 367.07 495.92 371.45 494.64 375.69 493.09 379.81 491.55 383.93 489.75 387.92 487.69 391.91 485.5 395.77 483.18 399.5 480.61 403.1 477.91 406.71 475.08 410.05 471.99 413.27 468.9 416.36 465.68 419.32 462.34 422.15 458.86 424.72 455.26 427.3 451.53 429.74 447.8 431.93 443.81 433.99 439.82 435.79 435.7 437.46 431.58 438.88 427.33 440.16 423.09 441.32 418.84 442.22 414.6 442.87 410.22 443.38 405.85 443.77 407.13 445.18 408.42 446.47 430.04 466.16 430.17 466.03 431.45 467.19 433 468.22 434.54 469.12 436.21 469.76 437.89 470.27 439.69 470.53 441.49 470.66 443.29 470.53 445.09 470.27 446.77 469.76 448.44 469.12 449.98 468.35 662.18 344.68 515.1 258.98"/><polygon class="cls-2" points="503.9 449.81 431.84 575.92 430.55 577.98 437.12 577.08 443.55 575.92 449.98 574.64 456.42 573.09 462.85 571.42 469.16 569.49 475.33 567.43 481.51 565.24 487.56 562.8 493.61 560.23 499.53 557.39 505.45 554.56 511.24 551.47 516.9 548.13 522.56 544.78 528.09 541.05 533.5 537.32 538.77 533.46 543.92 529.34 549.07 525.09 554.09 520.72 558.85 516.22 563.61 511.58 568.24 506.82 572.62 501.93 576.87 496.91 581.11 491.76 585.1 486.36 588.83 481.08 592.56 475.55 596.04 470.02 599.38 464.36 602.6 458.56 605.69 452.77 608.65 446.86 611.35 440.94 613.93 434.76 616.24 428.58 618.43 422.28 620.49 415.97 622.42 409.67 624.09 403.23 625.51 396.8 626.79 390.24 627.95 383.67 629.11 376.85 627.05 378.01 503.9 449.81"/><polygon class="cls-2" points="455.9 478 456.03 477.87 453.97 478.9 451.91 479.8 449.86 480.44 447.67 481.08 445.48 481.47 443.29 481.73 440.98 481.73 438.79 481.6 436.6 481.21 434.41 480.83 432.35 480.18 430.3 479.28 428.24 478.25 426.31 477.1 424.5 475.68 422.83 474.26 422.7 474.39 401.08 454.83 399.28 453.03 397.48 451.23 395.94 449.3 394.39 447.37 392.98 445.31 391.69 443.12 387.31 442.48 383.07 441.84 378.69 440.94 374.45 439.78 370.2 438.49 365.95 437.07 361.96 435.4 357.98 433.47 354.12 431.41 350.25 429.23 346.52 426.91 342.92 424.34 339.44 421.63 336.1 418.8 332.88 415.71 329.79 412.63 326.83 409.28 324.13 405.81 321.43 402.2 318.98 398.6 316.67 394.87 314.61 391.01 312.55 387.02 310.75 382.9 309.08 378.78 307.66 374.66 306.5 370.55 305.34 366.17 304.44 361.8 303.8 357.42 303.29 353.05 303.03 348.67 303.03 348.8 302.13 349.57 301.23 350.34 300.45 351.12 299.68 352.02 299.55 352.02 280.12 373.76 280.12 373.89 278.96 375.18 277.93 376.72 277.16 378.27 276.52 379.94 276 381.61 275.75 383.41 275.62 385.22 275.75 387.02 276 388.82 276.52 390.49 277.16 392.17 277.93 393.84 400.31 608.1 484.34 461.4 455.9 478"/></svg>