<svg xmlns="http://www.w3.org/2000/svg" xmlns:xlink="http://www.w3.org/1999/xlink" viewBox="0 0 1000 500"><defs><style>.cls-1{fill:none;}.cls-2{clip-path:url(#clip-path);}.cls-3{fill:#f59e0b;}.cls-4{fill:#d97706;}.cls-5{fill:#fafafa;}.cls-6{fill:#374151;}.cls-7{fill:#111827;}.cls-8{fill:#191009;}.cls-9{opacity:0.42;}.cls-10{opacity:0.5;}.cls-11{fill:#fff;}.cls-12{fill:#fef08a;}.cls-13{fill:#fbbf24;}.cls-14{fill:#713f12;}</style><clipPath id="clip-path"><rect class="cls-1" y="-0.5" width="1000" height="500"/></clipPath></defs><g id="Layer_5" data-name="Layer 5"><g class="cls-2"><rect class="cls-3" y="0.5" width="1000" height="171"/><path class="cls-4" d="M-561.08,131.38c53.14-44.45,122-64.14,189.62-65.51S-236.86,80.28-172,100.72c36.23,11.41,72.39,24.37,110,28.38,48.07,5.13,96.33-4.58,143.77-14.25L213.15,88.08c47.77-9.73,96.17-19.51,144.71-16.17,42.27,2.9,83.29,15.65,124.61,25.49a919.68,919.68,0,0,0,330.36,17.46c69.92-9,138.67-26.11,207.53-41.86,44.75-10.23,98-17.5,130.45,16.79,26.23,27.73,27.61,71.59,27.32,110.88-.12,16.06-.44,32.92-7.94,46.85-13.28,24.7-43.39,31.33-69.89,35.48L728.86,341.06c-80.5,12.58-161.18,25.19-242.47,29.07-81.61,3.89-163.33-1-245-3.85-156.78-5.44-313.7-3.2-470.56-2.23-65.57.41-131.41.58-196.32-9.25-26-3.93-52.63-9.81-74.4-25.45-36.74-26.37-52.54-74.56-66-119.4-8.45-28-15.84-62.12,2.59-84.11"/><circle class="cls-5" cx="304.5" cy="102" r="48.5"/><circle class="cls-5" cx="802" cy="-10.5" r="97"/><path class="cls-6" d="M635,72.5c23.88-3.89,50.09-30.77,73.48-37a50.78,50.78,0,0,1,13.24-1.44c31,.11,62.5,18.22,74,47,6.07,15.2,6.45,32,6.18,48.39-.07,4.29-.19,8.67-1.61,12.73-1.31,3.75-3.66,7-6,10.26L765,193.17c-4.78,6.64-9.62,13.37-12.58,21-5.11,13.17-4.23,27.87-7.56,41.6a16,16,0,0,1-3.19,7.09c-3,3.36-8,3.94-12.56,4.17-7,.34-13.94.39-20.9.13-2.19-.09-4.47-.22-6.36-1.32a12.06,12.06,0,0,1-4.18-4.86,44.62,44.62,0,0,1-5-28.5c.88-5.47,2.78-10.72,4.67-15.93,8.16-22.47,16.46-45.23,30.22-64.78,7.43-10.57,16.64-20.62,19.22-33.28.52-2.52.67-5.41-1-7.4a10.06,10.06,0,0,0-4.1-2.58c-7.46-3.13-16.87-6-22.94-.64-2.7,2.38-2.85,9.62-.85,15.62,2.22,6.66-12,11.84-18.37,9-6.63-3-11.68-3.12-18.63-7s-16.65-4.78-21.52-11.06C651.23,103.79,648,80.5,635,72.5"/><path class="cls-7" d="M637.51,75c3.32,7.27-1.08,16.56,2.9,23.49a17.76,17.76,0,0,0,3.12,3.8c2.43,2.37,5.24,4.56,8.57,5.21-5.33,3.71-6,11.23-6,17.73s-.26,13.92-5.24,18.09c5.3-2.4,11.49,0,17.3-.51,8.07-.7,14.55-6.91,19.33-13.45,2,7.08,9.37,11.12,16.3,13.61s14.54,4.46,19.41,10c1.58-6,3.86-11.81,5-17.9S719.1,122.38,716,117a18.52,18.52,0,0,0-12.45-8.78c5.66-5.11,8.09-12.92,9-20.49s.62-15.28,2-22.78c-.19,1.81-1.54,3.25-2.87,4.48a68.3,68.3,0,0,1-27.91,15.59,5.48,5.48,0,0,1-2.8.26,6.89,6.89,0,0,1-2.9-2.23c-5.26-5.43-13.4-6.73-20.94-7.13s-15.46-.31-22.14-3.84"/><path class="cls-8" d="M659.42,111.69c1.58,4.81,2.08,6.19,6.57,9.8s10.91,4.38,16.39,2.62a16.44,16.44,0,0,0,9.9-8.15c2.46-5.1,1.38-11.49-2-16s-8.82-7.26-14.4-8.16c-3.53-.57-7.35-.41-10.41,1.44-5.72,3.46-6.8,11.33-6,18"/><g class="cls-9"><g class="cls-10"><path class="cls-11" d="M679.07,103.85a1.18,1.18,0,0,0,1.07.12l11.45-2.44a16.73,16.73,0,0,0-1.32-2.09,20.36,20.36,0,0,0-7.76-6.11L679,102.55C678.87,103,678.73,103.54,679.07,103.85Z"/></g><g class="cls-10"><path class="cls-11" d="M682.63,105.82a.79.79,0,0,0-.14.53,1,1,0,0,0,.46.56,53.67,53.67,0,0,0,10.39,5.34,16.2,16.2,0,0,0-1.73-10.68,45.19,45.19,0,0,0-6.84,2.6A4.6,4.6,0,0,0,682.63,105.82Z"/></g><g class="cls-10"><path class="cls-11" d="M675.37,113.8a.92.92,0,0,0-.49-.33c-.36-.06-.68.24-.93.51a49.64,49.64,0,0,0-5.64,7.65,20.87,20.87,0,0,0,2.68-10,.68.68,0,0,0-.12-.49c-.2-.21-.53-.12-.78,0l-8.28,3.37,3.45-2.06c1.49-.89,3.08-1.9,3.66-3.54l-9.12-.76q3.12-.18,6.21-.66a3.77,3.77,0,0,0,2.07-.77,1.2,1.2,0,0,0,.39-.71,1.72,1.72,0,0,0-.4-1.06q-2.93-4.34-6.05-8.54l1-.14a35.85,35.85,0,0,1,6.8,6.68c.42.53,1.15,1.13,1.66.69a1.24,1.24,0,0,0,.29-1c0-3.82,0-7.65,0-11.47a79.32,79.32,0,0,0,1.59,10.3,3,3,0,0,0,.45,1.18,1.06,1.06,0,0,0,1.11.44,1.58,1.58,0,0,0,.64-.51,84.3,84.3,0,0,0,7-9.31,25.68,25.68,0,0,0-6.61-2c-3.53-.57-7.35-.4-10.41,1.44-5.72,3.46-6.8,11.33-6,18l0,.49c1.58,4.81,2.08,6.2,6.57,9.8a16.83,16.83,0,0,0,10.31,3.52l-.18-7.79A4.54,4.54,0,0,0,675.37,113.8Z"/></g><g class="cls-10"><path class="cls-11" d="M682.39,111.26a10,10,0,0,0,1.58,5.89,32.54,32.54,0,0,1,2.36,4.63,15.24,15.24,0,0,0,5.95-6.33,13.37,13.37,0,0,0,1-3Z"/></g><g class="cls-10"><path class="cls-11" d="M679.88,113.16c-.17.06-.24.26-.29.44l-3.21,10.9a19.06,19.06,0,0,0,6-.9,17.76,17.76,0,0,0,3.79-1.73,40.33,40.33,0,0,0-5.69-8.42C680.33,113.27,680.11,113.08,679.88,113.16Z"/></g><g class="cls-10"><path class="cls-11" d="M676.3,124.76l.08-.26h-.08Z"/></g><g class="cls-10"><path class="cls-11" d="M686.62,122.73c-.08-.32-.18-.64-.29-1l-.16.09C686.32,122.16,686.48,122.44,686.62,122.73Z"/></g><g class="cls-10"><path class="cls-11" d="M682.56,93.18a.57.57,0,0,1-.08.13l0,0Z"/></g><g class="cls-10"><path class="cls-11" d="M693.83,112.45l-.49-.2,0,.15Z"/></g><g class="cls-10"><path class="cls-11" d="M692.06,101.43l-.47.1,0,0Z"/></g></g><path class="cls-8" d="M658.33,112c.93,2.82,1.87,5.51,4,7.71a20,20,0,0,0,9.54,5.86c7.4,1.85,16-.85,20.39-7.25,4.54-6.63,2.54-15.75-2.92-21.18a23.64,23.64,0,0,0-10.12-5.75c-3.81-1.1-8.17-1.53-12-.19-8.16,2.89-9.74,12.43-8.89,20,.16,1.42,2.41,1.44,2.25,0-.63-5.59-.23-12.9,4.77-16.53,5.74-4.18,14.81-1.62,20.11,2.14,5.59,4,8.91,11.63,6,18.23-2.76,6.35-10.31,9.47-16.9,8.75a17.21,17.21,0,0,1-10.05-5c-2.19-2.08-3.1-4.55-4-7.36-.45-1.37-2.62-.79-2.17.6Z"/><path class="cls-12" d="M-561,255.12-329.69,93.41c10.47-7.31,22.11-15,34.83-13.84,11.4,1,20.85,8.84,29.59,16.21A1295.41,1295.41,0,0,0-138,190.31c21.45,14,45,27.82,70.56,27.14,66.84-1.77,107.19-98,173.42-88.83,20,2.77,37.06,15.21,53.4,27,51.14,37,107,72.88,169.95,77.7,81,6.19,157.25-40.09,238.31-45.15,43.42-2.71,86.56,6.5,129.6,12.84a989.51,989.51,0,0,0,342.53-9.66c10.57-2.17,22.87-4.1,31,3,5.1,4.4,7.18,11.27,9,17.75q21.24,74.75,42.47,149.5c12.54,44.14,21.27,100.63-15.59,128-16.38,12.15-37.76,14.6-58.05,16.59A9490.81,9490.81,0,0,1-289.32,542c-73.28-3.21-149.89-8.27-212.66-46.23S-607.36,376-577,309.21c8.84-19.44,23.31-36.91,26.28-58.06"/><path class="cls-13" d="M-281,83.5c-7-3-13.39-7.24-19.64-9s-14.05,0-17,5.8C-322,88.69-314,98.19-306,103.3s17.72,10.61,18.6,20c.76,8.15-5.7,15-11.82,20.44A403.83,403.83,0,0,1-345,178.93c-14,9.22-28.74,17.75-40.06,30.09s-18.84,29.63-14.8,45.89c6.42,25.89,37,36.75,63.48,40.25,39.53,5.23,80.9,3.8,117.47,19.7,14.26,6.21,28.8,17.16,30,32.66.78,10.11-4.41,19.71-10.43,27.86a124.89,124.89,0,0,1-34.73,31.93c-14.21,8.76-30.55,14.94-41.62,27.45-7.19,8.12-11,22-2.8,29,5.08,4.36,12.53,4.13,19.21,3.66L-20,450.59c24.68-1.74,49.4-3.48,73.82-7.42,18.93-3.06,41.07-10.61,45.53-29.26,3.73-15.58-7.19-30.65-18.25-42.24-19.64-20.58-41.83-38.52-64-56.4L-189,148.68c-31.26-25.26-55.14-49.1-92-65.18"/><path class="cls-13" d="M40.49,360.93A226.77,226.77,0,0,0,89,341.17c11.34-6.23,23.58-16.37,21.71-29.18-1.21-8.31-8.12-14.44-14.57-19.81L64.35,265.77c-6.3-5.23-12.94-11-15-18.93-3.32-12.89,7-25.48,18.45-32.24s24.86-10.42,34.83-19.23C121.76,178.51,122,139.5,100,127.5c13,1,22.73,5.66,33,11,86.23,44.87,165,105.33,236.61,171,13.08,12,25.88,24.31,39.58,35.57,20.1,16.52,42.06,30.72,61.42,48.09S507,431.84,513.46,457c1,3.72,1.67,7.68.57,11.35-1.66,5.51-6.92,9-12,11.8-44.8,24.64-98.38,25.66-149.52,25.52-80.77-.21-162-1.84-241.49-15.93-21-3.72-42.61-8.64-59.64-21.49-18.22-13.75-29.55-36.64-28.06-59.41S39.7,364.38,60.9,356"/><path class="cls-13" d="M435.06,394.76a474.28,474.28,0,0,1,108.58-25c10.82-1.17,21.9-2,31.9-6.32s19-12.83,20.44-23.61c1.7-12.39-6.8-24.19-17.19-31.15s-22.66-10.47-34-15.85c-3.67-1.74-7.55-4-8.81-7.91-3.11-9.52,10.44-14.6,19.7-18.44,21.52-8.9,31.33-38.45,19.41-58.46-3.3-5.54-7.85-12.89-3.36-17.52,1.94-2,4.93-2.48,7.7-2.81a271,271,0,0,1,74.56,1.1c18.51,3,36.6,8,54.91,12.05,66,14.51,138.69,17,191.78,58.8,13.21,10.39,24.62,22.85,36.49,34.74,52.3,52.39,114.23,94.2,178.16,131.53,16.19,9.45,33.08,19.13,43.84,34.48s13.38,38.22.65,52c-7.25,7.84-17.94,11.36-28.21,14.35C1010.4,562,882.22,564.24,756,562.19c-92.57-1.51-189-6.2-270.15-50.72-22.87-12.55-45.64-30.3-51.59-55.7-5.76-24.58,6-50.34,22.91-69.12"/><path class="cls-14" d="M-453,422.5c223.24,14.4,447.7-49.43,670.56-30.15,66.15,5.73,131.39,19.43,197.47,26,177.18,17.54,355.27-16.72,533.32-16.71,27.77,0,56.36,1,81.79,12.16s47.25,34.76,48.3,62.51c1,25-15.11,48.27-35.71,62.51s-45.31,21-69.58,27.21c-192.28,48.93-390.34,73.84-588.66,79.74C212,650.87,39.37,641.7-133,632.54c-72.55-3.86-145.43-7.76-216.59-22.42-58.25-12-116.12-31.76-163.3-68-15.85-12.17-31.76-30.84-25.74-49.9,2.87-9.09,10.24-15.94,17.52-22.1A441.59,441.59,0,0,1-453,422.68"/></g></g></svg>